<svg width="805" height="545" viewBox="0 0 805 545" fill="none" xmlns="http://www.w3.org/2000/svg">
<path d="M54.9985 303.995C76.2828 303.995 93.5371 297.858 93.5371 290.287C93.5371 282.716 76.2828 276.579 54.9985 276.579C33.7143 276.579 16.46 282.716 16.46 290.287C16.46 297.858 33.7143 303.995 54.9985 303.995Z" fill="#E8DBD1"/>
<path opacity="0.1" d="M765.844 357.201C787.128 357.201 804.383 351.063 804.383 343.493C804.383 335.922 787.128 329.785 765.844 329.785C744.56 329.785 727.306 335.922 727.306 343.493C727.306 351.063 744.56 357.201 765.844 357.201Z" fill="black"/>
<path d="M441.209 425.529C488.691 401.726 524.713 430.206 555.972 456.42C600.741 479.628 597.348 526.666 643.522 443.504C806.416 172.436 584.687 180.456 584.687 180.456C584.687 180.456 509.458 169.011 462.63 119.959C421.218 76.5806 371.481 68.8574 323.299 88.8054C292.488 101.563 272.396 104.158 249.028 151.016C208.587 232.107 195.463 228.955 157.193 254.34C118.924 279.725 143.882 380.333 166.682 414.067C221.203 494.733 342.555 540.294 342.555 540.294C393.18 557.12 358.285 475.442 441.209 425.529Z" fill="#E6E6E6"/>
<path d="M764.285 345.438C764.285 345.438 774.562 310.448 762.35 284.695C757.149 273.925 755.58 261.759 757.879 250.022C759.015 244.458 760.657 239.009 762.787 233.744" stroke="#535461" stroke-width="2" stroke-miterlimit="10"/>
<path d="M755.182 217.475C755.182 221.758 762.941 234.198 762.941 234.198C762.941 234.198 770.7 221.767 770.7 217.475C770.7 215.415 769.882 213.439 768.426 211.983C766.97 210.527 764.996 209.708 762.937 209.708C760.878 209.708 758.903 210.527 757.447 211.983C755.991 213.439 755.173 215.415 755.173 217.475H755.182Z" fill="#FF7518"/>
<path d="M742.353 241.232C744.682 244.83 757.957 251.05 757.957 251.05C757.957 251.05 757.717 236.391 755.387 232.793C754.834 231.937 754.117 231.199 753.278 230.621C752.439 230.042 751.494 229.635 750.497 229.422C749.501 229.208 748.472 229.194 747.47 229.378C746.468 229.563 745.512 229.943 744.657 230.497C743.801 231.051 743.063 231.768 742.485 232.608C741.907 233.447 741.5 234.392 741.287 235.389C741.073 236.386 741.059 237.415 741.243 238.417C741.428 239.42 741.808 240.376 742.361 241.232H742.353Z" fill="#FF7518"/>
<path d="M742.909 281.816C746.737 283.744 761.331 282.416 761.331 282.416C761.331 282.416 753.726 269.881 749.898 267.954C748.06 267.027 745.93 266.868 743.975 267.512C742.02 268.156 740.402 269.551 739.475 271.389C738.548 273.228 738.39 275.359 739.034 277.314C739.678 279.269 741.072 280.889 742.909 281.816V281.816Z" fill="#FF7518"/>
<path d="M750.249 312.436C753.675 315.006 768.302 316.137 768.302 316.137C768.302 316.137 762.924 302.498 759.481 299.953C757.826 298.728 755.753 298.211 753.717 298.516C751.682 298.82 749.85 299.921 748.626 301.577C747.402 303.232 746.885 305.306 747.189 307.342C747.494 309.379 748.594 311.211 750.249 312.436V312.436Z" fill="#FF7518"/>
<path d="M774.246 251.881C771.171 254.871 756.843 257.964 756.843 257.964C756.843 257.964 760.355 243.734 763.429 240.744C764.905 239.309 766.891 238.519 768.949 238.549C771.008 238.579 772.97 239.425 774.404 240.902C775.838 242.379 776.628 244.366 776.598 246.425C776.568 248.484 775.722 250.446 774.246 251.881V251.881Z" fill="#FF7518"/>
<path d="M782.373 287.787C778.545 289.715 763.951 288.387 763.951 288.387C763.951 288.387 771.556 275.853 775.384 273.968C777.222 273.041 779.352 272.882 781.307 273.526C783.262 274.171 784.88 275.565 785.807 277.404C786.734 279.242 786.892 281.373 786.248 283.328C785.604 285.284 784.21 286.903 782.373 287.83V287.787Z" fill="#FF7518"/>
<path d="M785.482 323.779C782.056 326.349 767.428 327.48 767.428 327.48C767.428 327.48 772.807 313.841 776.25 311.296C777.904 310.072 779.977 309.555 782.013 309.859C784.049 310.164 785.88 311.265 787.105 312.92C788.329 314.575 788.846 316.649 788.541 318.686C788.237 320.722 787.136 322.554 785.482 323.779V323.779Z" fill="#FF7518"/>
<path d="M55.0157 290.391C55.0157 290.391 77.017 215.751 50.905 160.749C39.9429 137.676 36.3459 111.786 41.3731 86.7517C43.7966 74.8785 47.3026 63.2525 51.847 52.0193" stroke="#535461" stroke-width="2" stroke-miterlimit="10"/>
<path d="M35.6008 17.2787C35.6008 26.4288 52.1639 52.9706 52.1639 52.9706C52.1639 52.9706 68.7183 26.4116 68.7183 17.2787C68.7183 12.8843 66.9733 8.66978 63.8671 5.56241C60.7609 2.45505 56.5481 0.709351 52.1553 0.709351C47.7625 0.709351 43.5496 2.45505 40.4435 5.56241C37.3373 8.66978 35.5923 12.8843 35.5923 17.2787H35.6008Z" fill="#FF7518"/>
<path d="M9.41162 154.605C17.5818 158.726 48.7295 155.881 48.7295 155.881C48.7295 155.881 32.4577 129.134 24.3303 125.038C22.388 124.059 20.2718 123.471 18.1025 123.309C15.9332 123.147 13.7533 123.415 11.6872 124.096C9.62118 124.777 7.70942 125.858 6.06113 127.278C4.41284 128.698 3.0603 130.429 2.08073 132.372C1.10115 134.315 0.51373 136.432 0.351999 138.602C0.190268 140.773 0.457397 142.953 1.13813 145.02C2.51294 149.194 5.489 152.651 9.41162 154.63V154.605Z" fill="#FF7518"/>
<path d="M25.0409 219.949C32.3975 225.389 63.5795 227.848 63.5795 227.848C63.5795 227.848 52.1035 198.719 44.7384 193.304C41.2064 190.691 36.7815 189.589 32.4371 190.239C28.0926 190.89 24.1845 193.24 21.5724 196.774C18.9604 200.307 17.8584 204.734 18.5088 209.08C19.1593 213.426 21.5089 217.336 25.0409 219.949V219.949Z" fill="#FF7518"/>
<path d="M76.2976 90.6669C69.7375 97.0411 39.1636 103.647 39.1636 103.647C39.1636 103.647 46.6486 73.2665 53.2087 66.8923C56.3602 63.8248 60.6007 62.1353 64.9974 62.1956C69.394 62.2558 73.5867 64.0609 76.653 67.2136C79.7193 70.3663 81.4082 74.6084 81.3479 79.0068C81.2877 83.4051 79.4834 87.5994 76.3319 90.6669H76.2976Z" fill="#FF7518"/>
<path d="M93.6397 167.353C85.4695 171.474 54.3218 168.63 54.3218 168.63C54.3218 168.63 70.5936 141.882 78.721 137.787C80.6632 136.807 82.7795 136.219 84.9488 136.057C87.1181 135.896 89.298 136.163 91.3641 136.844C93.4301 137.525 95.3419 138.606 96.9902 140.026C98.6385 141.447 99.991 143.178 100.971 145.121C101.95 147.064 102.538 149.181 102.699 151.351C102.861 153.521 102.594 155.702 101.913 157.769C101.232 159.835 100.151 161.748 98.7318 163.397C97.3123 165.046 95.582 166.399 93.6397 167.379V167.353Z" fill="#FF7518"/>
<path d="M100.277 244.169C92.9203 249.609 61.7383 252.068 61.7383 252.068C61.7383 252.068 73.2142 222.939 80.5794 217.524C84.1113 214.911 88.5362 213.809 92.8807 214.459C97.2251 215.11 101.133 217.461 103.745 220.994C106.357 224.527 107.459 228.954 106.809 233.3C106.158 237.646 103.809 241.556 100.277 244.169V244.169Z" fill="#FF7518"/>
<path d="M367.015 139.551L319.287 133.365C317.352 133.117 315.862 132.38 315.913 131.738C315.999 131.095 317.626 130.795 319.604 131.078L367.229 137.975C368.54 138.163 369.533 138.66 369.473 139.097C369.413 139.508 368.317 139.722 367.015 139.551Z" fill="#FF7518"/>
<path d="M367.315 140.365L319.442 135.413C317.497 135.216 315.845 135.576 315.785 136.218C315.725 136.861 317.275 137.538 319.21 137.709L367.169 141.993C368.488 142.113 369.567 141.856 369.61 141.419C369.644 140.956 368.625 140.502 367.315 140.365Z" fill="#FF7518"/>
<path d="M439.134 176.391L486.853 170.205C488.788 169.957 490.279 169.22 490.227 168.577C490.141 167.935 488.514 167.635 486.536 167.918L438.911 174.815C437.601 175.003 436.607 175.5 436.667 175.937C436.727 176.348 437.823 176.562 439.134 176.391Z" fill="#FF7518"/>
<path d="M438.825 177.205L486.699 172.253C488.643 172.056 490.295 172.416 490.355 173.058C490.415 173.701 488.865 174.378 486.93 174.549L438.971 178.833C437.652 178.953 436.573 178.696 436.53 178.259C436.496 177.796 437.515 177.342 438.825 177.205Z" fill="#FF7518"/>
<path d="M281.271 227.667H269.633V394.612H281.271V227.667Z" fill="#40414D"/>
<path d="M535.471 227.667H523.832V394.612H535.471V227.667Z" fill="#40414D"/>
<path d="M265.188 214.079H534.101C539.098 214.079 543.891 216.065 547.424 219.6C550.957 223.135 552.942 227.929 552.942 232.928V235.429H246.347V232.928C246.347 227.929 248.332 223.135 251.865 219.6C255.398 216.065 260.191 214.079 265.188 214.079V214.079Z" fill="#DFE6F5"/>
<path opacity="0.1" d="M264.331 214.079H533.245C538.242 214.079 543.034 216.065 546.568 219.6C550.101 223.135 552.086 227.929 552.086 232.928V235.429H245.49V232.928C245.49 227.929 247.475 223.135 251.009 219.6C254.542 216.065 259.334 214.079 264.331 214.079V214.079Z" fill="black"/>
<path d="M265.188 210.19H534.101C539.098 210.19 543.891 212.175 547.424 215.71C550.957 219.245 552.942 224.039 552.942 229.038V231.54H246.347V229.038C246.347 224.039 248.332 219.245 251.865 215.71C255.398 212.175 260.191 210.19 265.188 210.19Z" fill="#DFE6F5"/>
<path d="M399.645 196.601C412.505 196.601 422.93 186.172 422.93 173.307C422.93 160.441 412.505 150.012 399.645 150.012C386.784 150.012 376.359 160.441 376.359 173.307C376.359 186.172 386.784 196.601 399.645 196.601Z" fill="#FFD77C" stroke="#FFAB50" stroke-miterlimit="10"/>
<path d="M399.645 191.769C409.837 191.769 418.1 183.503 418.1 173.307C418.1 163.11 409.837 154.844 399.645 154.844C389.452 154.844 381.189 163.11 381.189 173.307C381.189 183.503 389.452 191.769 399.645 191.769Z" fill="#FFD77C" stroke="#FFAB50" stroke-miterlimit="10"/>
<path d="M399.645 187.374C407.411 187.374 413.707 181.076 413.707 173.307C413.707 165.537 407.411 159.239 399.645 159.239C391.878 159.239 385.582 165.537 385.582 173.307C385.582 181.076 391.878 187.374 399.645 187.374Z" fill="#FFD77C" stroke="#FFAB50" stroke-miterlimit="10"/>
<path d="M399.644 181.214C404.01 181.214 407.549 177.674 407.549 173.307C407.549 168.939 404.01 165.399 399.644 165.399C395.279 165.399 391.74 168.939 391.74 173.307C391.74 177.674 395.279 181.214 399.644 181.214Z" fill="#FFD77C" stroke="#FFAB50" stroke-miterlimit="10"/>
<path d="M386.062 209.221C398.922 209.221 409.348 198.792 409.348 185.926C409.348 173.061 398.922 162.632 386.062 162.632C373.202 162.632 362.776 173.061 362.776 185.926C362.776 198.792 373.202 209.221 386.062 209.221Z" fill="#FFD77C" stroke="#FFAB50" stroke-miterlimit="10"/>
<path d="M386.062 204.389C396.255 204.389 404.518 196.123 404.518 185.927C404.518 175.73 396.255 167.464 386.062 167.464C375.869 167.464 367.606 175.73 367.606 185.927C367.606 196.123 375.869 204.389 386.062 204.389Z" fill="#FFD77C" stroke="#FFAB50" stroke-miterlimit="10"/>
<path d="M386.062 199.994C393.828 199.994 400.124 193.696 400.124 185.926C400.124 178.157 393.828 171.859 386.062 171.859C378.295 171.859 372 178.157 372 185.926C372 193.696 378.295 199.994 386.062 199.994Z" fill="#FFD77C" stroke="#FFAB50" stroke-miterlimit="10"/>
<path d="M386.062 193.834C390.428 193.834 393.967 190.294 393.967 185.927C393.967 181.559 390.428 178.019 386.062 178.019C381.696 178.019 378.157 181.559 378.157 185.927C378.157 190.294 381.696 193.834 386.062 193.834Z" fill="#FFD77C" stroke="#FFAB50" stroke-miterlimit="10"/>
<path d="M413.227 209.221C426.087 209.221 436.513 198.792 436.513 185.926C436.513 173.061 426.087 162.632 413.227 162.632C400.367 162.632 389.941 173.061 389.941 185.926C389.941 198.792 400.367 209.221 413.227 209.221Z" fill="#FFD77C" stroke="#FFAB50" stroke-miterlimit="10"/>
<path d="M413.227 204.389C423.42 204.389 431.683 196.123 431.683 185.927C431.683 175.73 423.42 167.464 413.227 167.464C403.034 167.464 394.771 175.73 394.771 185.927C394.771 196.123 403.034 204.389 413.227 204.389Z" fill="#FFD77C" stroke="#FFAB50" stroke-miterlimit="10"/>
<path d="M413.227 199.994C420.993 199.994 427.289 193.696 427.289 185.926C427.289 178.157 420.993 171.859 413.227 171.859C405.461 171.859 399.165 178.157 399.165 185.926C399.165 193.696 405.461 199.994 413.227 199.994Z" fill="#FFD77C" stroke="#FFAB50" stroke-miterlimit="10"/>
<path d="M413.227 193.834C417.593 193.834 421.132 190.294 421.132 185.927C421.132 181.559 417.593 178.019 413.227 178.019C408.862 178.019 405.323 181.559 405.323 185.927C405.323 190.294 408.862 193.834 413.227 193.834Z" fill="#FFD77C" stroke="#FFAB50" stroke-miterlimit="10"/>
<path d="M351.129 179.141H448.152V183.699C448.152 188.199 447.266 192.656 445.544 196.814C443.823 200.971 441.299 204.749 438.118 207.931C434.937 211.114 431.161 213.638 427.005 215.36C422.849 217.082 418.394 217.969 413.895 217.969H385.385C380.887 217.969 376.432 217.082 372.276 215.36C368.12 213.638 364.343 211.114 361.162 207.931C357.981 204.749 355.458 200.971 353.737 196.814C352.015 192.656 351.129 188.199 351.129 183.699V179.141Z" fill="#FF7518"/>
<path opacity="0.1" d="M439.399 179.133C439.147 189.256 434.95 198.881 427.703 205.952C420.457 213.024 410.735 216.982 400.612 216.984H381.352C384.161 217.625 387.034 217.953 389.916 217.96H409.322C414.42 217.962 419.469 216.96 424.18 215.01C428.891 213.059 433.172 210.2 436.778 206.594C440.384 202.988 443.244 198.707 445.196 193.995C447.147 189.283 448.152 184.233 448.152 179.133H439.399Z" fill="black"/>
<path d="M529.656 366.459V354.816H277.391V366.459H529.656Z" fill="#40414D"/>
<path d="M182.81 314.155H172.627V406.838H182.81V314.155Z" fill="#40414D"/>
<path d="M263.235 314.155H253.052V406.838H263.235V314.155Z" fill="#40414D"/>
<path d="M271.388 298.879C271.388 305.065 250.423 310.086 224.56 310.086C198.696 310.086 178.75 305.074 178.75 298.879C178.75 292.685 198.696 287.673 224.56 287.673C250.423 287.673 271.388 292.72 271.388 298.879Z" fill="#F6C6CD"/>
<path d="M164.482 298.871H271.379V308.209C271.379 310.595 270.432 312.883 268.746 314.57C267.059 316.257 264.772 317.205 262.387 317.205H179.897C175.809 317.205 171.888 315.58 168.997 312.688C166.106 309.796 164.482 305.874 164.482 301.784V298.871Z" fill="#40414D"/>
<path d="M146.329 191.71L148.534 191.212C150.085 190.862 151.712 191.142 153.056 191.992C154.4 192.841 155.352 194.19 155.702 195.742L182.4 314.062L179.058 314.817C176.253 315.45 173.312 314.943 170.881 313.407C168.45 311.87 166.728 309.431 166.095 306.625L141.784 198.884C141.611 198.115 141.591 197.318 141.725 196.541C141.86 195.763 142.146 195.02 142.568 194.354C142.99 193.687 143.54 193.111 144.185 192.657C144.831 192.203 145.559 191.882 146.329 191.71Z" fill="#40414D"/>
<path d="M618.183 408.483H628.366V315.8H618.183V408.483Z" fill="#40414D"/>
<path d="M537.757 408.483H547.94V315.8H537.757V408.483Z" fill="#40414D"/>
<path d="M529.622 300.524C529.622 306.71 550.587 311.731 576.45 311.731C602.314 311.731 622.26 306.719 622.26 300.524C622.26 294.33 602.305 289.293 576.45 289.293C550.595 289.293 529.622 294.339 529.622 300.524Z" fill="#F6C6CD"/>
<path d="M621.095 318.859H538.605C536.22 318.859 533.933 317.911 532.247 316.224C530.56 314.537 529.613 312.249 529.613 309.863V300.524H636.51V303.437C636.51 307.527 634.886 311.45 631.995 314.342C629.104 317.234 625.183 318.859 621.095 318.859Z" fill="#40414D"/>
<path d="M621.949 316.461L618.608 315.707L645.309 197.369C645.659 195.818 646.611 194.469 647.955 193.619C649.3 192.77 650.926 192.489 652.477 192.84L654.682 193.338C656.233 193.688 657.582 194.64 658.431 195.985C659.28 197.329 659.56 198.957 659.21 200.508L634.896 308.265C634.263 311.068 632.545 313.506 630.117 315.043C627.69 316.579 624.752 317.089 621.949 316.461V316.461Z" fill="#40414D"/>
<path d="M625.574 264.448L628.58 263.497C628.58 263.497 623.442 229.159 623.493 198.385C623.493 197.528 623.493 196.611 623.493 195.729C623.553 193.809 623.622 191.908 623.716 190.048C623.836 187.667 623.862 185.396 623.844 183.194C624.127 153.56 612.454 141.043 612.454 141.043C612.454 141.043 598.751 121.492 590.538 117.688C589.828 115.46 589.014 112.599 588.295 109.275C588.56 109.095 588.817 108.915 589.065 108.726C592.457 106.209 595.703 103.5 598.786 100.613C602.999 96.6634 607.042 91.8485 606.819 86.4168C606.842 85.8879 606.825 85.3581 606.768 84.8318C605.988 78.2777 599.18 73.3429 596.431 67.1315C594.118 61.9139 594.812 56.1052 592.791 50.8105C590.77 45.5159 583.713 40.5896 578.386 43.374C576.425 44.4021 575.243 46.2184 573.607 47.5978C569.548 51.0247 563.005 51.3417 557.455 49.7824C551.906 48.2232 550.261 41.8661 542.502 41.849C543.191 42.0801 543.85 42.3937 544.463 42.7828C543.815 42.6736 543.16 42.6163 542.502 42.6115C544.081 43.1111 545.48 44.0575 546.532 45.3362C547.584 46.615 548.243 48.1712 548.429 49.8167C548.417 50.0234 548.394 50.2293 548.36 50.4336C545.26 52.1042 541.183 51.1532 537.467 51.0933C533.75 51.0333 529.519 52.9096 529.887 55.951C529.825 56.2966 529.825 56.6506 529.887 56.9962C530.375 59.3008 533.459 61.0401 533.835 63.1733C533.835 63.2333 533.835 63.2847 533.835 63.3447C526.957 66.7831 519.516 68.9539 511.868 69.7531C511.62 69.7531 511.731 70.053 512.091 70.4899H511.868C510.472 70.6356 520.236 78.3548 521.349 78.8603C525.425 80.7109 530.298 82.0731 534.615 83.4953L534.992 83.6152C533.537 86.995 532.788 90.6363 532.791 94.3159C532.791 107.51 542.271 118.596 555.109 121.732C557.507 124.533 560.024 127.609 562.32 130.668H562.157C562.157 130.668 547.401 150.304 547.872 179.63C547.83 183.306 548.025 186.98 548.454 190.631C538.965 190.091 518.574 187.59 503.064 176.229C482.142 160.919 458.805 165.511 463.669 174.696C468.534 183.88 493.447 191.531 497.464 192.302C497.84 192.37 498.714 192.576 499.964 192.884C495.014 193.818 491.623 195.454 491.828 197.656C492.231 201.863 513.556 215.262 526.427 216.025C534.932 216.53 545.166 219.152 553.242 221.457C554.021 239.063 549.765 244.34 549.765 244.34C549.765 244.34 551.032 245.12 553.13 246.225L552.231 248.795C547.007 251.811 540.567 254.955 534.709 256.223C527.244 257.758 519.988 260.173 513.093 263.42L484.121 277.428C481.533 278.628 479.295 280.469 477.616 282.777C475.938 285.084 474.875 287.781 474.529 290.613C473.895 296.55 475.685 303.969 485.38 309.855C485.979 314.679 488.925 320.308 496.659 325.465C511.646 335.438 551.032 365.312 556.393 369.39C556.496 376.681 555.537 391.306 546.545 393.585C535.274 396.446 544.344 407.293 553.456 406.864C555.618 407.683 557.971 407.855 560.23 407.361C569.89 405.065 605.294 392.797 607.71 374.445C607.81 373.65 607.856 372.848 607.847 372.046C607.987 368.918 607.207 365.817 605.603 363.128C605.981 363.957 606.287 364.817 606.519 365.698C603.59 359.015 596.456 354.817 590.907 352.453C590.907 352.393 590.907 352.324 590.907 352.264C590.05 351.93 589.194 351.656 588.492 351.407C588.506 350.911 588.469 350.414 588.38 349.925L532.859 311.654C532.859 311.654 557.001 291.752 581.949 294.819C606.896 297.887 610.87 293.354 610.87 293.354C610.87 293.354 623.665 281.18 624.949 267.164L625.754 266.95C625.754 266.95 625.694 266.067 625.574 264.448Z" fill="url(#paint0_linear)"/>
<path d="M557.772 364.129C557.772 364.129 560.041 389.12 548.685 392.153C537.329 395.186 547.932 407.3 557.01 405.004C566.087 402.708 599.411 390.611 601.68 372.448C603.95 354.285 578.968 348.211 578.968 348.211L557.772 364.129Z" fill="#B8616E"/>
<path opacity="0.05" d="M557.772 364.129C557.772 364.129 560.041 389.12 548.685 392.153C537.329 395.186 547.932 407.3 557.01 405.004C566.087 402.708 599.411 390.611 601.68 372.448C603.95 354.285 578.968 348.211 578.968 348.211L557.772 364.129Z" fill="black"/>
<path d="M562.336 364.883C562.336 364.883 564.606 389.874 553.25 392.907C541.894 395.94 552.496 408.054 561.574 405.758C570.652 403.462 603.975 391.365 606.245 373.202C608.514 355.039 583.533 348.965 583.533 348.965L562.336 364.883Z" fill="#B8616E"/>
<path opacity="0.1" d="M585.802 349.736L564.623 365.645C564.623 365.645 564.717 366.725 564.777 368.447C572.776 366.254 590.204 360.428 590.47 351.312C588.947 350.694 587.388 350.167 585.802 349.736V349.736Z" fill="black"/>
<path d="M572.554 131.977H563.467V138.797H572.554V131.977Z" fill="#F8BDC5"/>
<path d="M563.853 242.172C563.853 242.172 549.422 253.515 537.569 256.205C530.522 257.731 523.69 260.122 517.229 263.325L489.97 277.187C487.494 278.433 485.371 280.28 483.794 282.56C482.217 284.839 481.237 287.478 480.943 290.235C480.164 297.946 483.264 308.089 501.763 314.121L560.059 362.595L578.232 347.448L516.15 299.745L563.853 270.204V242.172Z" fill="#758AC8"/>
<path opacity="0.1" d="M563.853 242.172C563.853 242.172 549.422 253.515 537.569 256.205C530.522 257.731 523.69 260.122 517.229 263.325L489.97 277.187C487.494 278.433 485.371 280.28 483.794 282.56C482.217 284.839 481.237 287.478 480.943 290.235C480.164 297.946 483.264 308.089 501.763 314.121L560.059 362.595L578.232 347.448L516.15 299.745L563.853 270.204V242.172Z" fill="black"/>
<path d="M555.52 191.435C555.52 191.435 527.507 192.189 507.818 177.042C488.129 161.895 466.179 166.436 470.718 175.526C475.257 184.616 498.731 192.189 502.516 192.943C506.302 193.697 560.812 208.853 560.812 208.853L555.52 191.435Z" fill="#F8BDC5"/>
<path opacity="0.05" d="M555.52 191.435C555.52 191.435 527.507 192.189 507.818 177.042C488.129 161.895 466.179 166.436 470.718 175.526C475.257 184.616 498.731 192.189 502.516 192.943C506.302 193.697 560.812 208.853 560.812 208.853L555.52 191.435Z" fill="black"/>
<path d="M558.551 235.369L549.465 262.639C549.465 262.639 498.363 294.073 494.192 298.237C490.955 301.475 486.621 314.147 501.762 324.745C516.904 335.342 558.543 368.678 558.543 368.678C558.543 368.678 590.341 361.824 588.072 348.973L535.831 311.105C535.831 311.105 558.543 291.4 582.017 294.442C605.491 297.483 609.276 292.925 609.276 292.925C609.276 292.925 627.45 274.728 621.386 257.336C615.323 239.944 558.551 235.369 558.551 235.369Z" fill="#758AC8"/>
<path d="M547.195 111.947C547.195 111.947 572.939 139.971 571.423 148.299C569.907 156.626 591.865 124.062 591.865 124.062C591.865 124.062 585.014 107.398 586.564 89.2178L547.195 111.947Z" fill="#F8BDC5"/>
<path opacity="0.1" d="M569.659 137.649C571.415 135.794 573.264 134.03 575.2 132.363C579.074 129.185 582.628 125.635 585.811 121.765C591.112 114.911 610.792 144.486 610.792 144.486C610.792 144.486 622.902 158.117 621.395 190.69C619.887 223.263 623.287 266.811 623.287 266.811L618.706 268.088C614.846 269.376 610.74 269.749 606.712 269.177C602.684 268.604 598.845 267.102 595.497 264.79C589.45 260.609 581.794 256.222 575.97 255.828C564.614 255.074 554.389 248.631 554.389 248.631C554.389 248.631 559.313 236.894 551.743 199.017C544.172 161.141 563.467 134.222 563.467 134.222C563.467 134.222 564.991 142.464 569.659 137.649Z" fill="black"/>
<path d="M625.934 263.393L621.395 264.91L618.697 265.809C614.838 267.098 610.732 267.471 606.704 266.899C602.675 266.326 598.836 264.824 595.488 262.511C589.45 258.338 581.786 253.943 575.962 253.549C564.623 252.787 551.777 244.459 551.777 244.459C551.777 244.459 559.348 234.615 551.777 196.739C544.206 158.862 563.51 131.977 563.51 131.977C563.51 131.977 565.034 140.176 569.702 135.353C571.454 133.5 573.301 131.738 575.234 130.075C579.108 126.897 582.662 123.348 585.845 119.477C591.146 112.624 610.827 142.198 610.827 142.198C610.827 142.198 622.936 155.829 621.429 188.402C621.266 191.829 621.198 195.359 621.189 198.932C621.078 229.415 625.934 263.393 625.934 263.393Z" fill="#5E52AD"/>
<path opacity="0.1" d="M582.779 189.165L583.533 205.829C583.533 205.829 543.401 208.099 535.077 199.772C526.752 191.444 557.772 224.266 564.623 226.279C571.055 228.173 587.661 229.843 596.37 230.015C598.858 230.095 601.316 229.45 603.445 228.159C605.573 226.867 607.281 224.985 608.36 222.741C609.375 220.533 609.703 218.07 609.302 215.673C607.786 205.829 609.302 184.616 609.302 184.616L582.779 189.165Z" fill="black"/>
<path d="M582.779 187.649L583.533 204.312C583.533 204.312 543.401 206.583 535.077 198.255C526.753 189.928 496.632 191.77 497.223 198.255C497.6 202.419 517.666 215.673 529.767 216.435C541.868 217.198 557.772 222.749 564.623 224.763C571.055 226.656 587.661 228.327 596.37 228.498C598.858 228.578 601.316 227.934 603.445 226.642C605.573 225.351 607.281 223.469 608.36 221.224C609.375 219.016 609.703 216.554 609.302 214.156C607.786 204.312 609.302 183.099 609.302 183.099L582.779 187.649Z" fill="#F8BDC5"/>
<path opacity="0.1" d="M591.865 139.174C591.865 139.174 574.455 141.444 576.724 167.198C578.994 192.952 582.025 195.222 582.025 195.222C582.025 195.222 607.769 192.952 610.792 192.189C613.815 191.427 612.308 163.411 612.308 163.411C612.308 163.411 611.546 138.42 591.865 139.174Z" fill="black"/>
<path d="M591.865 138.42C591.865 138.42 574.455 140.69 576.724 166.444C578.994 192.198 582.025 194.468 582.025 194.468C582.025 194.468 607.769 192.198 610.792 191.435C613.815 190.673 612.308 162.657 612.308 162.657C612.308 162.657 611.546 137.649 591.865 138.42Z" fill="#5E52AD"/>
<path opacity="0.1" d="M585.425 105.47C584.235 99.473 586.676 97.6225 587.318 89.946L547.923 112.667C547.923 112.667 552.436 117.585 557.566 123.899C559.859 124.479 562.216 124.767 564.58 124.755C574.9 124.798 580.544 113.712 585.425 105.47Z" fill="black"/>
<path d="M563.844 124.028C579.315 124.028 591.857 111.481 591.857 96.0036C591.857 80.5263 579.315 67.9795 563.844 67.9795C548.373 67.9795 535.831 80.5263 535.831 96.0036C535.831 111.481 548.373 124.028 563.844 124.028Z" fill="#F8BDC5"/>
<path opacity="0.1" d="M570.909 87.4962C566.627 90.2207 566.567 96.3806 569.325 100.647C572.082 104.914 576.835 107.732 581.409 110.388C582.736 111.159 584.201 111.956 585.691 111.785C586.836 111.562 587.898 111.025 588.757 110.234C591.957 107.736 595.011 105.056 597.903 102.206C602.065 98.1113 606.065 93.0651 605.414 87.3506C604.677 80.865 598.271 75.9816 595.685 69.8387C593.51 64.6983 594.161 58.9324 592.259 53.6806C590.358 48.4287 583.695 43.571 578.711 46.3211C576.87 47.3321 575.756 49.1398 574.215 50.5021C570.395 53.8776 564.238 54.2117 559.013 52.6696C553.789 51.1275 552.239 44.8304 544.951 44.8133C548.574 46.0898 551.023 49.8681 550.466 53.3122C547.546 54.9657 543.709 54.0233 540.19 53.9633C536.67 53.9033 532.482 55.8738 533.09 59.0438C533.621 61.614 537.329 63.5246 536.781 66.0948C530.348 69.4852 523.335 71.6358 516.107 72.4347C514.797 72.5803 523.978 80.2139 525.022 80.7194C528.851 82.5528 533.45 83.8979 537.5 85.3029C548.505 89.0983 559.776 90.452 570.909 87.4962Z" fill="black"/>
<path d="M570.909 86.7338C566.627 89.4582 566.567 95.6182 569.325 99.8848C572.082 104.151 576.835 106.97 581.409 109.626C582.736 110.397 584.201 111.194 585.691 111.022C586.836 110.799 587.898 110.262 588.757 109.472C591.957 106.974 595.011 104.293 597.903 101.444C602.065 97.3488 606.065 92.3026 605.414 86.5881C604.677 80.1026 598.271 75.2191 595.685 69.0763C593.51 63.9358 594.161 58.17 592.259 52.9181C590.358 47.6663 583.695 42.8086 578.711 45.5587C576.87 46.5697 575.756 48.3774 574.215 49.7396C570.395 53.1152 564.238 53.4493 559.013 51.9072C553.789 50.365 552.239 44.068 544.951 44.0508C548.574 45.3274 551.023 49.1056 550.466 52.5497C547.546 54.2033 543.709 53.2608 540.19 53.2008C536.67 53.1409 532.482 55.1114 533.09 58.2813C533.621 60.8516 537.329 62.7621 536.781 65.3323C530.348 68.7227 523.335 70.8733 516.107 71.6722C514.797 71.8179 523.978 79.4515 525.022 79.9569C528.851 81.7904 533.45 83.1355 537.5 84.5405C548.505 88.3445 559.776 89.6724 570.909 86.7338Z" fill="#916168"/>
<path opacity="0.1" d="M604.266 362.021C605.482 364.826 605.906 367.911 605.491 370.94C603.222 389.12 569.907 401.234 560.821 403.496C556.033 404.696 550.818 401.894 548.634 398.527C550.038 402.485 556.085 406.384 561.583 405.013C570.669 402.742 603.984 390.619 606.253 372.457C606.749 368.854 606.051 365.189 604.266 362.021Z" fill="white"/>
<path d="M363.658 382.678C362.981 381.153 359.47 378.181 342.539 377.538C330.943 377.101 326.995 370.975 325.924 364.995C329.735 364.498 332.716 363.813 333.692 362.862C333.692 362.862 333.641 362.588 333.555 362.099L333.692 361.997C332.952 357.683 332.565 353.316 332.536 348.94C332.514 345.195 332.91 341.459 333.718 337.802C334.189 335.385 334.388 332.922 334.309 330.46C334.403 315.895 329.29 290.296 329.29 290.296L328.588 269.023C328.517 266.369 327.733 263.782 326.318 261.536C324.903 259.29 322.909 257.466 320.546 256.257C318.864 255.387 317.002 254.923 315.108 254.904C315.108 254.904 288.268 250.671 264.109 248.367C262.396 246.987 256.358 243.269 242.518 245.403L234.554 222.082C234.489 221.8 234.444 221.513 234.417 221.225C234.699 218.261 236.678 213.797 245.901 213.515L247.828 215.228C247.828 215.228 248.171 214.551 248.745 213.515C260.186 213.386 322.516 212.752 325.727 213.515C329.264 214.371 360.249 207.466 361.14 206.609C373.181 194.863 325.727 200.561 325.727 200.561C321.06 201.323 305.979 200.415 290.529 199.156C298.177 187.684 305.371 148.745 305.371 148.745C305.371 148.745 332.776 134.926 324.845 127.155C316.915 119.384 292.978 144.427 292.978 144.427C292.978 144.427 283.241 172.931 278.813 181.567C277.1 184.994 274.882 185.696 272.904 185.302C273.803 184.582 274.386 184.154 274.386 184.154C274.386 184.154 254.911 168.604 253.138 162.564C252.808 161.574 252.371 160.624 251.836 159.728C250.903 154.254 249.267 148.865 245.276 145.275C244.606 144.555 243.866 143.904 243.067 143.33C241.987 142.559 240.763 141.891 239.744 141.051C240.317 138.412 240.985 135.671 241.679 133.015C256.135 131.301 267.372 119.307 267.372 104.742C267.369 102.546 267.108 100.358 266.592 98.2227C268.753 98.365 270.913 97.9459 272.864 97.0061C274.815 96.0664 276.49 94.6379 277.726 92.8594C280.646 88.5072 280.552 82.5785 278.102 77.9864C277.09 76.1219 275.763 74.4466 274.18 73.0344C271.656 70.4917 268.579 68.568 265.188 67.4142C262.25 66.3946 259.004 65.7864 256.675 63.7902C255.634 62.4283 254.687 60.997 253.84 59.5064C252.863 58.0429 251.712 56.7024 250.415 55.514C246.132 51.1018 240.086 48.3859 233.929 47.1865C226.426 45.7214 218.676 46.2441 211.045 46.7667C208.193 46.9637 204.845 47.4692 203.56 49.9538C202.592 51.8215 203.226 54.0575 203.098 56.1394C202.695 62.762 195.125 66.4204 188.539 68.0225C181.953 69.6246 174.1 71.0125 170.922 76.8212C168.036 82.0645 170.066 88.4215 170.991 94.3073C172.531 104.642 170.237 115.183 164.542 123.942C161.647 128.371 157.913 132.312 155.627 137.067C153.094 142.368 152.505 148.391 153.965 154.082C154.394 155.744 155.01 157.441 154.702 159.137C154.351 160.536 153.663 161.827 152.698 162.898C148.76 167.763 143.859 171.761 138.303 174.64C132.746 177.519 126.655 179.218 120.411 179.63C120.936 181.37 121.96 182.916 123.357 184.077C125.132 185.833 127.202 187.262 129.472 188.301C135.452 191.301 141.741 193.642 148.227 195.283C152.595 196.388 157.16 197.176 161.605 196.423C166.049 195.669 170.383 193.124 172.207 189.097C173.269 186.767 173.423 184.128 174.365 181.755C176.241 177.009 180.891 173.933 184.034 169.863C182.976 180.35 182.475 190.886 182.535 201.426C182.535 204.724 182.535 207.697 182.535 210.456C182.535 222.356 181.679 230.564 174.305 245.428C173.426 246.991 173.041 248.783 173.2 250.569C173.04 251.533 173.133 252.523 173.471 253.441C173.809 254.359 174.38 255.173 175.127 255.803C174.613 258.768 174.364 261.773 174.382 264.782C174.279 275.611 177.936 290.15 197.326 293.834L231.848 292.121C231.848 292.121 280.535 282.619 293.809 289.55C294.904 289.784 295.887 290.385 296.593 291.255C297.299 292.125 297.686 293.211 297.689 294.331C297.647 295.051 297.536 295.766 297.355 296.464C296.985 298.709 296.844 300.985 296.935 303.258C296.875 317.823 300.009 350.876 300.009 350.876V364.892C297.8 368.217 295.076 373.134 295.428 376.758C295.428 376.835 295.428 376.921 295.428 376.998C295.428 377.075 295.428 377.212 295.479 377.315C295.53 377.418 295.479 377.504 295.539 377.598C295.599 377.692 295.59 377.778 295.616 377.872C295.642 377.966 295.685 378.078 295.727 378.172C295.77 378.266 295.787 378.326 295.822 378.403C295.856 378.48 295.933 378.626 295.993 378.729L296.096 378.909C296.199 379.074 296.313 379.231 296.438 379.38C300.866 384.52 322.987 394.467 330.078 394.064C337.606 393.636 362.827 394.921 363.718 383.698C363.831 383.363 363.809 382.998 363.658 382.678V382.678Z" fill="url(#paint1_linear)"/>
<path d="M300.729 360.985C300.729 360.985 290.452 373.836 294.734 378.976C299.016 384.117 320.426 393.944 327.278 393.541C334.557 393.113 358.965 394.398 359.821 383.26C359.821 383.26 361.534 378.12 339.267 377.263C317.001 376.406 323.852 353.274 323.852 353.274L300.729 360.985Z" fill="#594C76"/>
<path opacity="0.1" d="M178.262 253.035C178.262 253.035 167.985 288.162 198.816 294.159L232.216 292.445C232.216 292.445 279.319 283.021 292.165 289.875C292.165 289.875 297.303 290.732 295.591 297.586C293.878 304.44 298.16 350.704 298.16 350.704V366.125C298.16 366.125 327.278 366.125 330.703 362.698C330.703 362.698 328.134 348.991 330.703 337.853C333.273 326.715 326.421 291.589 326.421 291.589L325.745 270.444C325.695 267.832 324.949 265.28 323.586 263.051C322.222 260.822 320.289 258.998 317.986 257.765C316.365 256.905 314.562 256.447 312.727 256.428C312.727 256.428 254.491 247.004 233.937 248.717C213.383 250.431 178.262 253.035 178.262 253.035Z" fill="black"/>
<path d="M178.262 252.179C178.262 252.179 167.985 287.305 198.816 293.302L232.216 291.589C232.216 291.589 279.319 282.165 292.165 289.018C292.165 289.018 297.303 289.875 295.591 296.729C293.878 303.583 298.16 349.847 298.16 349.847V365.269C298.16 365.269 327.278 365.269 330.703 361.842C330.703 361.842 328.134 348.134 330.703 336.996C333.273 325.858 326.421 290.732 326.421 290.732L325.745 269.588C325.695 266.975 324.949 264.423 323.586 262.194C322.222 259.966 320.289 258.141 317.986 256.908C316.365 256.048 314.562 255.59 312.727 255.571C312.727 255.571 254.491 246.147 233.937 247.861C213.383 249.574 178.262 252.179 178.262 252.179Z" fill="#8B9CD1"/>
<path d="M266.472 182.782C266.472 182.782 273.324 191.35 277.606 182.782C281.888 174.215 291.308 145.942 291.308 145.942C291.308 145.942 314.431 121.097 322.139 128.807C329.847 136.518 303.298 150.226 303.298 150.226C303.298 150.226 293.878 202.487 285.313 203.344C276.749 204.201 263.903 203.344 263.903 203.344L259.621 193.92L266.472 182.782Z" fill="#F8BDC5"/>
<path opacity="0.05" d="M266.472 182.782C266.472 182.782 273.324 191.35 277.606 182.782C281.888 174.215 291.308 145.942 291.308 145.942C291.308 145.942 314.431 121.097 322.139 128.807C329.847 136.518 303.298 150.226 303.298 150.226C303.298 150.226 293.878 202.487 285.313 203.344C276.749 204.201 263.903 203.344 263.903 203.344L259.621 193.92L266.472 182.782Z" fill="black"/>
<path d="M235.642 139.945C235.642 139.945 251.057 157.937 252.77 163.934C254.483 169.931 273.324 185.352 273.324 185.352C273.324 185.352 259.621 195.633 262.19 200.774C264.76 205.914 244.206 183.639 244.206 183.639L220.226 148.512L235.642 139.945Z" fill="#EB6475"/>
<path opacity="0.1" d="M235.642 139.945C235.642 139.945 251.057 157.937 252.77 163.934C254.483 169.931 273.324 185.352 273.324 185.352C273.324 185.352 259.621 195.633 262.19 200.774C264.76 205.914 244.206 183.639 244.206 183.639L220.226 148.512L235.642 139.945Z" fill="black"/>
<path d="M245.918 119.383C245.918 119.383 238.211 144.229 238.211 153.653C238.211 163.077 205.667 151.083 206.523 145.942C207.38 140.802 225.365 121.954 226.221 114.243C227.077 106.532 245.918 119.383 245.918 119.383Z" fill="#F8BDC5"/>
<path opacity="0.1" d="M220.226 136.518C220.226 136.518 190.252 128.807 185.97 172.501C181.688 216.195 189.395 221.336 176.549 247.895C163.703 274.454 263.903 251.322 263.903 251.322C263.903 251.322 258.765 245.324 242.493 247.895L234.785 224.763C234.785 224.763 232.216 214.482 246.775 214.482C261.334 214.482 254.483 184.496 254.483 184.496C254.483 184.496 246.775 158.793 242.493 156.223C238.211 153.653 230.503 138.232 220.226 136.518Z" fill="black"/>
<path d="M220.226 134.805C220.226 134.805 190.252 127.094 185.97 170.788C181.688 214.482 189.395 219.622 176.549 246.181C163.703 272.74 263.903 249.608 263.903 249.608C263.903 249.608 258.765 243.611 242.493 246.181L234.785 223.049C234.785 223.049 232.216 212.768 246.775 212.768C261.334 212.768 254.483 182.782 254.483 182.782C254.483 182.782 246.775 157.08 242.493 154.51C238.211 151.939 230.503 136.518 220.226 134.805Z" fill="#EB6475"/>
<path d="M250.201 196.49C250.201 196.49 312.719 203.344 322.996 201.631C322.996 201.631 368.899 195.976 357.252 207.628C356.396 208.485 326.421 215.339 322.996 214.482C319.57 213.625 246.775 214.482 246.775 214.482L245.918 205.914L250.201 196.49Z" fill="#F8BDC5"/>
<path opacity="0.1" d="M202.241 175.071L247.631 216.195C247.631 216.195 256.195 199.06 258.765 199.06C261.334 199.06 227.934 148.512 227.934 148.512C227.934 148.512 219.37 138.232 214.231 143.372C209.093 148.512 193.677 145.085 202.241 175.071Z" fill="black"/>
<path d="M201.385 173.358L246.775 214.482C246.775 214.482 255.339 197.347 257.908 197.347C260.477 197.347 227.077 146.799 227.077 146.799C227.077 146.799 218.513 136.518 213.375 141.659C208.236 146.799 192.821 143.372 201.385 173.358Z" fill="#EB6475"/>
<path d="M238.211 134.805C253.819 134.805 266.472 122.147 266.472 106.533C266.472 90.9183 253.819 78.2603 238.211 78.2603C222.602 78.2603 209.949 90.9183 209.949 106.533C209.949 122.147 222.602 134.805 238.211 134.805Z" fill="#F8BDC5"/>
<path opacity="0.1" d="M262.961 99.4307C267.757 101.324 273.632 99.0537 276.458 94.7443C279.284 90.4349 279.198 84.5662 276.818 79.9912C274.437 75.4162 270.035 72.092 265.179 70.3614C262.233 69.3161 258.953 68.7164 256.692 66.5574C255.262 65.1952 254.414 63.3532 253.343 61.6911C249.344 55.454 242.21 51.7701 234.956 50.3222C227.702 48.8743 220.2 49.3883 212.818 49.9023C210.06 50.0994 206.823 50.5963 205.573 53.0637C204.639 54.9143 205.247 57.1332 205.127 59.198C204.742 65.7692 197.42 69.4104 191.022 70.9868C184.625 72.5632 177.208 74.0453 174.091 79.8369C171.299 85.0374 173.295 91.343 174.16 97.186C175.639 107.392 173.428 117.792 167.925 126.512C165.124 130.907 161.519 134.814 159.301 139.535C156.847 144.81 156.279 150.768 157.691 156.413C158.11 158.066 158.701 159.745 158.41 161.425C158.074 162.805 157.41 164.083 156.475 165.151C152.721 169.956 148.002 173.919 142.622 176.785C137.242 179.651 131.321 181.356 125.241 181.789C126.218 185.465 129.772 187.786 133.154 189.5C138.927 192.47 145.01 194.792 151.293 196.422C155.515 197.519 159.934 198.299 164.234 197.553C168.533 196.808 172.721 194.281 174.511 190.288C175.538 187.975 175.692 185.362 176.6 182.997C178.647 177.694 184.102 174.49 187.031 169.615C189.832 164.954 190.919 164.406 191.63 159.026C192.341 153.645 193.908 147.837 198.327 144.675C202.952 141.36 209.461 141.994 214.599 144.538C219.738 147.083 222.915 146.089 227.206 149.824C234.733 156.365 243.157 161.795 252.222 165.948C251.365 158.477 249.986 150.141 243.923 145.695C242.21 144.418 240.043 143.442 239.136 141.488C237.688 138.378 240.163 134.583 239.041 131.336C237.919 128.089 233.654 126.889 231.762 123.942C230.152 121.44 230.589 118.039 232.096 115.469C233.603 112.899 235.984 110.997 238.356 109.198C240.463 107.604 242.598 106.048 244.762 104.528C246.717 103.287 248.473 101.756 249.969 99.9875C250.826 98.8138 251.391 96.2436 252.581 95.4125C255.579 93.3392 260.186 98.3426 262.961 99.4307Z" fill="black"/>
<path d="M262.104 98.5739C266.9 100.467 272.775 98.197 275.602 93.8875C278.428 89.5781 278.342 83.7094 275.961 79.1344C273.58 74.5594 269.178 71.2352 264.323 69.5046C261.377 68.4594 258.096 67.8597 255.836 65.7007C254.405 64.3385 253.557 62.4965 252.487 60.8344C248.488 54.5973 241.354 50.9133 234.1 49.4654C226.846 48.0175 219.344 48.5315 211.962 49.0456C209.204 49.2426 205.967 49.7395 204.716 52.207C203.783 54.0575 204.391 56.2765 204.271 58.3413C203.886 64.9125 196.563 68.5536 190.166 70.13C183.768 71.7065 176.352 73.1886 173.235 78.9802C170.443 84.1806 172.438 90.4862 173.303 96.3292C174.782 106.536 172.571 116.935 167.068 125.656C164.268 130.051 160.662 133.957 158.444 138.678C155.991 143.953 155.422 149.912 156.834 155.556C157.254 157.209 157.845 158.889 157.554 160.568C157.218 161.948 156.554 163.227 155.618 164.295C151.865 169.099 147.146 173.062 141.766 175.928C136.386 178.794 130.465 180.499 124.385 180.933C125.361 184.608 128.915 186.93 132.298 188.643C138.07 191.613 144.154 193.935 150.437 195.566C154.659 196.662 159.078 197.442 163.377 196.697C167.676 195.951 171.864 193.424 173.654 189.432C174.682 187.118 174.836 184.505 175.744 182.141C177.791 176.837 183.246 173.633 186.175 168.758C188.975 164.098 190.063 163.549 190.774 158.169C191.485 152.789 193.052 146.98 197.471 143.819C202.096 140.503 208.604 141.137 213.743 143.681C218.881 146.226 222.059 145.232 226.349 148.968C233.876 155.509 242.3 160.938 251.365 165.091C250.509 157.621 249.13 149.285 243.066 144.838C241.354 143.561 239.187 142.585 238.279 140.631C236.832 137.521 239.307 133.726 238.185 130.479C237.063 127.232 232.798 126.033 230.905 123.085C229.295 120.584 229.732 117.182 231.239 114.612C232.747 112.042 235.127 110.14 237.5 108.341C239.607 106.747 241.742 105.191 243.906 103.672C245.861 102.43 247.617 100.899 249.113 99.1308C249.969 97.9571 250.534 95.3868 251.725 94.5558C254.722 92.4825 259.33 97.4859 262.104 98.5739Z" fill="#916168"/>
<g opacity="0.1">
<path opacity="0.1" d="M322.876 360.025C322.94 357.745 323.268 355.479 323.852 353.274L323.424 353.42C322.997 355.594 322.813 357.81 322.876 360.025V360.025Z" fill="white"/>
<path opacity="0.1" d="M327.278 391.828C320.426 392.23 299.016 382.403 294.734 377.263C294.172 376.567 293.826 375.721 293.741 374.83C293.615 375.552 293.638 376.293 293.809 377.006C293.98 377.719 294.295 378.389 294.734 378.976C299.016 384.117 320.426 393.944 327.278 393.541C334.557 393.113 358.965 394.398 359.821 383.26C359.885 382.953 359.843 382.632 359.702 382.352C357.74 392.616 334.377 391.408 327.278 391.828Z" fill="white"/>
</g>
<path d="M361.962 136.09H361.106V171.216H361.962V136.09Z" fill="#FFD77C" stroke="#FFAB50" stroke-width="0.25" stroke-miterlimit="10"/>
<path d="M362.819 136.09H361.962V171.216H362.819V136.09Z" fill="#FFD77C" stroke="#FFAB50" stroke-width="0.25" stroke-miterlimit="10"/>
<path d="M363.675 136.09H362.819V171.216H363.675V136.09Z" fill="#FFD77C" stroke="#FFAB50" stroke-width="0.25" stroke-miterlimit="10"/>
<path d="M364.532 136.09H363.675V171.216H364.532V136.09Z" fill="#FFD77C" stroke="#FFAB50" stroke-width="0.25" stroke-miterlimit="10"/>
<path d="M365.388 136.09H364.532V171.216H365.388V136.09Z" fill="#FFD77C" stroke="#FFAB50" stroke-width="0.25" stroke-miterlimit="10"/>
<path d="M366.245 136.09H365.388V171.216H366.245V136.09Z" fill="#FFD77C" stroke="#FFAB50" stroke-width="0.25" stroke-miterlimit="10"/>
<path d="M367.101 136.09H366.245V171.216H367.101V136.09Z" fill="#FFD77C" stroke="#FFAB50" stroke-width="0.25" stroke-miterlimit="10"/>
<defs>
<linearGradient id="paint0_linear" x1="545.782" y1="407.678" x2="545.782" y2="41.849" gradientUnits="userSpaceOnUse">
<stop stop-color="#808080" stop-opacity="0.25"/>
<stop offset="0.54" stop-color="#808080" stop-opacity="0.12"/>
<stop offset="1" stop-color="#808080" stop-opacity="0.1"/>
</linearGradient>
<linearGradient id="paint1_linear" x1="92949.8" y1="249862" x2="92949.8" y2="108637" gradientUnits="userSpaceOnUse">
<stop stop-color="#808080" stop-opacity="0.25"/>
<stop offset="0.54" stop-color="#808080" stop-opacity="0.12"/>
<stop offset="1" stop-color="#808080" stop-opacity="0.1"/>
</linearGradient>
</defs>
</svg>
