<svg width="746" height="746" viewBox="0 0 746 746" fill="none" xmlns="http://www.w3.org/2000/svg">
<path d="M373 746C579.002 746 746 579.002 746 373C746 166.998 579.002 0 373 0C166.998 0 0 166.998 0 373C0 579.002 166.998 746 373 746Z" fill="#E6E6E6"/>
<path d="M709 668.832H279.817V670.682H709V668.832Z" fill="#3F3D56"/>
<path d="M628.904 354.152C629.73 355.122 630.343 356.256 630.704 357.478C631.064 358.7 631.163 359.985 630.996 361.248C630.828 362.511 630.397 363.725 629.73 364.811C629.063 365.897 628.175 366.831 627.124 367.552L582.707 398.038L563.149 411.073C562.038 411.813 560.691 412.114 559.37 411.916C558.05 411.719 556.85 411.037 556.004 410.004V410.004C555.512 409.402 555.155 408.7 554.96 407.946C554.765 407.193 554.736 406.406 554.875 405.641C555.014 404.875 555.318 404.148 555.765 403.512C556.213 402.875 556.793 402.342 557.466 401.952L576.41 390.955L609.471 359.478L588.217 336.657L603.961 324.853L628.904 354.152Z" fill="#A0616A"/>
<path d="M524.456 641.201H513.591L507.138 551.49L534.689 550.703L524.456 641.201Z" fill="#A0616A"/>
<path d="M525.243 670.317C522.346 671.639 519.92 660.93 517.476 663.331C510.64 670.046 500.173 671.508 491.05 668.577L494.243 668.541C493.692 668.364 493.183 668.077 492.747 667.698C492.31 667.319 491.956 666.855 491.704 666.334C491.452 665.814 491.308 665.248 491.282 664.67C491.255 664.093 491.346 663.516 491.549 662.974V662.974C491.792 662.327 492.189 661.748 492.706 661.287C493.222 660.826 493.843 660.498 494.514 660.33L501.783 658.513L513.198 638.447L524.85 637.66C527.447 640.97 529.26 644.827 530.152 648.939C531.044 653.051 530.991 657.312 529.998 661.401C528.941 665.715 527.309 669.375 525.243 670.317Z" fill="#2F2E41"/>
<path d="M596.799 641.201H585.934L579.481 551.49L607.819 545.982L596.799 641.201Z" fill="#A0616A"/>
<path d="M597.586 670.317C594.689 671.639 592.262 660.93 589.818 663.331C582.983 670.046 572.516 671.508 563.392 668.577L566.585 668.541C566.035 668.364 565.526 668.077 565.089 667.698C564.653 667.319 564.298 666.855 564.046 666.334C563.795 665.814 563.651 665.248 563.625 664.67C563.598 664.093 563.689 663.516 563.892 662.974C564.135 662.327 564.532 661.748 565.048 661.287C565.565 660.826 566.185 660.498 566.857 660.33L574.126 658.514L585.54 638.447L597.979 636.873L598.294 637.386C600.698 641.261 602.249 645.604 602.842 650.125C603.434 654.646 603.056 659.241 601.731 663.605C600.696 666.918 599.288 669.541 597.586 670.317Z" fill="#2F2E41"/>
<path d="M609.118 326.882C599.126 328.272 592.209 333.742 589.392 344.654L571.026 310.755C569.937 308.601 569.661 306.126 570.249 303.785C570.836 301.444 572.248 299.393 574.226 298.007C576.324 296.537 578.906 295.925 581.442 296.296C583.977 296.667 586.275 297.993 587.864 300.003L609.118 326.882Z" fill="#FF7518"/>
<path d="M628.364 542.047C583.709 561.799 538.009 564.229 491.395 551.49C508.417 485.491 528.516 425.813 528.392 376.791L574.048 372.856L581.078 383.997C597.756 410.43 609.269 439.786 615.005 470.507L628.364 542.047Z" fill="#2F2E41"/>
<path d="M553.582 275.276C566.624 275.276 577.197 264.706 577.197 251.668C577.197 238.629 566.624 228.06 553.582 228.06C540.539 228.06 529.966 238.629 529.966 251.668C529.966 264.706 540.539 275.276 553.582 275.276Z" fill="#A0616A"/>
<path d="M579.558 293.375L550.433 294.949L545.71 268.98L569.325 265.046L579.558 293.375Z" fill="#A0616A"/>
<path d="M576.41 376.791L544.501 377.689L528.392 379.938C520.484 353.826 513.827 327.773 529.966 305.966L548.859 287.08L577.197 286.293L577.572 286.508C582.073 289.085 585.561 293.118 587.461 297.943C589.362 302.767 589.562 308.095 588.028 313.048C580.995 335.894 576.478 357.467 576.41 376.791Z" fill="#FF7518"/>
<path d="M527.605 449.976L525.625 477.018C525.519 478.466 524.894 479.827 523.863 480.851C522.832 481.875 521.467 482.492 520.017 482.588V482.588C519.182 482.644 518.344 482.525 517.557 482.239C516.771 481.953 516.052 481.506 515.448 480.927C514.843 480.348 514.366 479.65 514.047 478.876C513.727 478.103 513.573 477.271 513.593 476.435L514.223 449.976L533.902 375.217L534.689 329.574L556.73 328.788L555.156 381.512L527.605 449.976Z" fill="#A0616A"/>
<path d="M559.092 332.722C549.747 328.923 541.019 330.196 533.115 338.231L534.198 299.694C534.334 297.284 535.335 295.004 537.016 293.272C538.698 291.539 540.947 290.471 543.353 290.262V290.262C545.906 290.04 548.447 290.802 550.456 292.392C552.465 293.983 553.79 296.281 554.159 298.817L559.092 332.722Z" fill="#FF7518"/>
<path d="M603.567 356.724H531.147C548.041 312.001 553.489 270.396 531.147 234.749C531.531 224.042 545.267 214.76 555.935 215.786C568.534 216.997 585.464 226.252 587.824 238.683L603.567 356.724Z" fill="#2F2E41"/>
<path d="M372.767 213.82H369.464V123.357C369.464 116.482 368.109 109.673 365.477 103.321C362.845 96.9687 358.987 91.1969 354.124 86.3351C349.26 81.4732 343.487 77.6166 337.133 74.9854C330.778 72.3542 323.968 71 317.09 71H125.374C118.496 71 111.685 72.3542 105.331 74.9854C98.9769 77.6166 93.2033 81.4732 88.3399 86.3351C83.4766 91.1969 79.6188 96.9688 76.9867 103.321C74.3547 109.673 73 116.482 73 123.357V619.643C73 626.518 74.3547 633.327 76.9867 639.679C79.6188 646.031 83.4766 651.803 88.3399 656.665C93.2033 661.527 98.9769 665.383 105.331 668.015C111.685 670.646 118.496 672 125.374 672H317.09C323.968 672 330.778 670.646 337.133 668.015C343.487 665.383 349.26 661.527 354.124 656.665C358.987 651.803 362.845 646.031 365.477 639.679C368.109 633.327 369.464 626.518 369.464 619.643V278.213H372.767V213.82Z" fill="#3F3D56"/>
<path d="M319.203 84.6216H294.178C295.329 87.4423 295.768 90.5026 295.457 93.5329C295.146 96.5633 294.095 99.4707 292.395 101.999C290.695 104.527 288.4 106.599 285.71 108.032C283.021 109.464 280.021 110.213 276.974 110.214H167.142C164.094 110.213 161.094 109.464 158.405 108.032C155.716 106.599 153.42 104.527 151.72 101.999C150.021 99.4707 148.969 96.5633 148.658 93.5329C148.347 90.5026 148.786 87.4423 149.937 84.6216H126.564C121.427 84.6216 116.341 85.633 111.596 87.5979C106.851 89.5629 102.539 92.4429 98.9072 96.0737C95.2753 99.7044 92.3944 104.015 90.4288 108.759C88.4632 113.502 87.4516 118.587 87.4516 123.721V619.279C87.4516 624.413 88.4632 629.498 90.4288 634.241C92.3943 638.985 95.2753 643.296 98.9072 646.926C102.539 650.557 106.851 653.437 111.596 655.402C116.341 657.367 121.427 658.378 126.564 658.378H319.203C324.34 658.378 329.426 657.367 334.171 655.402C338.916 653.437 343.228 650.557 346.86 646.926C350.492 643.296 353.373 638.985 355.338 634.241C357.304 629.498 358.315 624.413 358.315 619.279V123.721C358.315 113.352 354.195 103.406 346.86 96.0737C339.525 88.741 329.576 84.6216 319.203 84.6216V84.6216Z" fill="white"/>
<path d="M324.488 162.031H121.279V336.275H324.488V162.031Z" fill="#E6E6E6"/>
<path d="M181.581 372.61C189.793 372.61 196.45 365.955 196.45 357.746C196.45 349.537 189.793 342.882 181.581 342.882C173.369 342.882 166.712 349.537 166.712 357.746C166.712 365.955 173.369 372.61 181.581 372.61Z" fill="#FF7518"/>
<path d="M189.015 356.508H182.82V350.314H180.342V356.508H174.146V358.985H180.342V365.179H182.82V358.985H189.015V356.508Z" fill="white"/>
<path d="M260.056 372.61C268.268 372.61 274.925 365.955 274.925 357.746C274.925 349.537 268.268 342.882 260.056 342.882C251.844 342.882 245.187 349.537 245.187 357.746C245.187 365.955 251.844 372.61 260.056 372.61Z" fill="#FF7518"/>
<path d="M267.49 358.985V356.507H252.621V358.985H267.49Z" fill="white"/>
<path d="M324.488 407.294H121.279V581.538H324.488V407.294Z" fill="#E6E6E6"/>
<path d="M181.581 617.873C189.793 617.873 196.45 611.218 196.45 603.009C196.45 594.8 189.793 588.145 181.581 588.145C173.369 588.145 166.712 594.8 166.712 603.009C166.712 611.218 173.369 617.873 181.581 617.873Z" fill="#FF7518"/>
<path d="M189.015 601.771H182.82V595.577H180.342V601.771H174.146V604.248H180.342V610.441H182.82V604.248H189.015V601.771Z" fill="white"/>
<path d="M260.056 617.873C268.268 617.873 274.925 611.218 274.925 603.009C274.925 594.8 268.268 588.145 260.056 588.145C251.844 588.145 245.187 594.8 245.187 603.009C245.187 611.218 251.844 617.873 260.056 617.873Z" fill="#FF7518"/>
<path d="M267.49 604.248V601.77H252.621V604.248H267.49Z" fill="white"/>
<path d="M170.21 281.255C170.21 281.255 161.048 299.383 168.845 299.383C176.643 299.383 274.888 299.773 277.617 294.705C279.529 291.154 278.475 278.513 277.672 271.263C277.516 269.853 276.827 268.558 275.745 267.641C274.663 266.725 273.271 266.258 271.855 266.337C250.607 267.51 171.229 271.856 171.574 271.313C172.257 270.241 171.769 270.534 171.769 270.534C171.769 270.534 168.65 280.475 170.21 281.255Z" fill="#FF7518"/>
<path opacity="0.1" d="M277.867 271.263C277.711 269.853 277.022 268.558 275.94 267.641C274.858 266.725 273.466 266.258 272.05 266.337C250.802 267.51 171.424 271.856 171.769 271.313C172.452 270.241 171.964 270.534 171.964 270.534C171.964 270.534 171.268 272.753 170.698 275.177C170.779 275.169 170.839 275.245 170.576 275.708C170.553 275.812 170.53 275.917 170.507 276.021C173.686 276.336 249.927 272.161 270.686 271.015C272.101 270.937 273.493 271.403 274.575 272.32C275.657 273.236 276.347 274.532 276.503 275.941C277.099 281.332 277.835 289.701 277.387 295.1C277.56 295.006 277.706 294.87 277.812 294.705C279.724 291.154 278.67 278.513 277.867 271.263Z" fill="black"/>
<path d="M181.13 254.086C180.114 253.775 178.829 253.373 178.945 252.718C179.006 252.37 179.472 252.098 179.81 251.806C180.461 251.243 180.636 250.45 179.937 249.907C179.238 249.363 177.554 249.291 176.938 249.866C176.62 250.162 176.639 250.533 176.476 250.867C175.965 251.91 173.897 252.367 172.141 252.772C170.384 253.177 168.419 253.931 168.584 255.01C168.764 256.186 171.474 257.23 170.384 258.233C169.988 258.597 169.157 258.8 168.98 259.216C168.855 259.509 169.105 259.807 169.348 260.074L171.073 261.975C171.76 262.732 172.467 263.555 172.237 264.397C171.782 266.065 168.077 266.704 165.141 266.516C164.066 266.447 162.802 266.354 162.063 266.805C161.494 267.153 161.495 267.696 161.684 268.16C162.171 269.355 163.73 270.389 165.724 270.842C163.489 271.283 162.611 273.142 164.154 274.166C163.271 274.47 162.316 274.498 161.417 274.245C160.654 274.948 161.103 275.912 162.071 276.527C163.039 277.141 164.41 277.487 165.738 277.816L164.495 278.978C165.395 279.68 167.337 279.432 168.647 278.988C169.956 278.544 171.377 277.948 172.845 278.181C174.221 278.399 175.262 279.316 176.663 279.159C177.749 279.037 178.266 278.34 178.604 277.737L180.042 275.177C182.09 275.497 184.242 274.094 183.42 272.975C185.711 273.221 187.966 271.734 187.214 270.472C188.434 271.413 189.293 272.506 189.713 273.653C189.901 274.165 190.016 274.707 190.527 275.141C190.861 275.39 191.249 275.558 191.659 275.632C192.069 275.706 192.491 275.684 192.891 275.569C192.473 276.379 192.135 277.324 192.993 278.011C193.852 278.698 196.329 278.503 196.22 277.661C197.529 278.224 198.996 278.752 200.632 278.794C202.268 278.836 204.059 278.214 204.208 277.281C206.514 278.042 208.926 278.43 211.354 278.432C211.56 277.808 213.003 277.606 214.081 277.758C215.159 277.911 216.16 278.277 217.271 278.278C218.381 278.278 219.576 277.61 219.007 277.064C221.347 277.554 223.748 277.675 226.124 277.424C228.366 277.186 230.491 276.62 232.761 276.498C235.064 276.358 237.369 276.722 239.517 277.565C240.261 277.877 241.186 278.27 242.004 278.025C242.468 277.886 242.693 277.586 243.008 277.347C244.364 276.319 247.137 276.516 249.276 276.92C251.415 277.325 253.904 277.812 255.778 277.097C256.485 276.827 257.006 276.41 257.759 276.184C260.454 275.373 263.679 277.451 266.54 276.853C267.471 276.658 268.227 276.192 269.214 276.135C270.964 276.033 272.121 277.219 273.822 277.474C275.588 277.739 277.502 276.665 277.071 275.651C278.768 275.688 280.46 275.453 282.083 274.954L281.281 273.511C283.279 273.479 284.748 272.047 283.823 271.035C285.826 270.653 287.409 269.627 287.821 268.443C288.233 267.259 287.456 265.964 285.861 265.174C284.919 264.707 283.683 264.379 283.145 263.737C282.757 263.274 282.813 262.736 282.663 262.23C282.333 261.123 280.903 260.146 279.055 259.765C278.253 259.6 277.375 259.537 276.648 259.281C275.922 259.026 275.397 258.472 275.816 258.047C276.038 257.823 276.466 257.69 276.742 257.486C277.863 256.659 275.941 255.611 274.301 255.147L278.218 255.019L279.059 251.205C277.509 252.465 273.489 252.2 272.482 250.771C273.74 251.184 275.428 250.656 276.043 249.905C276.658 249.154 276.507 248.28 276.343 247.456C276.327 247.251 276.259 247.054 276.145 246.884C276.03 246.713 275.874 246.575 275.69 246.483C275.307 246.301 274.696 246.225 274.57 245.949C274.442 245.667 274.938 245.418 275.011 245.13C275.153 244.577 273.881 244.333 273.023 244.066C270.998 243.435 270.018 241.662 267.714 241.719C265.427 241.777 264.788 243.522 264.787 244.83C264.785 246.138 264.012 247.888 261.724 247.864C260.81 247.855 260.013 247.526 259.284 247.211L252.731 244.385C251.865 243.983 250.965 243.66 250.04 243.421C248.718 243.112 247.258 243.076 245.832 243.043L236.665 242.835C236.198 242.798 235.728 242.839 235.275 242.954C234.793 243.115 234.559 243.432 234.269 243.704C232.993 244.903 229.992 245.372 227.826 244.712C227.252 244.537 226.737 244.296 226.129 244.164C224.212 243.749 222.201 244.517 220.209 244.795C216.945 245.25 212.888 244.467 210.535 245.838C209.75 246.295 209.334 246.92 208.607 247.407C207.88 247.894 206.568 248.225 205.651 247.857C205.766 248.751 205.871 249.684 205.266 250.511C204.66 251.338 203.108 252.013 201.583 251.804C200.774 251.59 200.837 250.91 201.22 250.449C201.603 249.989 202.19 249.519 201.999 249.021C201.81 248.527 200.943 248.239 200.296 247.895C199.648 247.551 199.216 246.898 199.904 246.58C199.44 245.984 197.773 246.057 197.04 246.556C196.307 247.056 196.234 247.76 196.154 248.411C196.074 249.061 195.9 249.774 195.05 250.21C193.603 250.952 190.823 250.567 189.863 251.533C189.558 251.84 189.54 252.211 189.366 252.549C188.587 254.061 185.224 254.453 182.476 254.576C182.418 254.891 182.405 255.212 182.438 255.53C183.378 255.123 181.811 254.295 181.13 254.086Z" fill="#61AB43"/>
<path opacity="0.1" d="M276.343 252.359C276.507 253.183 276.658 254.057 276.043 254.808C275.952 254.917 275.848 255.014 275.735 255.1C276.563 255.073 277.39 255.046 278.218 255.019C278.498 253.747 278.779 252.476 279.059 251.205C278.417 251.727 277.351 251.987 276.251 252.011C276.29 252.125 276.321 252.241 276.343 252.359V252.359Z" fill="black"/>
<path opacity="0.1" d="M277.066 256.851C276.968 256.336 276.118 255.813 275.167 255.439C274.329 255.837 273.376 255.92 272.482 255.674C273.176 256.66 275.304 257.092 277.066 256.851Z" fill="black"/>
<path opacity="0.1" d="M278.282 259.63C278.261 259.727 278.239 259.825 278.218 259.922C276.912 259.965 275.606 260.007 274.301 260.05C275.941 260.515 277.863 261.562 276.742 262.389C276.466 262.593 276.038 262.726 275.816 262.951C275.397 263.375 275.922 263.929 276.648 264.184C277.375 264.44 278.253 264.503 279.055 264.668C280.903 265.049 282.333 266.027 282.663 267.134C282.813 267.639 282.757 268.177 283.145 268.64C283.683 269.283 284.919 269.611 285.861 270.077C285.952 270.122 286.039 270.169 286.124 270.217C286.976 269.736 287.587 269.115 287.821 268.443C288.233 267.259 287.456 265.964 285.861 265.174C284.919 264.707 283.683 264.379 283.145 263.737C282.757 263.274 282.813 262.736 282.663 262.23C282.333 261.123 280.903 260.146 279.055 259.765C278.803 259.713 278.543 259.671 278.282 259.63Z" fill="black"/>
<path opacity="0.1" d="M163.521 277.192C163.826 276.543 164.604 275.967 165.724 275.746C164.654 275.524 163.647 275.069 162.772 274.414C162.315 274.428 161.857 274.371 161.417 274.245C160.654 274.948 161.103 275.912 162.071 276.527C162.527 276.803 163.014 277.026 163.521 277.192V277.192Z" fill="black"/>
<path opacity="0.1" d="M170.43 258.185C170.988 257.976 171.559 257.806 172.141 257.676C173.897 257.271 175.965 256.813 176.476 255.77C176.639 255.436 176.62 255.065 176.938 254.769C177.554 254.194 179.238 254.267 179.937 254.81C180.636 255.354 180.461 256.146 179.81 256.709C179.472 257.001 179.006 257.273 178.945 257.621C178.829 258.276 180.114 258.678 181.13 258.99C181.608 259.143 182.055 259.38 182.452 259.687C182.461 259.618 182.469 259.548 182.476 259.479C185.225 259.356 188.587 258.965 189.366 257.453C189.54 257.114 189.558 256.744 189.863 256.437C190.823 255.47 193.603 255.855 195.05 255.113C195.9 254.677 196.074 253.965 196.154 253.314C196.234 252.663 196.307 251.96 197.04 251.46C197.773 250.96 199.44 250.887 199.904 251.483C199.216 251.801 199.648 252.454 200.296 252.798C200.943 253.143 201.81 253.43 201.999 253.924C202.19 254.422 201.603 254.892 201.22 255.353C200.837 255.813 200.774 256.493 201.583 256.707C203.108 256.916 204.66 256.241 205.266 255.414C205.871 254.587 205.766 253.654 205.651 252.76C206.568 253.128 207.88 252.798 208.607 252.31C209.334 251.823 209.75 251.198 210.535 250.741C212.888 249.37 216.945 250.153 220.209 249.698C222.201 249.421 224.212 248.652 226.129 249.067C226.737 249.199 227.252 249.441 227.826 249.616C229.992 250.276 232.993 249.806 234.269 248.608C234.559 248.335 234.793 248.019 235.275 247.858C235.728 247.742 236.198 247.702 236.665 247.738C239.721 247.808 242.776 247.877 245.832 247.947C247.258 247.979 248.718 248.015 250.04 248.324C250.965 248.563 251.865 248.886 252.731 249.289C254.915 250.231 257.1 251.173 259.284 252.115C260.013 252.429 260.81 252.758 261.724 252.767C264.012 252.791 264.785 251.042 264.787 249.734C264.788 248.425 265.427 246.68 267.714 246.623C270.018 246.565 270.998 248.338 273.023 248.969C273.882 249.236 275.153 249.48 275.011 250.033C274.946 250.29 274.546 250.515 274.55 250.761C275.12 250.627 275.639 250.329 276.043 249.905C276.658 249.154 276.507 248.28 276.343 247.456C276.327 247.251 276.259 247.054 276.145 246.884C276.03 246.713 275.874 246.575 275.69 246.483C275.307 246.301 274.696 246.225 274.57 245.949C274.442 245.667 274.938 245.418 275.011 245.13C275.153 244.577 273.882 244.333 273.023 244.066C270.998 243.435 270.018 241.662 267.714 241.719C265.427 241.777 264.788 243.522 264.787 244.83C264.785 246.138 264.012 247.888 261.724 247.864C260.81 247.855 260.013 247.526 259.284 247.211C257.1 246.269 254.915 245.327 252.731 244.385C251.865 243.983 250.965 243.66 250.04 243.421C248.718 243.112 247.258 243.076 245.832 243.043C242.776 242.974 239.721 242.904 236.665 242.835C236.198 242.798 235.728 242.839 235.275 242.954C234.793 243.115 234.559 243.432 234.269 243.704C232.993 244.903 229.992 245.372 227.826 244.712C227.252 244.537 226.737 244.296 226.129 244.164C224.212 243.749 222.201 244.517 220.209 244.795C216.945 245.25 212.888 244.467 210.535 245.838C209.75 246.295 209.334 246.92 208.607 247.407C207.88 247.894 206.568 248.225 205.651 247.857C205.766 248.751 205.871 249.684 205.266 250.511C204.66 251.338 203.108 252.013 201.583 251.804C200.774 251.59 200.837 250.91 201.22 250.449C201.603 249.989 202.19 249.519 201.999 249.021C201.81 248.527 200.943 248.239 200.296 247.895C199.648 247.551 199.216 246.898 199.904 246.58C199.44 245.984 197.773 246.057 197.04 246.556C196.307 247.056 196.234 247.76 196.154 248.411C196.074 249.061 195.9 249.774 195.05 250.21C193.603 250.952 190.823 250.567 189.863 251.533C189.558 251.84 189.54 252.211 189.366 252.549C188.587 254.061 185.225 254.453 182.476 254.576C182.469 254.645 182.461 254.714 182.452 254.784C182.055 254.476 181.608 254.24 181.13 254.086C180.114 253.775 178.829 253.373 178.945 252.718C179.006 252.37 179.472 252.098 179.81 251.806C180.461 251.243 180.636 250.45 179.937 249.907C179.238 249.363 177.554 249.291 176.938 249.866C176.62 250.162 176.639 250.533 176.476 250.867C175.965 251.91 173.897 252.367 172.141 252.772C170.384 253.177 168.419 253.931 168.584 255.01C168.761 256.167 171.385 257.197 170.43 258.185Z" fill="black"/>
<path opacity="0.1" d="M165.724 270.842C165.241 270.931 164.78 271.112 164.364 271.375C164.628 271.386 164.89 271.403 165.141 271.419C168.077 271.607 171.782 270.969 172.237 269.3C172.467 268.458 171.76 267.635 171.073 266.879C170.797 266.575 170.522 266.271 170.246 265.967C168.809 266.455 166.846 266.625 165.141 266.516C164.066 266.447 162.802 266.353 162.063 266.805C161.494 267.153 161.495 267.696 161.684 268.16C162.171 269.355 163.73 270.389 165.724 270.842Z" fill="black"/>
<path d="M225.522 263.212C241.671 263.212 254.762 254.572 254.762 243.914C254.762 233.256 241.671 224.616 225.522 224.616C209.374 224.616 196.283 233.256 196.283 243.914C196.283 254.572 209.374 263.212 225.522 263.212Z" fill="#EA565C"/>
<path opacity="0.2" d="M215.581 242.549C215.581 242.549 202.325 243.914 206.224 238.261C210.123 232.608 214.996 230.659 217.335 232.218C219.674 233.777 220.649 238.066 220.259 238.066C219.869 238.066 214.216 234.752 212.267 237.286C210.318 239.82 215.581 242.549 215.581 242.549Z" fill="white"/>
<path opacity="0.2" d="M227.066 243.102C227.066 243.102 238.012 250.701 231.372 252.451C224.731 254.2 219.764 252.505 219.005 249.798C218.246 247.091 220.3 243.202 220.596 243.456C220.892 243.71 223.022 249.907 226.152 249.254C229.282 248.601 227.066 243.102 227.066 243.102Z" fill="white"/>
<path opacity="0.2" d="M229.622 238.339C229.622 238.339 230.485 225.042 235.41 229.828C240.334 234.615 241.444 239.745 239.516 241.791C237.588 243.838 233.198 244.084 233.262 243.7C233.327 243.315 237.537 238.294 235.363 235.949C233.19 233.605 229.622 238.339 229.622 238.339Z" fill="white"/>
<path d="M190.24 261.653C206.388 261.653 219.479 253.012 219.479 242.354C219.479 231.696 206.388 223.056 190.24 223.056C174.091 223.056 161 231.696 161 242.354C161 253.012 174.091 261.653 190.24 261.653Z" fill="#EA565C"/>
<path opacity="0.2" d="M180.298 240.99C180.298 240.99 167.043 242.354 170.941 236.701C174.84 231.048 179.713 229.099 182.053 230.659C184.392 232.218 185.366 236.507 184.977 236.507C184.587 236.507 178.934 233.193 176.984 235.727C175.035 238.261 180.298 240.99 180.298 240.99Z" fill="white"/>
<path opacity="0.2" d="M191.784 241.542C191.784 241.542 202.73 249.142 196.089 250.891C189.449 252.641 184.482 250.945 183.723 248.238C182.964 245.531 185.018 241.643 185.313 241.897C185.609 242.15 187.74 248.347 190.869 247.694C193.999 247.041 191.784 241.542 191.784 241.542Z" fill="white"/>
<path opacity="0.2" d="M194.339 236.78C194.339 236.78 195.203 223.483 200.127 228.269C205.051 233.055 206.161 238.185 204.233 240.232C202.306 242.278 197.915 242.524 197.98 242.14C198.045 241.756 202.255 236.734 200.081 234.39C197.907 232.045 194.339 236.78 194.339 236.78Z" fill="white"/>
<path opacity="0.1" d="M205.456 225.931C211.825 229.471 215.873 234.772 215.873 240.697C215.873 251.356 202.782 259.996 186.633 259.996C181.1 259.996 175.926 258.981 171.514 257.218C176.601 260.046 183.167 261.75 190.337 261.75C206.486 261.75 219.577 253.11 219.577 242.452C219.577 235.446 213.92 229.312 205.456 225.931Z" fill="black"/>
<path opacity="0.1" d="M240.739 227.295C247.108 230.835 251.156 236.136 251.156 242.062C251.156 252.72 238.065 261.36 221.916 261.36C216.383 261.36 211.209 260.345 206.797 258.583C211.883 261.41 218.449 263.115 225.62 263.115C241.768 263.115 254.859 254.474 254.859 243.816C254.859 236.81 249.202 230.676 240.739 227.295Z" fill="black"/>
<path d="M172.47 238.657C172.47 238.657 197.616 211.757 259.214 222.868C307.908 231.651 267.922 246.769 249.032 252.718C243.551 254.443 237.874 255.465 232.135 255.76C210.824 256.857 157.22 257.838 172.47 238.657Z" fill="#714B4F"/>
<path opacity="0.1" d="M249.032 246.675C243.551 248.4 237.874 249.422 232.135 249.717C214.871 250.606 176.415 251.418 170.54 241.497C163.121 257.533 212.017 256.601 232.135 255.565C237.874 255.27 243.551 254.248 249.032 252.523C262.878 248.162 288.057 238.876 281.341 230.769C276.819 237.131 259.615 243.342 249.032 246.675Z" fill="black"/>
<path opacity="0.1" d="M226.174 222.965L232.996 236.416" stroke="black" stroke-width="2" stroke-miterlimit="10"/>
<path opacity="0.1" d="M205.121 227.839L210.969 239.145" stroke="black" stroke-width="2" stroke-miterlimit="10"/>
<path opacity="0.1" d="M238.454 222.965L247.616 236.416" stroke="black" stroke-width="2" stroke-miterlimit="10"/>
<path opacity="0.1" d="M205.121 240.314L266.524 232.517" stroke="black" stroke-width="2" stroke-miterlimit="10"/>
<path opacity="0.1" d="M264.185 225.499L268.474 231.542" stroke="black" stroke-width="2" stroke-miterlimit="10"/>
<path opacity="0.1" d="M193.035 232.517L195.764 238.17" stroke="black" stroke-width="2" stroke-miterlimit="10"/>
<path d="M202.201 214.204C202.201 214.204 258.275 213.95 258.789 213.443C259.304 212.935 271.136 212.667 273.451 215.964C275.766 219.262 276.537 220.784 273.451 221.292C270.364 221.799 168.762 273.804 168.762 273.804C168.762 273.804 163.104 274.311 165.933 268.73C168.762 263.149 202.201 214.204 202.201 214.204Z" fill="#F6C964"/>
<path d="M225.742 237.4C225.742 239.499 215.619 244.612 203.13 244.612C190.642 244.612 180.518 239.499 180.518 237.4C180.518 235.3 190.642 234.476 203.13 234.476C215.619 234.476 225.742 235.3 225.742 237.4Z" fill="#61AB43"/>
<path d="M203.13 241.103C215.619 241.103 225.742 239.402 225.742 237.302C225.742 235.203 215.619 233.501 203.13 233.501C190.642 233.501 180.518 235.203 180.518 237.302C180.518 239.402 190.642 241.103 203.13 241.103Z" fill="#61AB43"/>
<path d="M253.033 233.891C253.033 235.99 242.909 241.103 230.421 241.103C217.932 241.103 207.809 235.99 207.809 233.891C207.809 231.792 217.932 230.967 230.421 230.967C242.909 230.967 253.033 231.792 253.033 233.891Z" fill="#61AB43"/>
<path d="M230.421 237.595C242.909 237.595 253.033 235.893 253.033 233.793C253.033 231.694 242.909 229.992 230.421 229.992C217.932 229.992 207.809 231.694 207.809 233.793C207.809 235.893 217.932 237.595 230.421 237.595Z" fill="#61AB43"/>
<path d="M280.323 230.382C280.323 232.481 270.199 237.595 257.711 237.595C245.223 237.595 235.099 232.481 235.099 230.382C235.099 228.283 245.223 227.458 257.711 227.458C270.199 227.458 280.323 228.283 280.323 230.382Z" fill="#61AB43"/>
<path d="M257.711 234.086C270.199 234.086 280.323 232.384 280.323 230.285C280.323 228.185 270.199 226.483 257.711 226.483C245.223 226.483 235.099 228.185 235.099 230.285C235.099 232.384 245.223 234.086 257.711 234.086Z" fill="#61AB43"/>
<path d="M174.435 231.462C174.435 231.462 165.135 229.948 169.893 222.378C174.652 214.809 176.252 206.323 178.328 204.427C180.65 202.308 228.562 165.147 265.888 206.268C269.842 210.676 273.057 215.695 275.407 221.131C275.858 222.159 276.356 223.081 276.843 223.568C278.357 225.082 279.654 229.407 276.843 231.57C274.031 233.733 191.197 242.168 174.435 231.462Z" fill="#FF7518"/>
<path d="M218.015 199.994C217.442 200.392 216.766 200.617 216.069 200.642C214.994 200.642 214.122 200.352 214.122 199.994C214.122 199.635 214.994 199.345 216.069 199.345C216.766 199.37 217.442 199.595 218.015 199.994V199.994Z" fill="#F2F2F2"/>
<path d="M202.443 195.884C201.87 196.283 201.194 196.508 200.497 196.533C199.422 196.533 198.55 196.243 198.55 195.884C198.55 195.526 199.422 195.236 200.497 195.236C201.194 195.261 201.87 195.486 202.443 195.884V195.884Z" fill="#F2F2F2"/>
<path d="M244.745 201.872C244.079 202.082 243.367 202.095 242.693 201.911C241.667 201.59 240.922 201.052 241.029 200.71C241.136 200.368 242.055 200.351 243.081 200.672C243.739 200.904 244.317 201.321 244.745 201.872Z" fill="#F2F2F2"/>
<path d="M215.98 190.842C215.314 191.052 214.602 191.065 213.928 190.88C212.902 190.559 212.157 190.022 212.264 189.68C212.371 189.338 213.29 189.321 214.316 189.642C214.974 189.874 215.552 190.291 215.98 190.842V190.842Z" fill="#F2F2F2"/>
<path d="M247.34 194.735C246.674 194.945 245.962 194.958 245.289 194.773C244.263 194.452 243.518 193.915 243.625 193.573C243.732 193.231 244.65 193.214 245.676 193.535C246.335 193.767 246.912 194.184 247.34 194.735V194.735Z" fill="#F2F2F2"/>
<path d="M240.941 194.154C240.367 194.553 239.692 194.778 238.994 194.803C237.919 194.803 237.048 194.512 237.048 194.154C237.048 193.796 237.919 193.505 238.994 193.505C239.692 193.53 240.367 193.756 240.941 194.154V194.154Z" fill="#F2F2F2"/>
<path d="M222.341 190.261C221.768 190.66 221.092 190.885 220.394 190.91C219.319 190.91 218.448 190.62 218.448 190.261C218.448 189.903 219.319 189.612 220.394 189.612C221.092 189.637 221.768 189.863 222.341 190.261V190.261Z" fill="#F2F2F2"/>
<path d="M236.615 190.261C236.042 190.66 235.366 190.885 234.669 190.91C233.594 190.91 232.722 190.62 232.722 190.261C232.722 189.903 233.594 189.612 234.669 189.612C235.366 189.637 236.042 189.863 236.615 190.261V190.261Z" fill="#F2F2F2"/>
<path d="M231.208 198.696C230.635 199.095 229.959 199.32 229.262 199.345C228.187 199.345 227.315 199.054 227.315 198.696C227.315 198.338 228.187 198.047 229.262 198.047C229.959 198.072 230.635 198.297 231.208 198.696V198.696Z" fill="#F2F2F2"/>
<path d="M215.481 197.18C215.644 196.501 215.998 195.883 216.502 195.4C217.304 194.685 218.148 194.321 218.386 194.588C218.625 194.856 218.168 195.653 217.366 196.369C216.829 196.814 216.174 197.096 215.481 197.18Z" fill="#F2F2F2"/>
<path d="M205.749 194.801C205.911 194.122 206.265 193.504 206.769 193.021C207.572 192.305 208.415 191.942 208.654 192.209C208.892 192.477 208.435 193.274 207.633 193.989C207.096 194.435 206.442 194.717 205.749 194.801V194.801Z" fill="#F2F2F2"/>
<path d="M188.879 206.48C189.042 205.801 189.396 205.183 189.9 204.7C190.702 203.985 191.545 203.621 191.784 203.888C192.023 204.156 191.566 204.953 190.764 205.668C190.226 206.114 189.572 206.396 188.879 206.48Z" fill="#F2F2F2"/>
<path d="M226.295 193.504C226.458 192.825 226.812 192.207 227.316 191.723C228.118 191.008 228.962 190.644 229.2 190.912C229.439 191.179 228.982 191.976 228.18 192.692C227.642 193.138 226.988 193.419 226.295 193.504Z" fill="#F2F2F2"/>
<path d="M222.402 201.29C222.565 200.611 222.919 199.993 223.423 199.51C224.225 198.794 225.069 198.43 225.307 198.698C225.546 198.965 225.089 199.762 224.287 200.478C223.749 200.924 223.095 201.205 222.402 201.29Z" fill="#F2F2F2"/>
<path d="M147.008 491.222H140.184C139.944 491.222 139.714 491.318 139.544 491.49C139.374 491.662 139.279 491.896 139.279 492.139V495.175C139.279 495.418 139.374 495.651 139.544 495.823C139.714 495.995 139.944 496.092 140.184 496.092H141.315V500.641H145.877V496.092H147.008C147.248 496.092 147.478 495.995 147.648 495.823C147.818 495.651 147.913 495.418 147.913 495.175V492.139C147.913 491.896 147.818 491.662 147.648 491.49C147.478 491.318 147.248 491.222 147.008 491.222Z" fill="#FF7518"/>
<path d="M154.229 519.118C149.973 512.908 147.797 505.514 148.013 497.995C148.017 497.822 147.961 497.652 147.854 497.516C147.746 497.379 147.595 497.283 147.425 497.245V495.931H140.086V497.227H139.984C139.881 497.227 139.778 497.249 139.684 497.29C139.589 497.331 139.504 497.392 139.433 497.468C139.363 497.543 139.309 497.633 139.275 497.73C139.24 497.827 139.227 497.931 139.234 498.034C139.813 506.071 137.86 513.279 133.377 519.657C133.119 520.024 132.987 520.464 133.001 520.911L133.804 545.666C133.823 546.218 134.055 546.741 134.452 547.127C134.849 547.512 135.38 547.73 135.934 547.734H152.536C153.096 547.73 153.632 547.507 154.031 547.114C154.429 546.721 154.657 546.188 154.668 545.629L154.977 521.595C154.986 520.713 154.725 519.849 154.229 519.118V519.118Z" fill="#3F3D56"/>
<path opacity="0.2" d="M145.558 492.007C145.558 492.631 145.352 493.23 144.984 493.672C144.616 494.113 144.116 494.361 143.596 494.361C143.076 494.361 142.577 494.113 142.209 493.672C141.841 493.23 141.634 492.631 141.634 492.007" fill="black"/>
<path d="M151.152 527.097H149.159C148.968 525.85 148.342 524.713 147.394 523.891C146.446 523.069 145.238 522.618 143.989 522.618C142.739 522.618 141.531 523.069 140.583 523.891C139.635 524.713 139.009 525.85 138.819 527.097H136.826C136.613 527.097 136.404 527.144 136.211 527.233C136.019 527.322 135.847 527.453 135.709 527.616C135.571 527.778 135.469 527.969 135.411 528.175C135.353 528.381 135.34 528.597 135.372 528.809L137.537 543.025H149.968L152.597 528.857C152.637 528.642 152.63 528.421 152.575 528.21C152.521 527.999 152.421 527.802 152.283 527.634C152.145 527.466 151.972 527.331 151.777 527.238C151.581 527.145 151.368 527.097 151.152 527.097Z" fill="#FF7518"/>
<path d="M319.02 504.565L318.549 523.486L317.965 546.949H298.098L297.414 519.459L297.043 504.565H319.02Z" fill="#E6E6E6"/>
<path d="M308.816 494.361H306.462V532.036H308.816V494.361Z" fill="#FF7518"/>
<path d="M317.45 519.094L316.908 546.164H298.463L297.828 514.449C299.49 513.985 301.23 513.867 302.94 514.1C304.65 514.334 306.293 514.914 307.767 515.806C310.849 517.615 314.311 518.589 317.45 519.094Z" fill="#3F3D56"/>
<path d="M303.322 521.833H300.183V524.972H303.322V521.833Z" fill="#E6E6E6"/>
<path d="M304.892 517.123H302.537V519.478H304.892V517.123Z" fill="#E6E6E6"/>
<path d="M310.635 520.439L308.531 518.879L306.971 520.983L309.075 522.543L310.635 520.439Z" fill="#E6E6E6"/>
<path d="M315.367 525.08L313.263 523.52L311.703 525.624L313.807 527.184L315.367 525.08Z" fill="#E6E6E6"/>
<path d="M307.339 527.756L305.235 526.196L303.675 528.3L305.779 529.86L307.339 527.756Z" fill="#E6E6E6"/>
<path d="M313.526 515.554C313.959 515.554 314.311 515.378 314.311 515.161C314.311 514.944 313.959 514.769 313.526 514.769C313.092 514.769 312.741 514.944 312.741 515.161C312.741 515.378 313.092 515.554 313.526 515.554Z" fill="#3F3D56"/>
<path d="M302.93 512.414C303.146 512.414 303.322 512.062 303.322 511.629C303.322 511.196 303.146 510.844 302.93 510.844C302.713 510.844 302.537 511.196 302.537 511.629C302.537 512.062 302.713 512.414 302.93 512.414Z" fill="#3F3D56"/>
<path d="M311.564 508.489C311.78 508.489 311.956 508.314 311.956 508.097C311.956 507.88 311.78 507.705 311.564 507.705C311.347 507.705 311.171 507.88 311.171 508.097C311.171 508.314 311.347 508.489 311.564 508.489Z" fill="#3F3D56"/>
<path d="M226.01 546.949C258.305 546.949 284.485 520.769 284.485 488.475C284.485 456.18 258.305 430 226.01 430C193.715 430 167.535 456.18 167.535 488.475C167.535 520.769 193.715 546.949 226.01 546.949Z" fill="#FF7518"/>
<path opacity="0.2" d="M226.01 531.251C216.113 531.251 206.523 527.82 198.873 521.541C191.222 515.263 185.986 506.526 184.055 496.82C182.125 487.113 183.619 477.038 188.284 468.31C192.95 459.582 200.497 452.741 209.64 448.954C218.783 445.167 228.957 444.667 238.428 447.54C247.898 450.413 256.079 456.48 261.578 464.709C267.076 472.938 269.551 482.818 268.581 492.667C267.611 502.516 263.256 511.724 256.258 518.722C252.295 522.707 247.581 525.866 242.389 528.017C237.197 530.167 231.63 531.267 226.01 531.251V531.251ZM226.01 448.336C203.877 448.336 185.871 466.342 185.871 488.474C185.871 510.607 203.877 528.613 226.01 528.613C248.142 528.613 266.148 510.607 266.148 488.474C266.148 466.342 248.142 448.336 226.01 448.336Z" fill="black"/>
<path d="M226.01 529.682C248.768 529.682 267.217 511.233 267.217 488.475C267.217 465.717 248.768 447.268 226.01 447.268C203.252 447.268 184.803 465.717 184.803 488.475C184.803 511.233 203.252 529.682 226.01 529.682Z" fill="#3F3D56"/>
<path d="M195.575 472.06C195.265 471.454 195.077 470.794 195.023 470.117C194.969 469.439 195.05 468.757 195.261 468.111C195.472 467.464 195.809 466.866 196.252 466.349C196.696 465.832 197.238 465.407 197.846 465.099C198.455 464.79 199.119 464.604 199.8 464.551C200.481 464.498 201.166 464.579 201.816 464.79C202.466 465 203.067 465.336 203.586 465.778C204.105 466.22 204.532 466.759 204.841 467.365L216.415 489.977C216.726 490.582 216.913 491.242 216.967 491.92C217.021 492.597 216.941 493.279 216.73 493.925C216.519 494.572 216.182 495.171 215.738 495.688C215.295 496.204 214.753 496.629 214.144 496.938C213.535 497.246 212.871 497.432 212.19 497.485C211.509 497.538 210.824 497.457 210.174 497.247C209.525 497.036 208.923 496.7 208.404 496.258C207.885 495.816 207.459 495.277 207.149 494.671L195.575 472.06Z" fill="#FF6584"/>
<path opacity="0.2" d="M196.348 474.739L195.792 473.597C198.567 471.342 201.827 469.683 205.439 468.46L205.995 469.602C202.086 470.453 198.759 472.029 196.348 474.739Z" fill="black"/>
<path opacity="0.2" d="M198.702 479.448L198.146 478.449C200.922 476.476 204.181 475.025 207.794 473.954L208.35 474.953C204.44 475.698 201.114 477.077 198.702 479.448Z" fill="black"/>
<path opacity="0.2" d="M201.799 484.943L201.286 483.801C203.848 481.546 206.857 479.887 210.191 478.664L210.705 479.806C207.096 480.657 204.025 482.232 201.799 484.943Z" fill="black"/>
<path opacity="0.2" d="M204.154 489.652L203.641 488.51C206.203 486.255 209.211 484.596 212.546 483.373L213.059 484.515C209.45 485.366 206.38 486.942 204.154 489.652Z" fill="black"/>
<path opacity="0.2" d="M206.551 494.361L205.995 493.362C208.771 491.389 212.03 489.938 215.643 488.867L216.199 489.866C212.289 490.611 208.963 491.99 206.551 494.361Z" fill="black"/>
<path d="M186.156 480.695C185.846 480.09 185.658 479.429 185.604 478.752C185.55 478.074 185.631 477.392 185.842 476.746C186.053 476.099 186.39 475.5 186.834 474.983C187.278 474.466 187.819 474.041 188.428 473.733C189.037 473.424 189.701 473.238 190.383 473.185C191.064 473.132 191.749 473.213 192.399 473.424C193.048 473.634 193.65 473.97 194.169 474.412C194.688 474.854 195.115 475.394 195.425 476L207.001 498.618C207.625 499.84 207.736 501.259 207.309 502.563C206.882 503.867 205.953 504.949 204.725 505.571C203.496 506.194 202.07 506.305 200.759 505.882C199.448 505.459 198.36 504.535 197.733 503.314L186.156 480.695Z" fill="#FF6584"/>
<path opacity="0.2" d="M187.714 483.373L187.158 482.231C189.933 479.976 193.193 478.317 196.805 477.094L197.361 478.236C193.452 479.087 190.126 480.662 187.714 483.373Z" fill="black"/>
<path opacity="0.2" d="M190.069 488.082L189.512 487.083C192.288 485.11 195.548 483.659 199.16 482.588L199.716 483.587C195.806 484.332 192.48 485.711 190.069 488.082Z" fill="black"/>
<path opacity="0.2" d="M192.423 493.577L191.867 492.435C194.643 490.179 197.902 488.521 201.515 487.297L202.071 488.439C198.161 489.291 194.835 490.866 192.423 493.577Z" fill="black"/>
<path opacity="0.2" d="M195.52 498.286L195.007 497.144C197.569 494.889 200.578 493.23 203.912 492.007L204.425 493.149C200.817 494 197.746 495.575 195.52 498.286Z" fill="black"/>
<path opacity="0.2" d="M197.875 502.995L197.361 501.996C199.924 500.023 202.932 498.571 206.267 497.501L206.78 498.5C203.171 499.245 200.101 500.624 197.875 502.995Z" fill="black"/>
<path d="M253.636 489.778L253.673 489.778C254.926 489.788 256.154 489.424 257.195 488.733C258.236 488.043 259.043 487.057 259.511 485.905C260.472 483.499 260.956 480.932 260.937 478.345C260.872 467.394 251.876 458.41 240.819 458.258C236.111 458.193 231.524 459.742 227.837 462.644C224.15 465.545 221.589 469.62 220.589 474.177C219.589 478.735 220.211 483.495 222.349 487.65C224.488 491.805 228.012 495.1 232.323 496.977C233.462 497.476 234.728 497.623 235.953 497.398C237.178 497.173 238.306 496.587 239.189 495.716C241.082 493.831 243.333 492.336 245.813 491.316C248.293 490.297 250.951 489.774 253.636 489.778Z" fill="#E6E6E6"/>
<path d="M243.278 483.373C246.962 483.373 249.949 480.386 249.949 476.701C249.949 473.017 246.962 470.03 243.278 470.03C239.593 470.03 236.606 473.017 236.606 476.701C236.606 480.386 239.593 483.373 243.278 483.373Z" fill="#F9A825"/>
<path d="M228.757 476.309C229.191 476.309 229.542 475.957 229.542 475.524C229.542 475.09 229.191 474.739 228.757 474.739C228.324 474.739 227.972 475.09 227.972 475.524C227.972 475.957 228.324 476.309 228.757 476.309Z" fill="#3F3D56"/>
<path d="M202.071 477.094C202.504 477.094 202.856 476.742 202.856 476.309C202.856 475.875 202.504 475.524 202.071 475.524C201.637 475.524 201.286 475.875 201.286 476.309C201.286 476.742 201.637 477.094 202.071 477.094Z" fill="#3F3D56"/>
<path d="M232.682 467.675C233.115 467.675 233.466 467.499 233.466 467.283C233.466 467.066 233.115 466.89 232.682 466.89C232.248 466.89 231.897 467.066 231.897 467.283C231.897 467.499 232.248 467.675 232.682 467.675Z" fill="#3F3D56"/>
<path d="M232.682 491.222C233.115 491.222 233.466 490.695 233.466 490.044C233.466 489.394 233.115 488.867 232.682 488.867C232.248 488.867 231.897 489.394 231.897 490.044C231.897 490.695 232.248 491.222 232.682 491.222Z" fill="#3F3D56"/>
<path d="M248.379 466.105C248.813 466.105 249.164 465.754 249.164 465.32C249.164 464.887 248.813 464.535 248.379 464.535C247.946 464.535 247.595 464.887 247.595 465.32C247.595 465.754 247.946 466.105 248.379 466.105Z" fill="#3F3D56"/>
<path d="M196.576 488.082C197.01 488.082 197.361 487.731 197.361 487.297C197.361 486.864 197.01 486.512 196.576 486.512C196.143 486.512 195.792 486.864 195.792 487.297C195.792 487.731 196.143 488.082 196.576 488.082Z" fill="#3F3D56"/>
<path d="M202.856 499.856C203.289 499.856 203.641 499.328 203.641 498.678C203.641 498.028 203.289 497.501 202.856 497.501C202.422 497.501 202.071 498.028 202.071 498.678C202.071 499.328 202.422 499.856 202.856 499.856Z" fill="#3F3D56"/>
<path d="M239.353 502.995C240.87 502.995 242.1 501.765 242.1 500.248C242.1 498.731 240.87 497.501 239.353 497.501C237.836 497.501 236.606 498.731 236.606 500.248C236.606 501.765 237.836 502.995 239.353 502.995Z" fill="#FF6584"/>
<path opacity="0.2" d="M242.1 500.641C242.1 501.265 241.852 501.864 241.411 502.306C240.969 502.747 240.37 502.995 239.746 502.995C239.121 502.995 238.522 502.747 238.081 502.306C237.639 501.864 237.391 501.265 237.391 500.641" fill="black"/>
<path opacity="0.2" d="M237.391 499.856C237.391 499.231 237.639 498.632 238.081 498.191C238.522 497.749 239.121 497.501 239.746 497.501C240.37 497.501 240.969 497.749 241.411 498.191C241.852 498.632 242.1 499.231 242.1 499.856" fill="black"/>
<path d="M239.353 501.425C239.57 501.425 239.746 501.25 239.746 501.033C239.746 500.816 239.57 500.641 239.353 500.641C239.136 500.641 238.961 500.816 238.961 501.033C238.961 501.25 239.136 501.425 239.353 501.425Z" fill="#FF6584"/>
<path d="M240.138 502.21C240.355 502.21 240.531 502.034 240.531 501.818C240.531 501.601 240.355 501.425 240.138 501.425C239.921 501.425 239.746 501.601 239.746 501.818C239.746 502.034 239.921 502.21 240.138 502.21Z" fill="#FF6584"/>
<path d="M245.24 495.146C246.974 495.146 248.379 493.741 248.379 492.007C248.379 490.273 246.974 488.867 245.24 488.867C243.506 488.867 242.1 490.273 242.1 492.007C242.1 493.741 243.506 495.146 245.24 495.146Z" fill="#FF6584"/>
<path opacity="0.2" d="M247.595 492.007C247.595 492.631 247.347 493.23 246.905 493.672C246.463 494.113 245.864 494.361 245.24 494.361C244.615 494.361 244.016 494.113 243.575 493.672C243.133 493.23 242.885 492.631 242.885 492.007" fill="black"/>
<path opacity="0.2" d="M242.885 492.007C242.885 491.382 243.133 490.783 243.575 490.342C244.016 489.9 244.615 489.652 245.24 489.652C245.864 489.652 246.463 489.9 246.905 490.342C247.347 490.783 247.595 491.382 247.595 492.007" fill="black"/>
<path d="M246.417 494.361C246.634 494.361 246.81 494.186 246.81 493.969C246.81 493.752 246.634 493.576 246.417 493.576C246.201 493.576 246.025 493.752 246.025 493.969C246.025 494.186 246.201 494.361 246.417 494.361Z" fill="#FF6584"/>
<path d="M251.519 499.071C253.253 499.071 254.659 497.841 254.659 496.324C254.659 494.806 253.253 493.576 251.519 493.576C249.785 493.576 248.379 494.806 248.379 496.324C248.379 497.841 249.785 499.071 251.519 499.071Z" fill="#FF7518"/>
<path opacity="0.2" d="M253.874 496.716C253.874 497.341 253.626 497.939 253.184 498.381C252.743 498.823 252.144 499.071 251.519 499.071C250.895 499.071 250.296 498.823 249.854 498.381C249.412 497.939 249.164 497.341 249.164 496.716" fill="black"/>
<path opacity="0.2" d="M249.164 495.931C249.164 495.307 249.412 494.708 249.854 494.266C250.296 493.824 250.895 493.576 251.519 493.576C252.144 493.576 252.743 493.824 253.184 494.266C253.626 494.708 253.874 495.307 253.874 495.931" fill="black"/>
<path d="M250.342 495.931C250.558 495.931 250.734 495.755 250.734 495.539C250.734 495.322 250.558 495.146 250.342 495.146C250.125 495.146 249.949 495.322 249.949 495.539C249.949 495.755 250.125 495.931 250.342 495.931Z" fill="#FF7518"/>
<path d="M252.696 498.286C252.913 498.286 253.089 498.11 253.089 497.893C253.089 497.677 252.913 497.501 252.696 497.501C252.48 497.501 252.304 497.677 252.304 497.893C252.304 498.11 252.48 498.286 252.696 498.286Z" fill="#FF7518"/>
<path d="M250.342 497.501C250.558 497.501 250.734 497.325 250.734 497.109C250.734 496.892 250.558 496.716 250.342 496.716C250.125 496.716 249.949 496.892 249.949 497.109C249.949 497.325 250.125 497.501 250.342 497.501Z" fill="#FF7518"/>
<path d="M236.606 499.856C238.34 499.856 239.746 498.45 239.746 496.716C239.746 494.982 238.34 493.576 236.606 493.576C234.872 493.576 233.467 494.982 233.467 496.716C233.467 498.45 234.872 499.856 236.606 499.856Z" fill="#FF7518"/>
<path opacity="0.2" d="M238.961 496.716C238.961 497.341 238.713 497.939 238.271 498.381C237.829 498.823 237.231 499.071 236.606 499.071C235.982 499.071 235.383 498.823 234.941 498.381C234.499 497.939 234.251 497.341 234.251 496.716" fill="black"/>
<path opacity="0.2" d="M234.251 496.716C234.251 496.092 234.499 495.493 234.941 495.051C235.383 494.61 235.982 494.361 236.606 494.361C237.231 494.361 237.829 494.61 238.271 495.051C238.713 495.493 238.961 496.092 238.961 496.716" fill="black"/>
<path d="M236.214 495.931C236.43 495.931 236.606 495.755 236.606 495.539C236.606 495.322 236.43 495.146 236.214 495.146C235.997 495.146 235.821 495.322 235.821 495.539C235.821 495.755 235.997 495.931 236.214 495.931Z" fill="#FF7518"/>
<path d="M236.214 498.286C236.43 498.286 236.606 498.11 236.606 497.893C236.606 497.677 236.43 497.501 236.214 497.501C235.997 497.501 235.821 497.677 235.821 497.893C235.821 498.11 235.997 498.286 236.214 498.286Z" fill="#FF7518"/>
<path d="M237.783 496.716C238 496.716 238.176 496.54 238.176 496.324C238.176 496.107 238 495.931 237.783 495.931C237.567 495.931 237.391 496.107 237.391 496.324C237.391 496.54 237.567 496.716 237.783 496.716Z" fill="#FF7518"/>
<path d="M242.885 500.641C244.619 500.641 246.025 499.411 246.025 497.893C246.025 496.376 244.619 495.146 242.885 495.146C241.151 495.146 239.746 496.376 239.746 497.893C239.746 499.411 241.151 500.641 242.885 500.641Z" fill="#FF7518"/>
<path opacity="0.2" d="M245.24 498.286C245.24 498.595 245.189 498.901 245.091 499.187C244.992 499.473 244.847 499.732 244.665 499.951C244.483 500.17 244.267 500.343 244.029 500.461C243.791 500.58 243.535 500.641 243.278 500.641C243.02 500.641 242.765 500.58 242.527 500.461C242.289 500.343 242.072 500.17 241.89 499.951C241.708 499.732 241.563 499.473 241.465 499.187C241.366 498.901 241.315 498.595 241.315 498.286" fill="black"/>
<path opacity="0.2" d="M241.315 497.501C241.315 497.295 241.366 497.091 241.465 496.9C241.563 496.71 241.708 496.537 241.89 496.391C242.072 496.245 242.289 496.13 242.527 496.051C242.765 495.972 243.02 495.931 243.278 495.931C243.535 495.931 243.791 495.972 244.029 496.051C244.267 496.13 244.483 496.245 244.665 496.391C244.847 496.537 244.992 496.71 245.091 496.9C245.189 497.091 245.24 497.295 245.24 497.501" fill="black"/>
<path d="M247.987 504.565C249.504 504.565 250.734 503.159 250.734 501.425C250.734 499.692 249.504 498.286 247.987 498.286C246.47 498.286 245.24 499.692 245.24 501.425C245.24 503.159 246.47 504.565 247.987 504.565Z" fill="#FF6584"/>
<path opacity="0.2" d="M249.949 501.425C249.949 502.05 249.701 502.649 249.26 503.09C248.818 503.532 248.219 503.78 247.595 503.78C246.97 503.78 246.371 503.532 245.93 503.09C245.488 502.649 245.24 502.05 245.24 501.425" fill="black"/>
<path opacity="0.2" d="M245.24 500.641C245.24 500.224 245.488 499.825 245.93 499.531C246.371 499.236 246.97 499.071 247.595 499.071C248.219 499.071 248.818 499.236 249.26 499.531C249.701 499.825 249.949 500.224 249.949 500.641" fill="black"/>
<path d="M247.987 502.995C248.204 502.995 248.379 502.82 248.379 502.603C248.379 502.386 248.204 502.21 247.987 502.21C247.77 502.21 247.595 502.386 247.595 502.603C247.595 502.82 247.77 502.995 247.987 502.995Z" fill="#FF6584"/>
<path d="M209.135 490.437C209.568 490.437 209.92 490.085 209.92 489.652C209.92 489.218 209.568 488.867 209.135 488.867C208.701 488.867 208.35 489.218 208.35 489.652C208.35 490.085 208.701 490.437 209.135 490.437Z" fill="#3F3D56"/>
<path d="M230.388 518.693L211.489 513.506L212.213 510.844L231.112 516.032L230.388 518.693Z" fill="#F9A825"/>
<path d="M227.972 517.712C221.49 519.02 214.832 519.02 208.35 517.712V514.769C214.846 515.904 221.476 515.904 227.972 514.769V517.712Z" fill="#F9A825"/>
<path d="M230.327 509.667C223.586 511.237 216.661 511.237 209.92 509.667V506.135C216.676 507.497 223.571 507.497 230.327 506.135V509.667Z" fill="#F9A825"/>
<path d="M236.606 513.003C230.124 514.311 223.466 514.311 216.984 513.003V510.059C223.48 511.194 230.11 511.194 236.606 510.059V513.003Z" fill="#F9A825"/>
<path d="M238.961 516.142C232.22 517.45 225.295 517.45 218.553 516.142V513.199C225.31 514.334 232.204 514.334 238.961 513.199V516.142Z" fill="#F9A825"/>
<path d="M244.455 520.003L224.51 523.402L224.048 520.523L243.992 517.123L244.455 520.003Z" fill="#F9A825"/>
<path d="M241.315 520.477C235.988 524.394 229.984 527.251 223.618 528.897L222.478 526.328C228.788 524.526 234.766 521.681 240.175 517.908L241.315 520.477Z" fill="#F9A825"/>
<path d="M239.746 511.843C234.418 515.76 228.414 518.617 222.048 520.263L220.908 517.694C227.218 515.892 233.197 513.048 238.606 509.274L239.746 511.843Z" fill="#F9A825"/>
<path d="M247.595 511.843C242.045 515.76 235.791 518.617 229.16 520.263L227.972 517.694C234.545 515.892 240.773 513.048 246.407 509.274L247.595 511.843Z" fill="#F9A825"/>
<path d="M250.734 514.198C245.185 518.115 238.93 520.972 232.299 522.618L231.112 520.049C237.685 518.247 243.912 515.402 249.547 511.629L250.734 514.198Z" fill="#F9A825"/>
<path d="M226.402 508.489H225.618V509.274H226.402V508.489Z" fill="#00BF71"/>
<path d="M229.542 524.972H227.972V525.757H229.542V524.972Z" fill="#00BF71"/>
<path d="M213.844 508.489H213.059V509.274H213.844V508.489Z" fill="#00BF71"/>
<path d="M235.821 520.263H235.036V521.048H235.821V520.263Z" fill="#00BF71"/>
<path d="M236.606 514.769H235.821V516.338H236.606V514.769Z" fill="#00BF71"/>
<path d="M221.221 512.46L220.129 511.719L219.705 512.343L220.797 513.084L221.221 512.46Z" fill="#00BF71"/>
<path d="M232.344 514.534L231.252 513.793L230.828 514.417L231.92 515.158L232.344 514.534Z" fill="#00BF71"/>
<path d="M218.77 518.116L217.678 517.375L217.254 517.999L218.347 518.74L218.77 518.116Z" fill="#00BF71"/>
<path d="M225.683 518.061L226.424 516.969L225.8 516.546L225.059 517.638L225.683 518.061Z" fill="#00BF71"/>
<path d="M230.774 519.381L231.515 518.289L230.89 517.866L230.15 518.958L230.774 519.381Z" fill="#00BF71"/>
<path d="M244.349 514.856L245.09 513.764L244.466 513.341L243.725 514.433L244.349 514.856Z" fill="#00BF71"/>
</svg>
