<svg width="812" height="746" viewBox="0 0 812 746" fill="none" xmlns="http://www.w3.org/2000/svg">
<path d="M409 746C615.002 746 782 579.002 782 373C782 166.998 615.002 0 409 0C202.998 0 36 166.998 36 373C36 579.002 202.998 746 409 746Z" fill="#E6E6E6"/>
<path d="M399.611 213.184H396.253V121.224C396.253 107.108 390.643 93.5704 380.657 83.589C370.672 73.6075 357.128 68 343.007 68H148.097C141.104 68 134.18 69.3766 127.72 72.0514C121.26 74.7261 115.39 78.6465 110.446 83.5888C105.502 88.5311 101.58 94.3984 98.9037 100.856C96.2278 107.313 94.8506 114.234 94.8506 121.224V625.723C94.8505 632.713 96.2278 639.634 98.9036 646.091C101.579 652.548 105.502 658.416 110.446 663.358C115.39 668.3 121.26 672.221 127.72 674.896C134.18 677.57 141.104 678.947 148.096 678.947H343.006C349.999 678.947 356.923 677.57 363.383 674.896C369.843 672.221 375.713 668.301 380.657 663.358C385.601 658.416 389.523 652.549 392.199 646.091C394.875 639.634 396.252 632.713 396.252 625.723V278.642H399.611V213.184Z" fill="#3F3D56"/>
<path d="M344.754 83.1058H319.312C320.482 85.9732 320.928 89.0841 320.612 92.1646C320.296 95.2451 319.227 98.2007 317.499 100.771C315.771 103.341 313.437 105.447 310.703 106.903C307.969 108.359 304.919 109.121 301.821 109.121H190.159C187.061 109.121 184.011 108.359 181.277 106.903C178.543 105.447 176.209 103.341 174.481 100.771C172.753 98.2007 171.684 95.2451 171.368 92.1646C171.052 89.0841 171.498 85.9732 172.668 83.1058H148.905C138.359 83.1058 128.245 87.2934 120.788 94.7474C113.331 102.201 109.142 112.311 109.142 122.853V626.612C109.142 631.831 110.17 637 112.169 641.822C114.167 646.645 117.096 651.026 120.788 654.717C124.481 658.408 128.864 661.336 133.688 663.333C138.513 665.331 143.683 666.359 148.905 666.359H344.754C355.3 666.359 365.414 662.171 372.871 654.717C380.328 647.263 384.517 637.153 384.517 626.612V122.853C384.517 117.633 383.489 112.465 381.491 107.642C379.492 102.82 376.563 98.4383 372.871 94.7475C369.179 91.0566 364.795 88.1289 359.971 86.1314C355.147 84.1339 349.976 83.1058 344.754 83.1058H344.754ZM340.48 316.803C340.472 319.531 339.384 322.145 337.454 324.074C335.524 326.003 332.909 327.09 330.18 327.098H280.399C277.67 327.09 275.055 326.003 273.125 324.074C271.195 322.145 270.107 319.531 270.099 316.803V314.229C270.107 311.501 271.195 308.887 273.125 306.958C275.055 305.029 277.67 303.942 280.399 303.934H330.18C332.909 303.942 335.524 305.029 337.454 306.958C339.384 308.887 340.472 311.501 340.48 314.229V316.803ZM346.058 271.332C346.05 274.06 344.963 276.674 343.033 278.603C341.103 280.532 338.488 281.619 335.759 281.627H157.233C154.504 281.619 151.889 280.532 149.959 278.603C148.03 276.674 146.942 274.06 146.934 271.332V268.758C146.942 266.03 148.03 263.416 149.959 261.487C151.889 259.558 154.504 258.471 157.233 258.463H335.759C338.488 258.471 341.103 259.558 343.033 261.487C344.963 263.416 346.05 266.03 346.058 268.758V271.332ZM346.058 225.861C346.05 228.589 344.963 231.203 343.033 233.132C341.103 235.061 338.488 236.148 335.759 236.156H157.233C154.504 236.148 151.889 235.061 149.959 233.132C148.03 231.203 146.942 228.589 146.934 225.861V223.287C146.942 220.559 148.03 217.945 149.959 216.016C151.889 214.087 154.504 213 157.233 212.992H335.759C338.488 213 341.103 214.087 343.033 216.016C344.963 217.945 346.05 220.559 346.058 223.287V225.861ZM346.058 180.39C346.05 183.118 344.963 185.732 343.033 187.661C341.103 189.59 338.488 190.678 335.759 190.686H157.233C154.504 190.678 151.889 189.59 149.959 187.661C148.03 185.732 146.942 183.118 146.934 180.39V177.816C146.942 175.088 148.03 172.474 149.959 170.545C151.889 168.616 154.504 167.529 157.233 167.521H335.759C338.488 167.529 341.103 168.616 343.033 170.545C344.963 172.474 346.05 175.088 346.058 177.816V180.39Z" fill="white"/>
<path d="M161.096 276.48C164.414 276.48 167.104 273.791 167.104 270.474C167.104 267.157 164.414 264.469 161.096 264.469C157.778 264.469 155.088 267.157 155.088 270.474C155.088 273.791 157.778 276.48 161.096 276.48Z" fill="white"/>
<path d="M180.837 276.48C184.155 276.48 186.845 273.791 186.845 270.474C186.845 267.157 184.155 264.469 180.837 264.469C177.518 264.469 174.829 267.157 174.829 270.474C174.829 273.791 177.518 276.48 180.837 276.48Z" fill="white"/>
<path d="M200.577 276.48C203.896 276.48 206.585 273.791 206.585 270.474C206.585 267.157 203.896 264.469 200.577 264.469C197.259 264.469 194.569 267.157 194.569 270.474C194.569 273.791 197.259 276.48 200.577 276.48Z" fill="white"/>
<path d="M220.318 276.48C223.636 276.48 226.326 273.791 226.326 270.474C226.326 267.157 223.636 264.469 220.318 264.469C217 264.469 214.31 267.157 214.31 270.474C214.31 273.791 217 276.48 220.318 276.48Z" fill="white"/>
<path d="M284.69 321.951C288.008 321.951 290.698 319.262 290.698 315.945C290.698 312.628 288.008 309.939 284.69 309.939C281.372 309.939 278.682 312.628 278.682 315.945C278.682 319.262 281.372 321.951 284.69 321.951Z" fill="white"/>
<path d="M304.431 321.951C307.749 321.951 310.439 319.262 310.439 315.945C310.439 312.628 307.749 309.939 304.431 309.939C301.113 309.939 298.423 312.628 298.423 315.945C298.423 319.262 301.113 321.951 304.431 321.951Z" fill="white"/>
<path d="M324.172 321.951C327.49 321.951 330.18 319.262 330.18 315.945C330.18 312.628 327.49 309.939 324.172 309.939C320.854 309.939 318.164 312.628 318.164 315.945C318.164 319.262 320.854 321.951 324.172 321.951Z" fill="white"/>
<path d="M347.44 393.758H143.836C139.053 393.758 134.465 395.658 131.083 399.039C127.701 402.42 125.8 407.005 125.8 411.787V510.945C125.8 515.727 127.701 520.312 131.083 523.693C134.465 527.074 139.053 528.974 143.836 528.974H347.44C352.223 528.974 356.81 527.074 360.193 523.693C363.575 520.312 365.475 515.727 365.475 510.945V411.787C365.475 407.005 363.575 402.42 360.193 399.039C356.81 395.658 352.223 393.758 347.44 393.758H347.44ZM138.799 406.056C139.201 405.984 148.735 404.362 156.629 409.11C164.523 413.858 167.556 423.038 167.681 423.426L168 424.416L166.976 424.598C165.514 424.826 164.037 424.934 162.558 424.922C157.865 425.012 153.234 423.845 149.145 421.543C141.251 416.796 138.218 407.616 138.093 407.228L137.774 406.238L138.799 406.056ZM182.996 498.119H146.681C144.033 498.119 141.493 497.067 139.62 495.195C137.747 493.323 136.695 490.784 136.695 488.137C136.695 485.489 137.747 482.95 139.62 481.078C141.493 479.206 144.033 478.154 146.681 478.154H182.996C185.644 478.154 188.184 479.206 190.057 481.078C191.93 482.95 192.982 485.489 192.982 488.137C192.982 490.784 191.93 493.323 190.057 495.195C188.184 497.067 185.644 498.119 182.996 498.119V498.119ZM348.226 496.304C348.218 499.19 347.067 501.955 345.026 503.995C342.984 506.036 340.218 507.186 337.332 507.194H310.096C307.209 507.186 304.443 506.036 302.402 503.995C300.361 501.955 299.21 499.19 299.202 496.304V479.969C299.21 477.084 300.361 474.319 302.402 472.278C304.443 470.238 307.209 469.088 310.096 469.08H337.332C340.218 469.088 342.984 470.238 345.026 472.278C347.067 474.319 348.217 477.084 348.226 479.969L348.226 496.304Z" fill="#FF7518"/>
<path d="M318.877 492.938H307.927C307.145 492.938 306.395 493.248 305.842 493.801C305.289 494.354 304.978 495.103 304.978 495.885C304.978 496.667 305.289 497.416 305.842 497.969C306.395 498.522 307.145 498.832 307.927 498.832H318.877C319.659 498.832 320.409 498.522 320.962 497.969C321.515 497.416 321.826 496.667 321.826 495.885C321.826 495.103 321.515 494.354 320.962 493.801C320.409 493.248 319.659 492.938 318.877 492.938V492.938Z" fill="#3F3D56"/>
<path d="M339.094 492.938H328.143C327.361 492.938 326.612 493.248 326.059 493.801C325.506 494.354 325.195 495.103 325.195 495.885C325.195 496.667 325.506 497.416 326.059 497.969C326.612 498.522 327.361 498.832 328.143 498.832H339.094C339.876 498.832 340.626 498.522 341.179 497.969C341.732 497.416 342.042 496.667 342.042 495.885C342.042 495.103 341.732 494.354 341.179 493.801C340.626 493.248 339.876 492.938 339.094 492.938V492.938Z" fill="#3F3D56"/>
<path d="M318.876 484.619H307.925C307.143 484.619 306.393 484.929 305.84 485.482C305.287 486.035 304.977 486.784 304.977 487.566C304.977 488.348 305.287 489.097 305.84 489.65C306.393 490.203 307.143 490.513 307.925 490.513H318.876C319.658 490.513 320.408 490.203 320.96 489.65C321.513 489.097 321.824 488.348 321.824 487.566C321.824 486.784 321.513 486.035 320.96 485.482C320.408 484.929 319.658 484.619 318.876 484.619V484.619Z" fill="#3F3D56"/>
<path d="M339.093 484.619H328.142C327.36 484.619 326.61 484.929 326.057 485.482C325.504 486.035 325.193 486.784 325.193 487.566C325.193 488.348 325.504 489.097 326.057 489.65C326.61 490.203 327.36 490.513 328.142 490.513H339.092C339.874 490.513 340.624 490.203 341.177 489.65C341.73 489.097 342.041 488.348 342.041 487.566C342.041 486.784 341.73 486.035 341.177 485.482C340.624 484.929 339.874 484.619 339.092 484.619H339.093Z" fill="#3F3D56"/>
<path d="M318.876 476.468H307.925C307.143 476.468 306.393 476.779 305.84 477.331C305.287 477.884 304.977 478.634 304.977 479.415C304.977 480.197 305.287 480.947 305.84 481.499C306.393 482.052 307.143 482.362 307.925 482.362H318.876C319.658 482.362 320.408 482.052 320.96 481.499C321.513 480.947 321.824 480.197 321.824 479.415C321.824 478.634 321.513 477.884 320.96 477.331C320.408 476.779 319.658 476.468 318.876 476.468V476.468Z" fill="#3F3D56"/>
<path d="M339.093 476.468H328.142C327.36 476.468 326.61 476.779 326.057 477.331C325.504 477.884 325.193 478.634 325.193 479.415C325.193 480.197 325.504 480.947 326.057 481.499C326.61 482.052 327.36 482.362 328.142 482.362H339.092C339.874 482.362 340.624 482.052 341.177 481.499C341.73 480.947 342.041 480.197 342.041 479.415C342.041 478.634 341.73 477.884 341.177 477.331C340.624 476.779 339.874 476.468 339.092 476.468H339.093Z" fill="#3F3D56"/>
<path d="M488.458 431.111H461.901V457.657H488.458V431.111Z" fill="#E6E6E6"/>
<path d="M430.602 447.229H474.231V490.84H430.602V447.229ZM472.335 449.125H432.499V488.944H472.335V449.125Z" fill="#3F3D56"/>
<path d="M26.557 212.107H0V238.653H26.557V212.107Z" fill="#E6E6E6"/>
<path d="M57.8563 222.536H14.227V178.924H57.8563V222.536ZM16.1239 220.639H55.9593V180.82H16.1239V220.639Z" fill="#3F3D56"/>
<path d="M619.419 695.07H607.791L602.26 650.238H619.421L619.419 695.07Z" fill="#FFB8B8"/>
<path d="M599.485 691.749H621.911V705.863H585.366C585.366 702.12 586.853 698.53 589.501 695.883C592.149 693.236 595.741 691.749 599.485 691.749V691.749Z" fill="#2F2E41"/>
<path d="M677.276 695.07H665.647L660.116 650.238H677.277L677.276 695.07Z" fill="#FFB8B8"/>
<path d="M657.342 691.749H679.767V705.863H643.222C643.222 702.12 644.71 698.53 647.358 695.883C650.005 693.236 653.597 691.749 657.342 691.749V691.749Z" fill="#2F2E41"/>
<path d="M561.088 534.739C560.251 533.507 559.695 532.106 559.459 530.636C559.222 529.166 559.311 527.662 559.719 526.23C560.127 524.798 560.844 523.473 561.819 522.348C562.795 521.223 564.006 520.325 565.366 519.718L604.894 410.817L624.344 421.427L579.212 525.497C580.08 527.849 580.055 530.438 579.142 532.772C578.229 535.107 576.49 537.026 574.256 538.165C572.022 539.304 569.448 539.584 567.021 538.953C564.594 538.321 562.483 536.822 561.088 534.739V534.739Z" fill="#FFB8B8"/>
<path d="M671.336 555.202C670.044 554.461 668.93 553.446 668.072 552.229C667.215 551.011 666.635 549.621 666.373 548.155C666.112 546.689 666.175 545.184 666.558 543.745C666.942 542.306 667.636 540.969 668.592 539.827L656.347 424.628L678.482 425.639L683.571 538.952C685.383 540.685 686.496 543.023 686.699 545.521C686.903 548.02 686.182 550.506 684.674 552.509C683.166 554.512 680.975 555.893 678.517 556.389C676.059 556.885 673.504 556.463 671.336 555.202V555.202Z" fill="#FFB8B8"/>
<path d="M636.024 390.645C648.89 390.645 659.319 380.22 659.319 367.359C659.319 354.499 648.89 344.074 636.024 344.074C623.159 344.074 612.729 354.499 612.729 367.359C612.729 380.22 623.159 390.645 636.024 390.645Z" fill="#FFB8B8"/>
<path d="M671.187 529.002H600.957L601.041 528.456C601.167 527.639 613.558 446.505 604.419 419.962C603.502 417.354 603.583 414.498 604.646 411.946C605.708 409.393 607.678 407.324 610.176 406.136H610.176C623.238 399.987 648.311 392.416 669.474 410.79C672.588 413.539 675.02 416.973 676.577 420.823C678.134 424.673 678.774 428.832 678.446 432.971L671.187 529.002Z" fill="#CCCCCC"/>
<path d="M614.445 458.496L582.827 452.084L597.648 416.977C598.534 413.576 600.734 410.666 603.765 408.885C606.795 407.104 610.409 406.597 613.813 407.475C617.217 408.354 620.133 410.546 621.922 413.571C623.711 416.596 624.227 420.206 623.356 423.611L614.445 458.496Z" fill="#CCCCCC"/>
<path d="M654.941 470.401L653.04 426.846C651.599 418.658 656.288 410.918 663.499 409.652C670.713 408.392 677.756 414.071 679.204 422.319L686.349 463.017L654.941 470.401Z" fill="#CCCCCC"/>
<path d="M668.851 523.788C680.151 566.808 681.384 621.505 678.335 681.167L663.16 679.271L635.655 565.503L620.479 681.167L603.407 680.219C598.307 617.618 593.341 563.877 601.51 528.528L668.851 523.788Z" fill="#2F2E41"/>
<path d="M651.373 385.355C647.028 389.983 638.957 387.499 638.391 381.177C638.346 380.686 638.349 380.192 638.4 379.702C638.693 376.902 640.311 374.36 639.923 371.403C639.836 370.667 639.561 369.966 639.126 369.366C635.663 364.73 627.534 371.439 624.266 367.243C622.262 364.67 624.617 360.618 623.08 357.743C621.05 353.947 615.038 355.819 611.268 353.741C607.073 351.428 607.324 344.994 610.085 341.081C613.452 336.309 619.357 333.763 625.188 333.396C631.018 333.029 636.809 334.604 642.253 336.725C648.438 339.134 654.571 342.464 658.377 347.9C663.006 354.511 663.451 363.399 661.136 371.13C659.728 375.832 654.922 381.577 651.373 385.355Z" fill="#2F2E41"/>
<path d="M811.052 707H449.687C449.436 707 449.194 706.9 449.016 706.722C448.839 706.545 448.739 706.304 448.739 706.052C448.739 705.801 448.839 705.559 449.016 705.382C449.194 705.204 449.436 705.104 449.687 705.104H811.052C811.303 705.104 811.544 705.204 811.722 705.382C811.9 705.559 812 705.801 812 706.052C812 706.304 811.9 706.545 811.722 706.722C811.544 706.9 811.303 707 811.052 707Z" fill="#3F3D56"/>
</svg>
