<svg width="830" height="614" viewBox="0 0 830 614" fill="none" xmlns="http://www.w3.org/2000/svg">
<path d="M256.269 367.627C284.43 355.669 328.636 353.23 368.872 354.188C495.262 357.176 609.349 386.24 708.029 419.12C743.757 431.027 778.928 443.856 802.12 460.248C849.326 493.616 835.322 539.839 769.683 567.328C747.347 576.682 720.275 583.876 692.477 590.2C643.044 601.505 589.739 610.572 533.643 613.185C493.648 615.023 453.153 613.525 413.393 610.955C302.29 603.752 193.244 587.926 101.84 560.726C61.7481 548.819 23.9636 534.012 7.45907 514.737C-9.04544 495.462 1.50584 471.057 42.4444 459.647C59.3845 454.935 79.6159 452.801 99.4358 450.807C128.605 447.863 158.242 444.954 184.564 438.97C211.757 432.786 243.951 420.827 238.571 407.144C232.771 392.459 228.14 379.569 256.269 367.627Z" fill="#E6E6E6"/>
<path d="M442.38 500C529.755 500 600.587 496.438 600.587 492.045C600.587 487.651 529.755 484.089 442.38 484.089C355.004 484.089 284.172 487.651 284.172 492.045C284.172 496.438 355.004 500 442.38 500Z" fill="#E8DBD1"/>
<path d="M262.511 157.124C305.871 157.124 341.021 121.951 341.021 78.5621C341.021 35.1735 305.871 0 262.511 0C219.15 0 184 35.1735 184 78.5621C184 121.951 219.15 157.124 262.511 157.124Z" fill="#E6E6E6"/>
<path d="M262.511 144.031C298.644 144.031 327.936 114.719 327.936 78.5621C327.936 42.4049 298.644 13.0937 262.511 13.0937C226.377 13.0937 197.085 42.4049 197.085 78.5621C197.085 114.719 226.377 144.031 262.511 144.031Z" fill="#FF7518"/>
<path d="M471 157.124C514.36 157.124 549.511 121.951 549.511 78.5621C549.511 35.1735 514.36 0 471 0C427.64 0 392.489 35.1735 392.489 78.5621C392.489 121.951 427.64 157.124 471 157.124Z" fill="#E6E6E6"/>
<path d="M471 144.031C507.133 144.031 536.426 114.719 536.426 78.5621C536.426 42.4049 507.133 13.0937 471 13.0937C434.866 13.0937 405.574 42.4049 405.574 78.5621C405.574 114.719 434.866 144.031 471 144.031Z" fill="white"/>
<path d="M679.489 157.124C722.85 157.124 758 121.951 758 78.5621C758 35.1735 722.85 0 679.489 0C636.129 0 600.979 35.1735 600.979 78.5621C600.979 121.951 636.129 157.124 679.489 157.124Z" fill="#E6E6E6"/>
<path d="M679.489 144.031C715.623 144.031 744.915 114.719 744.915 78.5621C744.915 42.4049 715.623 13.0937 679.489 13.0937C643.356 13.0937 614.064 42.4049 614.064 78.5621C614.064 114.719 643.356 144.031 679.489 144.031Z" fill="white"/>
<path d="M256.442 105.461L237.382 80.9386L248.466 72.311L257.491 83.9226L287.979 51.7186L298.173 61.3835L256.442 105.461Z" fill="white"/>
<path d="M401.63 94.5819C396.474 82.1208 395.637 70.36 402.905 59.9134C403.035 56.4032 403.867 52.9546 405.353 49.7724C406.839 46.5901 408.949 43.7389 411.557 41.3879C414.165 39.0369 417.219 37.234 420.536 36.0861C423.854 34.9382 427.368 34.4688 430.87 34.7056L435.609 35.026C440.502 35.3439 445.206 37.0337 449.183 39.9018C453.161 42.77 456.251 46.7007 458.101 51.2441C466.938 73.1753 467.216 102.323 465.01 133.565H400.196C404.046 118.954 406.022 105.241 401.63 94.5819Z" fill="#2F2E41"/>
<path d="M317.929 132.814L300.801 125.115C299.095 124.348 297.573 123.223 296.339 121.816C295.105 120.408 294.188 118.752 293.649 116.959C293.111 115.166 292.964 113.279 293.219 111.424C293.473 109.569 294.123 107.791 295.125 106.21C296.232 104.461 297.74 103.001 299.522 101.949C301.304 100.898 303.311 100.286 305.376 100.163C307.442 100.04 309.506 100.411 311.401 101.243C313.295 102.076 314.964 103.348 316.271 104.953L324.183 114.675L361.074 147.415L385.596 131.04L396.71 149.895L356.932 173.939L317.929 132.814Z" fill="#9F616A"/>
<path d="M394.924 155.441L381.402 129.549L434.057 106.08L434.512 111.033C434.932 115.59 434.154 120.178 432.255 124.342C430.357 128.506 427.404 132.101 423.689 134.77L394.924 155.441Z" fill="#FF7518"/>
<path d="M463.159 104.534L409.455 149.007L406.369 144.683L421.184 118.123L427.974 115.034C429.601 108.137 425.447 98.8879 419.949 89.0914L445.875 85.3853C447.126 93.7993 452.825 100.21 463.159 104.534Z" fill="#9F616A"/>
<path d="M527.973 411.523L519.023 424.803L447.727 384.345L457.603 335.548L527.973 411.523Z" fill="#2F2E41"/>
<path d="M433.838 474.836L419.332 468.35L415.628 298.487L401.739 206.143L455.751 195.951L466.862 220.041C494.167 257.515 454.363 372.337 433.838 474.836Z" fill="#2F2E41"/>
<path d="M435.007 472.528L437.984 479.01C438.543 480.228 438.81 481.56 438.765 482.9C438.719 484.24 438.361 485.55 437.72 486.727C437.079 487.904 436.172 488.915 435.071 489.679C433.971 490.444 432.707 490.941 431.381 491.13L392.03 496.755C390.095 497.032 388.125 496.598 386.486 495.534C384.846 494.47 383.647 492.848 383.11 490.967C382.615 489.236 382.712 487.39 383.385 485.72C384.057 484.05 385.267 482.652 386.823 481.747L419.882 465.189L435.007 472.528Z" fill="#2F2E41"/>
<path d="M526.131 409.014L533.241 408.491C534.577 408.393 535.917 408.609 537.155 409.12C538.394 409.632 539.495 410.426 540.373 411.439C541.25 412.451 541.88 413.655 542.21 414.954C542.541 416.253 542.564 417.612 542.277 418.921L533.776 457.778C533.358 459.688 532.263 461.383 530.693 462.548C529.123 463.713 527.185 464.269 525.237 464.115V464.115C523.443 463.972 521.748 463.236 520.42 462.021C519.092 460.806 518.206 459.183 517.904 457.408L513.969 420.625L526.131 409.014Z" fill="#2F2E41"/>
<path d="M429.208 97.739C442.845 97.739 453.9 86.6771 453.9 73.0316C453.9 59.386 442.845 48.3242 429.208 48.3242C415.572 48.3242 404.517 59.386 404.517 73.0316C404.517 86.6771 415.572 97.739 429.208 97.739Z" fill="#9F616A"/>
<path d="M454.517 199.657L400.813 210.775L399.579 174.95C391.802 166.711 409.939 133.717 416.245 118.123L424.27 115.652L410.69 140.359L458.22 101.445L467.48 103.916L469.949 149.007L454.517 199.657Z" fill="#FF7518"/>
<path d="M458.22 221.276L446.574 236.014C445.414 237.483 443.952 238.685 442.287 239.538C440.621 240.392 438.792 240.877 436.923 240.961C435.054 241.046 433.189 240.727 431.454 240.027C429.719 239.326 428.154 238.261 426.867 236.903V236.903C425.443 235.401 424.396 233.582 423.813 231.595C423.23 229.609 423.127 227.512 423.512 225.478C423.898 223.444 424.761 221.531 426.031 219.897C427.301 218.262 428.941 216.953 430.816 216.078L442.171 210.775L482.912 182.98L473.035 155.184L494.023 149.007L507.603 193.48L458.22 221.276Z" fill="#9F616A"/>
<path d="M460.38 128.623H415.646C417.327 120.162 421.833 112.486 434.157 106.982C443.143 89.7967 446.982 74.2086 434.157 63.793C419.507 60.416 413.834 54.2836 415.646 45.8534L441.869 41.5296C463.435 60.7486 463.682 93.5554 460.38 128.623Z" fill="#2F2E41"/>
<path d="M498.961 152.095L470.566 158.89L460.69 102.063L465.6 102.831C470.119 103.537 474.375 105.413 477.946 108.273C481.517 111.132 484.279 114.876 485.958 119.133L498.961 152.095Z" fill="#FF7518"/>
</svg>
