<svg width="950" height="900" viewBox="0 0 950 900" fill="none" xmlns="http://www.w3.org/2000/svg">
<path d="M131.222 450.97C136.197 458.681 164.519 471.926 164.519 471.926C164.519 471.926 164.005 440.638 159.029 432.961C156.595 429.385 152.86 426.903 148.621 426.046C144.382 425.189 139.975 426.024 136.344 428.374C132.713 430.723 130.144 434.401 129.187 438.62C128.229 442.839 128.96 447.265 131.222 450.953V450.97Z" fill="#FF7518"/>
<path d="M177.999 686.994C199.283 686.994 216.538 680.857 216.538 673.286C216.538 665.715 199.283 659.578 177.999 659.578C156.715 659.578 139.46 665.715 139.46 673.286C139.46 680.857 156.715 686.994 177.999 686.994Z" fill="#E8DBD1"/>
<path opacity="0.1" d="M888.845 740.2C910.129 740.2 927.384 734.062 927.384 726.492C927.384 718.921 910.129 712.784 888.845 712.784C867.561 712.784 850.307 718.921 850.307 726.492C850.307 734.062 867.561 740.2 888.845 740.2Z" fill="black"/>
<path d="M813.654 601.103C860.653 507.104 944.153 485.104 1018.15 467.603C1109.4 427.348 1152.65 482.103 1136.65 327.103C1103.15 -196.065 777.654 133.603 777.654 133.603C777.654 133.603 652.653 230.442 531.737 246.297C424.806 260.318 342.002 324.177 289.988 415.104C256.727 473.252 229.153 505.104 242.154 588.603C264.654 733.103 241.659 748.773 210.154 831.103C178.65 913.434 319.653 983.885 388.654 986.603C553.653 993.104 783.152 865.604 783.152 865.604C876.653 810.104 740.154 774.103 813.654 601.103Z" fill="#E6E6E6"/>
<path d="M887.286 728.437C887.286 728.437 897.563 693.447 885.351 667.693C880.15 656.924 878.581 644.758 880.88 633.021C882.016 627.456 883.658 622.008 885.788 616.743" stroke="#535461" stroke-width="2" stroke-miterlimit="10"/>
<path d="M878.183 600.473C878.183 604.757 885.942 617.197 885.942 617.197C885.942 617.197 893.701 604.766 893.701 600.473C893.701 598.414 892.883 596.438 891.427 594.982C889.971 593.525 887.997 592.707 885.938 592.707C883.879 592.707 881.904 593.525 880.448 594.982C878.992 596.438 878.174 598.414 878.174 600.473H878.183Z" fill="#FF7518"/>
<path d="M865.354 624.231C867.683 627.829 880.958 634.049 880.958 634.049C880.958 634.049 880.718 619.39 878.388 615.792C877.835 614.936 877.118 614.198 876.279 613.62C875.44 613.041 874.495 612.634 873.498 612.421C872.502 612.207 871.473 612.193 870.471 612.377C869.469 612.562 868.513 612.942 867.658 613.496C866.802 614.05 866.064 614.767 865.486 615.607C864.908 616.446 864.501 617.391 864.288 618.388C864.074 619.385 864.06 620.414 864.244 621.416C864.429 622.419 864.809 623.375 865.362 624.231H865.354Z" fill="#FF7518"/>
<path d="M865.91 664.815C869.739 666.742 884.332 665.415 884.332 665.415C884.332 665.415 876.727 652.88 872.899 650.953C871.061 650.026 868.931 649.867 866.976 650.511C865.022 651.155 863.403 652.55 862.476 654.388C861.549 656.226 861.391 658.358 862.035 660.313C862.679 662.268 864.073 663.888 865.91 664.815V664.815Z" fill="#FF7518"/>
<path d="M873.25 695.435C876.676 698.005 891.303 699.136 891.303 699.136C891.303 699.136 885.925 685.497 882.482 682.952C880.827 681.727 878.754 681.21 876.718 681.515C874.683 681.819 872.851 682.92 871.627 684.576C870.403 686.231 869.886 688.305 870.19 690.341C870.495 692.378 871.595 694.21 873.25 695.435V695.435Z" fill="#FF7518"/>
<path d="M897.247 634.88C894.172 637.87 879.844 640.963 879.844 640.963C879.844 640.963 883.356 626.733 886.43 623.743C887.906 622.308 889.892 621.518 891.95 621.548C894.009 621.578 895.971 622.424 897.405 623.901C898.839 625.378 899.629 627.365 899.599 629.423C899.569 631.482 898.723 633.445 897.247 634.88V634.88Z" fill="#FF7518"/>
<path d="M905.374 670.786C901.546 672.714 886.953 671.386 886.953 671.386C886.953 671.386 894.557 658.852 898.386 656.967C900.223 656.04 902.354 655.881 904.308 656.525C906.263 657.17 907.881 658.564 908.808 660.403C909.735 662.241 909.894 664.372 909.25 666.327C908.606 668.283 907.211 669.902 905.374 670.829V670.786Z" fill="#FF7518"/>
<path d="M908.483 706.778C905.057 709.348 890.429 710.479 890.429 710.479C890.429 710.479 895.808 696.84 899.251 694.295C900.905 693.071 902.978 692.554 905.014 692.858C907.05 693.163 908.881 694.264 910.106 695.919C911.33 697.574 911.847 699.648 911.542 701.685C911.238 703.721 910.137 705.553 908.483 706.778V706.778Z" fill="#FF7518"/>
<path d="M178.016 673.389C178.016 673.389 200.017 598.75 173.905 543.747C162.943 520.675 159.346 494.784 164.373 469.75C166.797 457.877 170.303 446.251 174.847 435.017" stroke="#535461" stroke-width="2" stroke-miterlimit="10"/>
<path d="M158.601 400.276C158.601 409.426 175.164 435.968 175.164 435.968C175.164 435.968 191.719 409.409 191.719 400.276C191.719 395.882 189.974 391.668 186.867 388.56C183.761 385.453 179.548 383.707 175.156 383.707C170.763 383.707 166.55 385.453 163.444 388.56C160.338 391.668 158.593 395.882 158.593 400.276H158.601Z" fill="#FF7518"/>
<path d="M132.412 537.604C140.582 541.725 171.73 538.88 171.73 538.88C171.73 538.88 155.458 512.133 147.331 508.038C145.389 507.058 143.272 506.47 141.103 506.308C138.934 506.146 136.754 506.414 134.688 507.095C132.622 507.776 130.71 508.857 129.062 510.277C127.413 511.697 126.061 513.428 125.081 515.371C124.102 517.314 123.514 519.431 123.352 521.602C123.191 523.772 123.458 525.952 124.139 528.019C125.513 532.194 128.489 535.65 132.412 537.63V537.604Z" fill="#FF7518"/>
<path d="M148.042 602.948C155.398 608.388 186.58 610.847 186.58 610.847C186.58 610.847 175.104 581.718 167.739 576.303C164.207 573.69 159.782 572.587 155.438 573.238C151.093 573.889 147.185 576.239 144.573 579.773C141.961 583.306 140.859 587.733 141.51 592.079C142.16 596.425 144.51 600.335 148.042 602.948V602.948Z" fill="#FF7518"/>
<path d="M199.298 473.665C192.738 480.039 162.164 486.645 162.164 486.645C162.164 486.645 169.649 456.265 176.209 449.89C179.361 446.823 183.601 445.134 187.998 445.194C192.394 445.254 196.587 447.059 199.653 450.212C202.72 453.364 204.408 457.607 204.348 462.005C204.288 466.403 202.484 470.598 199.332 473.665H199.298Z" fill="#FF7518"/>
<path d="M216.64 550.352C208.47 554.473 177.322 551.629 177.322 551.629C177.322 551.629 193.594 524.881 201.722 520.786C203.664 519.806 205.78 519.218 207.949 519.057C210.119 518.895 212.299 519.162 214.365 519.843C216.431 520.524 218.342 521.605 219.991 523.026C221.639 524.446 222.992 526.177 223.971 528.12C224.951 530.063 225.538 532.18 225.7 534.35C225.862 536.52 225.595 538.701 224.914 540.768C224.233 542.834 223.152 544.747 221.732 546.396C220.313 548.045 218.583 549.398 216.64 550.378V550.352Z" fill="#FF7518"/>
<path d="M223.277 627.168C215.921 632.608 184.739 635.067 184.739 635.067C184.739 635.067 196.215 605.938 203.58 600.523C207.112 597.91 211.537 596.808 215.881 597.458C220.226 598.109 224.134 600.46 226.746 603.993C229.358 607.526 230.46 611.953 229.81 616.299C229.159 620.645 226.809 624.555 223.277 627.168V627.168Z" fill="#FF7518"/>
<path d="M490.016 522.55L442.288 516.364C440.352 516.116 438.862 515.379 438.913 514.737C438.999 514.094 440.626 513.794 442.604 514.077L490.23 520.974C491.54 521.162 492.533 521.659 492.473 522.096C492.413 522.507 491.317 522.721 490.016 522.55Z" fill="#FF7518"/>
<path d="M490.315 523.364L442.442 518.412C440.498 518.215 438.845 518.575 438.785 519.217C438.725 519.86 440.275 520.537 442.211 520.708L490.17 524.992C491.489 525.112 492.568 524.855 492.61 524.418C492.645 523.955 491.626 523.501 490.315 523.364Z" fill="#FF7518"/>
<path d="M562.134 559.39L609.853 553.204C611.789 552.956 613.279 552.219 613.228 551.576C613.142 550.934 611.515 550.634 609.536 550.917L561.911 557.814C560.601 558.002 559.608 558.499 559.668 558.936C559.728 559.347 560.824 559.561 562.134 559.39Z" fill="#FF7518"/>
<path d="M561.826 560.204L609.699 555.252C611.643 555.055 613.296 555.415 613.356 556.057C613.416 556.7 611.866 557.377 609.93 557.548L561.971 561.832C560.652 561.952 559.573 561.695 559.531 561.258C559.496 560.795 560.515 560.341 561.826 560.204Z" fill="#FF7518"/>
<path d="M404.271 610.666H392.633V777.611H404.271V610.666Z" fill="#40414D"/>
<path d="M658.472 610.666H646.833V777.611H658.472V610.666Z" fill="#40414D"/>
<path d="M388.188 597.078H657.102C662.098 597.078 666.891 599.064 670.424 602.599C673.958 606.133 675.943 610.928 675.943 615.926V618.428H369.347V615.926C369.347 610.928 371.332 606.133 374.865 602.599C378.399 599.064 383.191 597.078 388.188 597.078V597.078Z" fill="#DFE6F5"/>
<path opacity="0.1" d="M387.332 597.078H656.245C661.242 597.078 666.034 599.064 669.568 602.599C673.101 606.133 675.086 610.928 675.086 615.926V618.428H368.491V615.926C368.491 610.928 370.476 606.133 374.009 602.599C377.542 599.064 382.335 597.078 387.332 597.078V597.078Z" fill="black"/>
<path d="M388.188 593.188H657.102C662.098 593.188 666.891 595.174 670.424 598.709C673.958 602.244 675.943 607.038 675.943 612.037V614.539H369.347V612.037C369.347 607.038 371.332 602.244 374.865 598.709C378.399 595.174 383.191 593.188 388.188 593.188Z" fill="#DFE6F5"/>
<path d="M522.645 579.601C535.505 579.601 545.931 569.171 545.931 556.306C545.931 543.44 535.505 533.011 522.645 533.011C509.784 533.011 499.359 543.44 499.359 556.306C499.359 569.171 509.784 579.601 522.645 579.601Z" fill="#FFD77C" stroke="#FFAB50" stroke-miterlimit="10"/>
<path d="M522.645 574.768C532.838 574.768 541.1 566.502 541.1 556.306C541.1 546.109 532.838 537.843 522.645 537.843C512.452 537.843 504.189 546.109 504.189 556.306C504.189 566.502 512.452 574.768 522.645 574.768Z" fill="#FFD77C" stroke="#FFAB50" stroke-miterlimit="10"/>
<path d="M522.645 570.373C530.411 570.373 536.707 564.075 536.707 556.306C536.707 548.536 530.411 542.238 522.645 542.238C514.878 542.238 508.583 548.536 508.583 556.306C508.583 564.075 514.878 570.373 522.645 570.373Z" fill="#FFD77C" stroke="#FFAB50" stroke-miterlimit="10"/>
<path d="M522.645 564.213C527.01 564.213 530.549 560.673 530.549 556.306C530.549 551.938 527.01 548.398 522.645 548.398C518.279 548.398 514.74 551.938 514.74 556.306C514.74 560.673 518.279 564.213 522.645 564.213Z" fill="#FFD77C" stroke="#FFAB50" stroke-miterlimit="10"/>
<path d="M509.062 592.22C521.923 592.22 532.348 581.791 532.348 568.926C532.348 556.06 521.923 545.631 509.062 545.631C496.202 545.631 485.776 556.06 485.776 568.926C485.776 581.791 496.202 592.22 509.062 592.22Z" fill="#FFD77C" stroke="#FFAB50" stroke-miterlimit="10"/>
<path d="M509.062 587.388C519.255 587.388 527.518 579.122 527.518 568.926C527.518 558.729 519.255 550.463 509.062 550.463C498.869 550.463 490.606 558.729 490.606 568.926C490.606 579.122 498.869 587.388 509.062 587.388Z" fill="#FFD77C" stroke="#FFAB50" stroke-miterlimit="10"/>
<path d="M509.062 582.993C516.828 582.993 523.124 576.695 523.124 568.926C523.124 561.156 516.828 554.858 509.062 554.858C501.296 554.858 495 561.156 495 568.926C495 576.695 501.296 582.993 509.062 582.993Z" fill="#FFD77C" stroke="#FFAB50" stroke-miterlimit="10"/>
<path d="M509.062 576.833C513.428 576.833 516.967 573.293 516.967 568.926C516.967 564.558 513.428 561.018 509.062 561.018C504.696 561.018 501.157 564.558 501.157 568.926C501.157 573.293 504.696 576.833 509.062 576.833Z" fill="#FFD77C" stroke="#FFAB50" stroke-miterlimit="10"/>
<path d="M536.227 592.22C549.088 592.22 559.513 581.791 559.513 568.926C559.513 556.06 549.088 545.631 536.227 545.631C523.367 545.631 512.942 556.06 512.942 568.926C512.942 581.791 523.367 592.22 536.227 592.22Z" fill="#FFD77C" stroke="#FFAB50" stroke-miterlimit="10"/>
<path d="M536.227 587.388C546.42 587.388 554.683 579.122 554.683 568.926C554.683 558.729 546.42 550.463 536.227 550.463C526.035 550.463 517.772 558.729 517.772 568.926C517.772 579.122 526.035 587.388 536.227 587.388Z" fill="#FFD77C" stroke="#FFAB50" stroke-miterlimit="10"/>
<path d="M536.227 582.993C543.994 582.993 550.29 576.695 550.29 568.926C550.29 561.156 543.994 554.858 536.227 554.858C528.461 554.858 522.165 561.156 522.165 568.926C522.165 576.695 528.461 582.993 536.227 582.993Z" fill="#FFD77C" stroke="#FFAB50" stroke-miterlimit="10"/>
<path d="M536.227 576.833C540.593 576.833 544.132 573.293 544.132 568.926C544.132 564.558 540.593 561.018 536.227 561.018C531.862 561.018 528.323 564.558 528.323 568.926C528.323 573.293 531.862 576.833 536.227 576.833Z" fill="#FFD77C" stroke="#FFAB50" stroke-miterlimit="10"/>
<path d="M474.129 562.14H571.152V566.698C571.152 571.198 570.266 575.655 568.544 579.812C566.823 583.97 564.3 587.748 561.119 590.93C557.938 594.113 554.161 596.637 550.005 598.359C545.849 600.081 541.394 600.968 536.896 600.968H508.386C503.887 600.968 499.432 600.081 495.276 598.359C491.12 596.637 487.344 594.113 484.163 590.93C480.982 587.748 478.458 583.97 476.737 579.812C475.015 575.655 474.129 571.198 474.129 566.698V562.14Z" fill="#FF7518"/>
<path opacity="0.1" d="M562.399 562.132C562.147 572.255 557.95 581.88 550.704 588.951C543.457 596.022 533.736 599.981 523.613 599.982H504.352C507.162 600.624 510.034 600.952 512.916 600.959H532.322C537.421 600.961 542.469 599.959 547.18 598.008C551.891 596.058 556.172 593.199 559.778 589.593C563.384 585.987 566.244 581.706 568.196 576.994C570.147 572.282 571.152 567.232 571.152 562.132H562.399Z" fill="black"/>
<path d="M652.657 749.458V737.815H400.392V749.458H652.657Z" fill="#40414D"/>
<path d="M305.81 697.154H295.627V789.837H305.81V697.154Z" fill="#40414D"/>
<path d="M386.235 697.154H376.053V789.837H386.235V697.154Z" fill="#40414D"/>
<path d="M394.388 681.879C394.388 688.064 373.423 693.085 347.56 693.085C321.696 693.085 301.75 688.073 301.75 681.879C301.75 675.684 321.696 670.672 347.56 670.672C373.423 670.672 394.388 675.719 394.388 681.879Z" fill="#F6C6CD"/>
<path d="M287.482 681.87H394.38V691.208C394.38 693.594 393.432 695.882 391.746 697.569C390.06 699.256 387.772 700.204 385.388 700.204H302.898C298.809 700.204 294.889 698.579 291.998 695.687C289.107 692.795 287.482 688.873 287.482 684.783V681.87Z" fill="#40414D"/>
<path d="M269.329 574.709L271.535 574.211C273.086 573.861 274.712 574.141 276.056 574.991C277.401 575.84 278.352 577.189 278.703 578.741L305.4 697.061L302.059 697.816C299.254 698.449 296.312 697.942 293.881 696.406C291.45 694.869 289.729 692.43 289.095 689.624L264.785 581.883C264.611 581.114 264.591 580.317 264.726 579.54C264.86 578.762 265.147 578.019 265.569 577.353C265.991 576.686 266.54 576.11 267.186 575.656C267.831 575.202 268.559 574.881 269.329 574.709Z" fill="#40414D"/>
<path d="M741.184 791.482H751.367V698.799H741.184V791.482Z" fill="#40414D"/>
<path d="M660.758 791.482H670.941V698.799H660.758V791.482Z" fill="#40414D"/>
<path d="M652.623 683.523C652.623 689.709 673.588 694.73 699.451 694.73C725.315 694.73 745.261 689.718 745.261 683.523C745.261 677.329 725.306 672.292 699.451 672.292C673.596 672.292 652.623 677.338 652.623 683.523Z" fill="#F6C6CD"/>
<path d="M744.096 701.858H661.606C659.221 701.858 656.934 700.91 655.248 699.223C653.561 697.536 652.614 695.248 652.614 692.862V683.523H759.511V686.436C759.511 690.526 757.887 694.449 754.996 697.341C752.105 700.233 748.184 701.858 744.096 701.858Z" fill="#40414D"/>
<path d="M744.95 699.46L741.609 698.706L768.31 580.368C768.66 578.817 769.612 577.468 770.956 576.618C772.301 575.769 773.927 575.488 775.478 575.839L777.683 576.337C779.234 576.687 780.583 577.639 781.432 578.984C782.281 580.328 782.561 581.956 782.211 583.507L757.897 691.264C757.264 694.068 755.546 696.505 753.118 698.042C750.691 699.578 747.753 700.088 744.95 699.46V699.46Z" fill="#40414D"/>
<path d="M748.575 647.446L751.581 646.495C751.581 646.495 746.443 612.157 746.494 581.383C746.494 580.526 746.494 579.609 746.494 578.727C746.554 576.808 746.622 574.906 746.717 573.046C746.837 570.665 746.862 568.394 746.845 566.193C747.128 536.558 735.455 524.041 735.455 524.041C735.455 524.041 721.752 504.49 713.539 500.686C712.828 498.458 712.015 495.597 711.295 492.273C711.561 492.093 711.818 491.913 712.066 491.724C715.458 489.207 718.704 486.499 721.786 483.611C726 479.662 730.042 474.847 729.82 469.415C729.843 468.886 729.826 468.356 729.768 467.83C728.989 461.276 722.18 456.341 719.431 450.13C717.119 444.912 717.813 439.103 715.792 433.809C713.77 428.514 706.714 423.588 701.387 426.372C699.426 427.4 698.244 429.217 696.608 430.596C692.549 434.023 686.006 434.34 680.456 432.781C674.906 431.221 673.262 424.864 665.503 424.847C666.192 425.078 666.85 425.392 667.464 425.781C666.816 425.672 666.16 425.614 665.503 425.61C667.081 426.109 668.481 427.056 669.533 428.334C670.585 429.613 671.243 431.169 671.429 432.815C671.417 433.022 671.394 433.227 671.361 433.432C668.261 435.102 664.184 434.151 660.467 434.091C656.75 434.031 652.52 435.908 652.888 438.949C652.826 439.295 652.826 439.649 652.888 439.994C653.376 442.299 656.459 444.038 656.836 446.171C656.836 446.231 656.836 446.283 656.836 446.343C649.958 449.781 642.517 451.952 634.869 452.751C634.621 452.751 634.732 453.051 635.092 453.488H634.869C633.473 453.634 643.236 461.353 644.35 461.858C648.426 463.709 653.299 465.071 657.615 466.493L657.992 466.613C656.538 469.993 655.789 473.634 655.791 477.314C655.791 490.508 665.272 501.594 678.109 504.73C680.507 507.531 683.025 510.607 685.32 513.666H685.158C685.158 513.666 670.402 533.302 670.873 562.628C670.831 566.304 671.025 569.979 671.455 573.629C661.966 573.089 641.575 570.588 626.065 559.227C605.143 543.917 581.806 548.509 586.67 557.694C591.535 566.878 616.448 574.529 620.464 575.3C620.841 575.368 621.715 575.574 622.965 575.882C618.015 576.816 614.624 578.453 614.829 580.654C615.232 584.861 636.556 598.26 649.428 599.023C657.932 599.528 668.166 602.15 676.242 604.455C677.022 622.061 672.765 627.338 672.765 627.338C672.765 627.338 674.033 628.118 676.131 629.223L675.232 631.793C670.008 634.809 663.568 637.953 657.71 639.221C650.245 640.756 642.989 643.171 636.094 646.418L607.121 660.426C604.534 661.627 602.295 663.468 600.617 665.775C598.939 668.082 597.876 670.779 597.53 673.611C596.896 679.548 598.686 686.968 608.38 692.853C608.98 697.677 611.926 703.306 619.659 708.463C634.646 718.436 674.033 748.31 679.394 752.388C679.497 759.679 678.538 774.304 669.545 776.583C658.275 779.444 667.344 790.291 676.457 789.862C678.619 790.681 680.972 790.853 683.231 790.359C692.891 788.063 728.295 775.795 730.71 757.443C730.811 756.648 730.856 755.846 730.847 755.044C730.988 751.916 730.208 748.815 728.603 746.126C728.981 746.955 729.288 747.815 729.52 748.696C726.591 742.013 719.457 737.815 713.907 735.451C713.907 735.391 713.907 735.322 713.907 735.262C713.051 734.928 712.195 734.654 711.492 734.405C711.507 733.909 711.469 733.412 711.381 732.923L655.86 694.653C655.86 694.653 680.002 674.75 704.949 677.818C729.897 680.885 733.87 676.353 733.87 676.353C733.87 676.353 746.665 664.178 747.95 650.162L748.755 649.948C748.755 649.948 748.695 649.065 748.575 647.446Z" fill="url(#paint0_linear)"/>
<path d="M680.773 747.128C680.773 747.128 683.042 772.119 671.686 775.152C660.33 778.185 670.933 790.299 680.011 788.003C689.089 785.707 722.412 773.61 724.681 755.447C726.951 737.284 701.969 731.21 701.969 731.21L680.773 747.128Z" fill="#B8616E"/>
<path opacity="0.05" d="M680.773 747.128C680.773 747.128 683.042 772.119 671.686 775.152C660.33 778.185 670.933 790.299 680.011 788.003C689.089 785.707 722.412 773.61 724.681 755.447C726.951 737.284 701.969 731.21 701.969 731.21L680.773 747.128Z" fill="black"/>
<path d="M685.337 747.882C685.337 747.882 687.607 772.873 676.251 775.906C664.895 778.939 675.497 791.053 684.575 788.757C693.653 786.461 726.976 774.364 729.246 756.201C731.515 738.038 706.534 731.964 706.534 731.964L685.337 747.882Z" fill="#B8616E"/>
<path opacity="0.1" d="M708.803 732.735L687.624 748.644C687.624 748.644 687.718 749.724 687.778 751.446C695.777 749.253 713.205 743.427 713.471 734.311C711.948 733.693 710.389 733.166 708.803 732.735V732.735Z" fill="black"/>
<path d="M695.555 514.976H686.468V521.796H695.555V514.976Z" fill="#F8BDC5"/>
<path d="M686.853 625.171C686.853 625.171 672.423 636.514 660.57 639.204C653.523 640.73 646.691 643.121 640.23 646.324L612.971 660.186C610.495 661.432 608.371 663.279 606.794 665.559C605.217 667.838 604.237 670.477 603.944 673.234C603.165 680.945 606.265 691.089 624.763 697.12L683.059 745.595L701.232 730.447L639.151 682.744L686.853 653.203V625.171Z" fill="#758AC8"/>
<path opacity="0.1" d="M686.853 625.171C686.853 625.171 672.423 636.514 660.57 639.204C653.523 640.73 646.691 643.121 640.23 646.324L612.971 660.186C610.495 661.432 608.371 663.279 606.794 665.559C605.217 667.838 604.237 670.477 603.944 673.234C603.165 680.945 606.265 691.089 624.763 697.12L683.059 745.595L701.232 730.447L639.151 682.744L686.853 653.203V625.171Z" fill="black"/>
<path d="M678.52 574.434C678.52 574.434 650.507 575.188 630.818 560.041C611.129 544.894 589.18 549.435 593.719 558.525C598.258 567.615 621.732 575.188 625.517 575.942C629.302 576.696 683.813 591.852 683.813 591.852L678.52 574.434Z" fill="#F8BDC5"/>
<path opacity="0.05" d="M678.52 574.434C678.52 574.434 650.507 575.188 630.818 560.041C611.129 544.894 589.18 549.435 593.719 558.525C598.258 567.615 621.732 575.188 625.517 575.942C629.302 576.696 683.813 591.852 683.813 591.852L678.52 574.434Z" fill="black"/>
<path d="M681.552 618.368L672.466 645.638C672.466 645.638 621.363 677.072 617.193 681.236C613.956 684.474 609.622 697.146 624.763 707.744C639.905 718.341 681.544 751.677 681.544 751.677C681.544 751.677 713.342 744.823 711.073 731.972L658.832 694.104C658.832 694.104 681.544 674.399 705.018 677.441C728.492 680.482 732.277 675.924 732.277 675.924C732.277 675.924 750.451 657.727 744.387 640.335C738.324 622.943 681.552 618.368 681.552 618.368Z" fill="#758AC8"/>
<path d="M670.196 494.946C670.196 494.946 695.94 522.97 694.424 531.297C692.908 539.625 714.867 507.06 714.867 507.06C714.867 507.06 708.015 490.396 709.565 472.216L670.196 494.946Z" fill="#F8BDC5"/>
<path opacity="0.1" d="M692.66 520.648C694.416 518.793 696.265 517.029 698.201 515.362C702.075 512.184 705.629 508.634 708.812 504.764C714.113 497.91 733.793 527.485 733.793 527.485C733.793 527.485 745.903 541.116 744.396 573.689C742.888 606.262 746.288 649.811 746.288 649.811L741.707 651.087C737.847 652.376 733.741 652.748 729.713 652.176C725.685 651.603 721.846 650.101 718.498 647.789C712.452 643.608 704.795 639.221 698.972 638.827C687.616 638.073 677.39 631.631 677.39 631.631C677.39 631.631 682.314 619.893 674.744 582.017C667.173 544.14 686.468 517.221 686.468 517.221C686.468 517.221 687.992 525.463 692.66 520.648Z" fill="black"/>
<path d="M748.935 646.392L744.396 647.909L741.698 648.808C737.839 650.097 733.733 650.47 729.705 649.898C725.677 649.325 721.837 647.823 718.489 645.51C712.452 641.337 704.787 636.942 698.963 636.548C687.624 635.786 674.778 627.458 674.778 627.458C674.778 627.458 682.349 617.614 674.778 579.738C667.207 541.861 686.511 514.976 686.511 514.976C686.511 514.976 688.035 523.175 692.703 518.352C694.455 516.499 696.302 514.738 698.235 513.074C702.109 509.896 705.663 506.347 708.846 502.477C714.147 495.623 733.828 525.197 733.828 525.197C733.828 525.197 745.937 538.828 744.43 571.401C744.267 574.828 744.199 578.358 744.19 581.931C744.079 612.414 748.935 646.392 748.935 646.392Z" fill="#5E52AD"/>
<path opacity="0.1" d="M705.78 572.164L706.534 588.828C706.534 588.828 666.402 591.098 658.078 582.77C649.754 574.443 680.773 607.265 687.624 609.278C694.056 611.171 710.662 612.842 719.371 613.013C721.859 613.094 724.317 612.449 726.446 611.157C728.574 609.866 730.282 607.984 731.361 605.74C732.376 603.531 732.705 601.069 732.303 598.672C730.787 588.828 732.303 567.615 732.303 567.615L705.78 572.164Z" fill="black"/>
<path d="M705.78 570.648L706.534 587.311C706.534 587.311 666.402 589.582 658.078 581.254C649.754 572.927 619.633 574.769 620.224 581.254C620.601 585.418 640.667 598.672 652.768 599.434C664.869 600.197 680.773 605.748 687.624 607.762C694.056 609.655 710.662 611.326 719.371 611.497C721.859 611.577 724.317 610.932 726.446 609.641C728.574 608.35 730.282 606.468 731.361 604.223C732.376 602.015 732.704 599.552 732.303 597.155C730.787 587.311 732.303 566.098 732.303 566.098L705.78 570.648Z" fill="#F8BDC5"/>
<path opacity="0.1" d="M714.867 522.173C714.867 522.173 697.456 524.443 699.725 550.197C701.995 575.951 705.026 578.221 705.026 578.221C705.026 578.221 730.77 575.951 733.793 575.188C736.816 574.426 735.309 546.41 735.309 546.41C735.309 546.41 734.547 521.419 714.867 522.173Z" fill="black"/>
<path d="M714.867 521.419C714.867 521.419 697.456 523.69 699.725 549.443C701.995 575.197 705.026 577.467 705.026 577.467C705.026 577.467 730.77 575.197 733.793 574.434C736.816 573.672 735.309 545.656 735.309 545.656C735.309 545.656 734.547 520.648 714.867 521.419Z" fill="#5E52AD"/>
<path opacity="0.1" d="M708.426 488.469C707.236 482.472 709.677 480.621 710.319 472.945L670.924 495.665C670.924 495.665 675.437 500.583 680.567 506.897C682.86 507.477 685.217 507.765 687.581 507.754C697.901 507.797 703.545 496.711 708.426 488.469Z" fill="black"/>
<path d="M686.845 507.026C702.316 507.026 714.858 494.479 714.858 479.002C714.858 463.525 702.316 450.978 686.845 450.978C671.373 450.978 658.832 463.525 658.832 479.002C658.832 494.479 671.373 507.026 686.845 507.026Z" fill="#F8BDC5"/>
<path opacity="0.1" d="M693.91 470.494C689.628 473.219 689.568 479.379 692.326 483.645C695.083 487.912 699.836 490.731 704.41 493.386C705.737 494.158 707.202 494.954 708.692 494.783C709.837 494.56 710.899 494.023 711.758 493.232C714.958 490.734 718.012 488.054 720.904 485.205C725.066 481.109 729.066 476.063 728.415 470.349C727.678 463.863 721.273 458.98 718.686 452.837C716.511 447.696 717.162 441.931 715.261 436.679C713.359 431.427 706.696 426.569 701.712 429.319C699.871 430.33 698.757 432.138 697.216 433.5C693.396 436.876 687.239 437.21 682.015 435.668C676.79 434.126 675.24 427.829 667.952 427.811C671.575 429.088 674.024 432.866 673.468 436.31C670.547 437.964 666.71 437.021 663.191 436.961C659.671 436.901 655.483 438.872 656.091 442.042C656.622 444.612 660.33 446.523 659.782 449.093C653.349 452.483 646.336 454.634 639.108 455.433C637.798 455.578 646.979 463.212 648.024 463.717C651.852 465.551 656.451 466.896 660.502 468.301C671.506 472.096 682.777 473.45 693.91 470.494Z" fill="black"/>
<path d="M693.91 469.732C689.628 472.456 689.568 478.616 692.326 482.883C695.083 487.149 699.836 489.968 704.41 492.624C705.737 493.395 707.202 494.192 708.692 494.021C709.837 493.797 710.899 493.26 711.758 492.47C714.958 489.972 718.012 487.291 720.904 484.442C725.066 480.347 729.066 475.301 728.415 469.586C727.678 463.101 721.273 458.217 718.686 452.074C716.511 446.934 717.162 441.168 715.261 435.916C713.359 430.664 706.696 425.807 701.712 428.557C699.871 429.568 698.757 431.376 697.216 432.738C693.396 436.113 687.239 436.447 682.015 434.905C676.79 433.363 675.24 427.066 667.952 427.049C671.575 428.325 674.024 432.104 673.468 435.548C670.547 437.201 666.71 436.259 663.191 436.199C659.671 436.139 655.483 438.109 656.091 441.279C656.622 443.85 660.33 445.76 659.782 448.33C653.349 451.721 646.336 453.871 639.108 454.67C637.798 454.816 646.979 462.45 648.024 462.955C651.852 464.788 656.451 466.134 660.502 467.539C671.506 471.343 682.777 472.671 693.91 469.732Z" fill="#916168"/>
<path opacity="0.1" d="M727.267 745.02C728.483 747.825 728.907 750.91 728.492 753.939C726.223 772.119 692.908 784.234 683.822 786.495C679.034 787.695 673.819 784.893 671.635 781.526C673.039 785.484 679.086 789.383 684.584 788.012C693.67 785.741 726.985 773.618 729.254 755.456C729.75 751.853 729.052 748.188 727.267 745.02Z" fill="white"/>
<path d="M486.658 765.677C485.982 764.152 482.47 761.179 465.539 760.536C453.943 760.099 449.995 753.973 448.925 747.993C452.736 747.496 455.716 746.811 456.692 745.86C456.692 745.86 456.641 745.586 456.555 745.098L456.692 744.995C455.952 740.681 455.565 736.314 455.536 731.938C455.514 728.193 455.91 724.457 456.718 720.8C457.19 718.383 457.388 715.92 457.309 713.458C457.403 698.893 452.29 673.294 452.29 673.294L451.588 652.021C451.518 649.367 450.734 646.781 449.319 644.534C447.904 642.288 445.91 640.464 443.547 639.256C441.865 638.385 440.002 637.921 438.108 637.902C438.108 637.902 411.268 633.67 387.109 631.365C385.396 629.986 379.358 626.267 365.519 628.401L357.554 605.08C357.49 604.798 357.444 604.512 357.417 604.223C357.7 601.259 359.678 596.795 368.902 596.513L370.829 598.226C370.829 598.226 371.171 597.549 371.745 596.513C383.187 596.384 445.516 595.75 448.728 596.513C452.265 597.369 483.25 590.464 484.141 589.607C496.182 577.861 448.728 583.559 448.728 583.559C444.06 584.321 428.979 583.413 413.529 582.154C421.177 570.682 428.371 531.743 428.371 531.743C428.371 531.743 455.776 517.924 447.846 510.153C439.915 502.382 415.979 527.425 415.979 527.425C415.979 527.425 406.241 555.929 401.814 564.565C400.101 567.992 397.883 568.694 395.904 568.3C396.804 567.58 397.386 567.152 397.386 567.152C397.386 567.152 377.911 551.602 376.138 545.562C375.808 544.573 375.372 543.622 374.837 542.726C373.903 537.252 372.267 531.863 368.276 528.273C367.606 527.553 366.866 526.902 366.067 526.328C364.988 525.557 363.763 524.889 362.744 524.049C363.318 521.411 363.986 518.669 364.68 516.013C379.136 514.3 390.372 502.305 390.372 487.741C390.37 485.544 390.108 483.356 389.593 481.221C391.753 481.363 393.914 480.944 395.864 480.004C397.815 479.064 399.49 477.636 400.726 475.858C403.646 471.505 403.552 465.577 401.103 460.984C400.09 459.12 398.763 457.445 397.18 456.032C394.657 453.49 391.579 451.566 388.188 450.412C385.251 449.393 382.005 448.784 379.675 446.788C378.634 445.426 377.687 443.995 376.841 442.505C375.863 441.041 374.713 439.701 373.415 438.512C369.133 434.1 363.087 431.384 356.929 430.185C349.427 428.72 341.676 429.242 334.046 429.765C331.194 429.962 327.845 430.467 326.561 432.952C325.593 434.82 326.227 437.056 326.098 439.138C325.696 445.76 318.125 449.418 311.539 451.021C304.953 452.623 297.1 454.011 293.923 459.819C291.037 465.063 293.066 471.42 293.991 477.305C295.532 487.64 293.238 498.181 287.542 506.94C284.648 511.37 280.914 515.311 278.627 520.065C276.094 525.366 275.506 531.389 276.966 537.08C277.394 538.742 278.011 540.439 277.702 542.135C277.352 543.534 276.664 544.825 275.698 545.896C271.76 550.761 266.859 554.759 261.303 557.638C255.747 560.517 249.655 562.217 243.411 562.628C243.936 564.368 244.96 565.914 246.358 567.075C248.132 568.831 250.202 570.26 252.472 571.299C258.453 574.299 264.742 576.64 271.228 578.281C275.595 579.386 280.16 580.175 284.605 579.421C289.05 578.667 293.383 576.122 295.207 572.095C296.269 569.765 296.423 567.126 297.365 564.753C299.241 560.007 303.891 556.931 307.034 552.862C305.976 563.348 305.476 573.884 305.536 584.424C305.536 587.722 305.536 590.695 305.536 593.454C305.536 605.354 304.679 613.562 297.306 628.426C296.427 629.989 296.042 631.781 296.201 633.567C296.04 634.532 296.134 635.521 296.472 636.439C296.809 637.357 297.38 638.171 298.128 638.801C297.614 641.766 297.364 644.771 297.383 647.78C297.28 658.609 300.937 673.148 320.326 676.832L354.848 675.119C354.848 675.119 403.535 665.618 416.809 672.549C417.905 672.782 418.887 673.383 419.593 674.253C420.299 675.123 420.686 676.209 420.689 677.329C420.648 678.05 420.536 678.764 420.355 679.462C419.985 681.707 419.844 683.983 419.935 686.256C419.875 700.821 423.01 733.874 423.01 733.874V747.891C420.8 751.215 418.077 756.132 418.428 759.756C418.428 759.834 418.428 759.919 418.428 759.996C418.428 760.073 418.428 760.21 418.479 760.313C418.531 760.416 418.479 760.502 418.539 760.596C418.599 760.69 418.591 760.776 418.616 760.87C418.642 760.964 418.685 761.076 418.728 761.17C418.771 761.264 418.788 761.324 418.822 761.401C418.856 761.478 418.933 761.624 418.993 761.727L419.096 761.907C419.199 762.072 419.313 762.229 419.439 762.378C423.866 767.519 445.987 777.465 453.078 777.063C460.606 776.634 485.828 777.919 486.718 766.696C486.831 766.361 486.81 765.996 486.658 765.677V765.677Z" fill="url(#paint1_linear)"/>
<path d="M423.729 743.984C423.729 743.984 413.452 756.835 417.734 761.975C422.016 767.116 443.427 776.943 450.278 776.54C457.557 776.112 481.965 777.397 482.822 766.259C482.822 766.259 484.534 761.119 462.268 760.262C440.001 759.405 446.852 736.273 446.852 736.273L423.729 743.984Z" fill="#594C76"/>
<path opacity="0.1" d="M301.262 636.034C301.262 636.034 290.985 671.161 321.816 677.158L355.216 675.444C355.216 675.444 402.319 666.02 415.165 672.874C415.165 672.874 420.303 673.731 418.591 680.585C416.878 687.439 421.16 733.703 421.16 733.703V749.124C421.16 749.124 450.278 749.124 453.704 745.697C453.704 745.697 451.134 731.989 453.704 720.852C456.273 709.714 449.421 674.588 449.421 674.588L448.745 653.443C448.695 650.831 447.949 648.279 446.586 646.05C445.222 643.821 443.289 641.996 440.986 640.763C439.365 639.904 437.562 639.446 435.727 639.427C435.727 639.427 377.491 630.003 356.938 631.716C336.384 633.43 301.262 636.034 301.262 636.034Z" fill="black"/>
<path d="M301.262 635.178C301.262 635.178 290.985 670.304 321.816 676.301L355.216 674.588C355.216 674.588 402.319 665.164 415.165 672.017C415.165 672.017 420.303 672.874 418.591 679.728C416.878 686.582 421.16 732.846 421.16 732.846V748.268C421.16 748.268 450.278 748.268 453.704 744.841C453.704 744.841 451.134 731.133 453.704 719.995C456.273 708.857 449.421 673.731 449.421 673.731L448.745 652.587C448.695 649.974 447.949 647.422 446.586 645.193C445.222 642.964 443.289 641.14 440.986 639.907C439.365 639.047 437.562 638.589 435.727 638.57C435.727 638.57 377.491 629.146 356.938 630.86C336.384 632.573 301.262 635.178 301.262 635.178Z" fill="#8B9CD1"/>
<path d="M389.473 565.781C389.473 565.781 396.324 574.349 400.606 565.781C404.888 557.214 414.309 528.941 414.309 528.941C414.309 528.941 437.432 504.096 445.139 511.806C452.847 519.517 426.298 533.225 426.298 533.225C426.298 533.225 416.878 585.486 408.314 586.343C399.75 587.2 386.903 586.343 386.903 586.343L382.621 576.919L389.473 565.781Z" fill="#F8BDC5"/>
<path opacity="0.05" d="M389.473 565.781C389.473 565.781 396.324 574.349 400.606 565.781C404.888 557.214 414.309 528.941 414.309 528.941C414.309 528.941 437.432 504.096 445.139 511.806C452.847 519.517 426.298 533.225 426.298 533.225C426.298 533.225 416.878 585.486 408.314 586.343C399.75 587.2 386.903 586.343 386.903 586.343L382.621 576.919L389.473 565.781Z" fill="black"/>
<path d="M358.642 522.944C358.642 522.944 374.057 540.936 375.77 546.933C377.483 552.93 396.324 568.352 396.324 568.352C396.324 568.352 382.621 578.632 385.191 583.773C387.76 588.913 367.206 566.638 367.206 566.638L343.226 531.512L358.642 522.944Z" fill="#EB6475"/>
<path opacity="0.1" d="M358.642 522.944C358.642 522.944 374.057 540.936 375.77 546.933C377.483 552.93 396.324 568.352 396.324 568.352C396.324 568.352 382.621 578.632 385.191 583.773C387.76 588.913 367.206 566.638 367.206 566.638L343.226 531.512L358.642 522.944Z" fill="black"/>
<path d="M368.919 502.382C368.919 502.382 361.211 527.228 361.211 536.652C361.211 546.076 328.667 534.082 329.524 528.941C330.38 523.801 348.365 504.953 349.221 497.242C350.078 489.531 368.919 502.382 368.919 502.382Z" fill="#F8BDC5"/>
<path opacity="0.1" d="M343.226 519.517C343.226 519.517 313.252 511.806 308.97 555.5C304.688 599.194 312.395 604.335 299.549 630.894C286.703 657.453 386.903 634.321 386.903 634.321C386.903 634.321 381.765 628.323 365.493 630.894L357.785 607.762C357.785 607.762 355.216 597.481 369.775 597.481C384.334 597.481 377.483 567.495 377.483 567.495C377.483 567.495 369.775 541.792 365.493 539.222C361.211 536.652 353.503 521.231 343.226 519.517Z" fill="black"/>
<path d="M343.226 517.804C343.226 517.804 313.252 510.093 308.97 553.787C304.688 597.481 312.395 602.621 299.549 629.18C286.703 655.739 386.903 632.607 386.903 632.607C386.903 632.607 381.765 626.61 365.493 629.18L357.785 606.048C357.785 606.048 355.216 595.767 369.775 595.767C384.334 595.767 377.483 565.781 377.483 565.781C377.483 565.781 369.775 540.079 365.493 537.509C361.211 534.939 353.503 519.517 343.226 517.804Z" fill="#EB6475"/>
<path d="M373.201 579.489C373.201 579.489 435.719 586.343 445.996 584.63C445.996 584.63 491.9 578.975 480.252 590.627C479.396 591.484 449.421 598.338 445.996 597.481C442.57 596.624 369.775 597.481 369.775 597.481L368.919 588.913L373.201 579.489Z" fill="#F8BDC5"/>
<path opacity="0.1" d="M325.242 558.071L370.632 599.194C370.632 599.194 379.196 582.059 381.765 582.059C384.334 582.059 350.934 531.512 350.934 531.512C350.934 531.512 342.37 521.231 337.231 526.371C332.093 531.512 316.678 528.085 325.242 558.071Z" fill="black"/>
<path d="M324.385 556.357L369.775 597.481C369.775 597.481 378.339 580.346 380.908 580.346C383.478 580.346 350.078 529.798 350.078 529.798C350.078 529.798 341.513 519.517 336.375 524.658C331.237 529.798 315.821 526.371 324.385 556.357Z" fill="#EB6475"/>
<path d="M361.211 517.804C376.819 517.804 389.473 505.146 389.473 489.531C389.473 473.917 376.819 461.259 361.211 461.259C345.603 461.259 332.949 473.917 332.949 489.531C332.949 505.146 345.603 517.804 361.211 517.804Z" fill="#F8BDC5"/>
<path opacity="0.1" d="M385.961 482.429C390.757 484.322 396.632 482.052 399.458 477.742C402.285 473.433 402.199 467.564 399.818 462.989C397.437 458.414 393.035 455.09 388.179 453.359C385.233 452.314 381.953 451.715 379.692 449.556C378.262 448.193 377.414 446.351 376.344 444.689C372.344 438.452 365.21 434.768 357.957 433.32C350.703 431.872 343.201 432.386 335.818 432.9C333.061 433.097 329.823 433.594 328.573 436.062C327.64 437.912 328.248 440.131 328.128 442.196C327.742 448.767 320.42 452.408 314.023 453.985C307.625 455.561 300.209 457.043 297.091 462.835C294.299 468.035 296.295 474.341 297.16 480.184C298.639 490.39 296.428 500.79 290.925 509.51C288.125 513.905 284.519 517.812 282.301 522.533C279.848 527.808 279.279 533.766 280.691 539.411C281.111 541.064 281.702 542.743 281.41 544.423C281.075 545.803 280.411 547.081 279.475 548.149C275.722 552.954 271.003 556.917 265.623 559.783C260.243 562.649 254.321 564.354 248.242 564.787C249.218 568.463 252.772 570.785 256.155 572.498C261.927 575.468 268.011 577.79 274.294 579.421C278.516 580.517 282.935 581.297 287.234 580.551C291.533 579.806 295.721 577.279 297.511 573.286C298.539 570.973 298.693 568.36 299.601 565.995C301.648 560.692 307.103 557.488 310.032 552.613C312.832 547.952 313.92 547.404 314.631 542.024C315.342 536.643 316.909 530.835 321.328 527.673C325.953 524.358 332.461 524.992 337.6 527.536C342.738 530.081 345.915 529.087 350.206 532.822C357.733 539.363 366.157 544.793 375.222 548.946C374.366 541.475 372.987 533.139 366.923 528.693C365.21 527.416 363.044 526.44 362.136 524.486C360.689 521.376 363.164 517.581 362.042 514.334C360.92 511.087 356.655 509.887 354.762 506.94C353.152 504.438 353.589 501.037 355.096 498.467C356.604 495.897 358.984 493.995 361.357 492.196C363.463 490.602 365.599 489.046 367.763 487.526C369.718 486.285 371.474 484.754 372.97 482.986C373.826 481.812 374.391 479.242 375.582 478.411C378.579 476.337 383.187 481.341 385.961 482.429Z" fill="black"/>
<path d="M385.105 481.572C389.901 483.465 395.776 481.195 398.602 476.886C401.428 472.576 401.342 466.708 398.962 462.133C396.581 457.558 392.179 454.233 387.323 452.503C384.377 451.457 381.097 450.858 378.836 448.699C377.406 447.337 376.558 445.495 375.487 443.832C371.488 437.595 364.354 433.911 357.1 432.464C349.846 431.016 342.344 431.53 334.962 432.044C332.204 432.241 328.967 432.738 327.717 435.205C326.783 437.056 327.391 439.275 327.271 441.339C326.886 447.911 319.564 451.552 313.166 453.128C306.769 454.705 299.352 456.187 296.235 461.978C293.443 467.179 295.439 473.484 296.303 479.327C297.783 489.534 295.572 499.933 290.069 508.654C287.268 513.049 283.663 516.956 281.445 521.676C278.991 526.951 278.423 532.91 279.835 538.554C280.254 540.207 280.845 541.887 280.554 543.566C280.218 544.946 279.554 546.225 278.619 547.293C274.865 552.097 270.146 556.06 264.766 558.926C259.386 561.792 253.465 563.497 247.385 563.931C248.362 567.606 251.916 569.928 255.298 571.641C261.071 574.611 267.154 576.933 273.437 578.564C277.659 579.661 282.078 580.44 286.378 579.695C290.677 578.949 294.865 576.422 296.655 572.43C297.682 570.116 297.836 567.503 298.744 565.139C300.791 559.835 306.246 556.631 309.175 551.756C311.976 547.096 313.063 546.547 313.774 541.167C314.485 535.787 316.052 529.978 320.471 526.817C325.096 523.501 331.605 524.135 336.743 526.68C341.882 529.224 345.059 528.23 349.35 531.966C356.877 538.507 365.301 543.936 374.365 548.09C373.509 540.619 372.13 532.283 366.067 527.836C364.354 526.56 362.187 525.583 361.279 523.63C359.832 520.52 362.307 516.724 361.185 513.477C360.063 510.23 355.798 509.031 353.906 506.083C352.296 503.582 352.733 500.18 354.24 497.61C355.747 495.04 358.128 493.138 360.5 491.339C362.607 489.745 364.742 488.189 366.906 486.67C368.861 485.428 370.617 483.897 372.113 482.129C372.97 480.955 373.535 478.385 374.725 477.554C377.723 475.481 382.33 480.484 385.105 481.572Z" fill="#916168"/>
<g opacity="0.1">
<path opacity="0.1" d="M445.876 743.024C445.94 740.744 446.268 738.478 446.852 736.273L446.424 736.419C445.997 738.593 445.813 740.809 445.876 743.024V743.024Z" fill="white"/>
<path opacity="0.1" d="M450.278 774.827C443.427 775.229 422.016 765.402 417.734 760.262C417.172 759.566 416.826 758.72 416.741 757.829C416.615 758.551 416.639 759.292 416.809 760.005C416.98 760.718 417.295 761.388 417.734 761.975C422.016 767.116 443.427 776.943 450.278 776.54C457.557 776.112 481.965 777.397 482.822 766.259C482.886 765.952 482.843 765.631 482.702 765.351C480.74 775.615 457.378 774.407 450.278 774.827Z" fill="white"/>
</g>
<path d="M484.963 519.089H484.106V554.215H484.963V519.089Z" fill="#FFD77C" stroke="#FFAB50" stroke-width="0.25" stroke-miterlimit="10"/>
<path d="M485.819 519.089H484.963V554.215H485.819V519.089Z" fill="#FFD77C" stroke="#FFAB50" stroke-width="0.25" stroke-miterlimit="10"/>
<path d="M486.675 519.089H485.819V554.215H486.675V519.089Z" fill="#FFD77C" stroke="#FFAB50" stroke-width="0.25" stroke-miterlimit="10"/>
<path d="M487.532 519.089H486.675V554.215H487.532V519.089Z" fill="#FFD77C" stroke="#FFAB50" stroke-width="0.25" stroke-miterlimit="10"/>
<path d="M488.388 519.089H487.532V554.215H488.388V519.089Z" fill="#FFD77C" stroke="#FFAB50" stroke-width="0.25" stroke-miterlimit="10"/>
<path d="M489.245 519.089H488.388V554.215H489.245V519.089Z" fill="#FFD77C" stroke="#FFAB50" stroke-width="0.25" stroke-miterlimit="10"/>
<path d="M490.101 519.089H489.245V554.215H490.101V519.089Z" fill="#FFD77C" stroke="#FFAB50" stroke-width="0.25" stroke-miterlimit="10"/>
<defs>
<linearGradient id="paint0_linear" x1="668.783" y1="790.676" x2="668.783" y2="424.847" gradientUnits="userSpaceOnUse">
<stop stop-color="#808080" stop-opacity="0.25"/>
<stop offset="0.54" stop-color="#808080" stop-opacity="0.12"/>
<stop offset="1" stop-color="#808080" stop-opacity="0.1"/>
</linearGradient>
<linearGradient id="paint1_linear" x1="93072.8" y1="250245" x2="93072.8" y2="109020" gradientUnits="userSpaceOnUse">
<stop stop-color="#808080" stop-opacity="0.25"/>
<stop offset="0.54" stop-color="#808080" stop-opacity="0.12"/>
<stop offset="1" stop-color="#808080" stop-opacity="0.1"/>
</linearGradient>
</defs>
</svg>
