<svg width="91" height="51" viewBox="0 0 91 51" fill="none" xmlns="http://www.w3.org/2000/svg">
<path d="M0 37.4399C37.2728 45.3475 86.2945 33.4532 86.9932 21.9361C87.692 10.419 34.3038 36.4314 0 37.4399Z" fill="url(#paint0_linear)"/>
<path d="M16.908 19.4C17.064 19.4 17.184 19.448 17.268 19.544C17.364 19.64 17.412 19.76 17.412 19.904V31.424C17.412 31.604 17.358 31.748 17.25 31.856C17.142 31.952 17.01 32 16.854 32C16.77 32 16.686 31.982 16.602 31.946C16.53 31.91 16.47 31.868 16.422 31.82L8.7 21.416V31.514C8.7 31.646 8.646 31.76 8.538 31.856C8.442 31.952 8.328 32 8.196 32C8.052 32 7.932 31.952 7.836 31.856C7.74 31.76 7.692 31.646 7.692 31.514V19.94C7.692 19.772 7.74 19.64 7.836 19.544C7.944 19.448 8.07 19.4 8.214 19.4C8.406 19.4 8.55 19.466 8.646 19.598L16.404 30.056V19.904C16.404 19.76 16.452 19.64 16.548 19.544C16.644 19.448 16.764 19.4 16.908 19.4ZM32.0197 25.7C32.0197 26.936 31.7617 28.046 31.2457 29.03C30.7297 30.014 30.0157 30.788 29.1037 31.352C28.1917 31.904 27.1537 32.18 25.9897 32.18C24.8257 32.18 23.7877 31.904 22.8757 31.352C21.9637 30.788 21.2497 30.014 20.7337 29.03C20.2177 28.046 19.9597 26.936 19.9597 25.7C19.9597 24.452 20.2177 23.336 20.7337 22.352C21.2497 21.368 21.9637 20.6 22.8757 20.048C23.7877 19.496 24.8257 19.22 25.9897 19.22C27.1537 19.22 28.1917 19.496 29.1037 20.048C30.0157 20.6 30.7297 21.368 31.2457 22.352C31.7617 23.336 32.0197 24.452 32.0197 25.7ZM30.8677 25.7C30.8677 24.656 30.6577 23.726 30.2377 22.91C29.8297 22.082 29.2537 21.44 28.5097 20.984C27.7777 20.528 26.9377 20.3 25.9897 20.3C25.0417 20.3 24.1957 20.528 23.4517 20.984C22.7197 21.44 22.1437 22.082 21.7237 22.91C21.3157 23.726 21.1117 24.656 21.1117 25.7C21.1117 26.744 21.3157 27.68 21.7237 28.508C22.1437 29.324 22.7197 29.96 23.4517 30.416C24.1957 30.872 25.0417 31.1 25.9897 31.1C26.9377 31.1 27.7777 30.872 28.5097 30.416C29.2537 29.96 29.8297 29.324 30.2377 28.508C30.6577 27.68 30.8677 26.744 30.8677 25.7ZM45.549 19.4C45.693 19.4 45.813 19.454 45.909 19.562C46.017 19.658 46.071 19.784 46.071 19.94V31.46C46.071 31.616 46.017 31.748 45.909 31.856C45.801 31.952 45.669 32 45.513 32C45.345 32 45.207 31.952 45.099 31.856C44.991 31.748 44.937 31.616 44.937 31.46V21.56L40.707 27.968C40.587 28.124 40.449 28.196 40.293 28.184H40.257C40.113 28.184 39.981 28.112 39.861 27.968L35.631 21.524V31.46C35.631 31.616 35.577 31.748 35.469 31.856C35.373 31.952 35.247 32 35.091 32C34.935 32 34.809 31.952 34.713 31.856C34.617 31.748 34.569 31.616 34.569 31.46V19.94C34.569 19.796 34.617 19.67 34.713 19.562C34.821 19.454 34.953 19.4 35.109 19.4C35.193 19.4 35.283 19.424 35.379 19.472C35.475 19.508 35.547 19.562 35.595 19.634L40.311 26.708L45.063 19.634C45.195 19.454 45.357 19.376 45.549 19.4ZM58.6736 19.4C58.8296 19.4 58.9496 19.448 59.0336 19.544C59.1296 19.64 59.1776 19.76 59.1776 19.904V31.424C59.1776 31.604 59.1236 31.748 59.0156 31.856C58.9076 31.952 58.7756 32 58.6196 32C58.5356 32 58.4516 31.982 58.3676 31.946C58.2956 31.91 58.2356 31.868 58.1876 31.82L50.4656 21.416V31.514C50.4656 31.646 50.4116 31.76 50.3036 31.856C50.2076 31.952 50.0936 32 49.9616 32C49.8176 32 49.6976 31.952 49.6016 31.856C49.5056 31.76 49.4576 31.646 49.4576 31.514V19.94C49.4576 19.772 49.5056 19.64 49.6016 19.544C49.7096 19.448 49.8356 19.4 49.9796 19.4C50.1716 19.4 50.3156 19.466 50.4116 19.598L58.1696 30.056V19.904C58.1696 19.76 58.2176 19.64 58.3136 19.544C58.4096 19.448 58.5296 19.4 58.6736 19.4ZM73.7853 25.7C73.7853 26.936 73.5273 28.046 73.0113 29.03C72.4953 30.014 71.7813 30.788 70.8693 31.352C69.9573 31.904 68.9193 32.18 67.7553 32.18C66.5913 32.18 65.5533 31.904 64.6413 31.352C63.7293 30.788 63.0153 30.014 62.4993 29.03C61.9833 28.046 61.7253 26.936 61.7253 25.7C61.7253 24.452 61.9833 23.336 62.4993 22.352C63.0153 21.368 63.7293 20.6 64.6413 20.048C65.5533 19.496 66.5913 19.22 67.7553 19.22C68.9193 19.22 69.9573 19.496 70.8693 20.048C71.7813 20.6 72.4953 21.368 73.0113 22.352C73.5273 23.336 73.7853 24.452 73.7853 25.7ZM72.6333 25.7C72.6333 24.656 72.4233 23.726 72.0033 22.91C71.5953 22.082 71.0193 21.44 70.2753 20.984C69.5433 20.528 68.7033 20.3 67.7553 20.3C66.8073 20.3 65.9613 20.528 65.2173 20.984C64.4853 21.44 63.9093 22.082 63.4893 22.91C63.0813 23.726 62.8773 24.656 62.8773 25.7C62.8773 26.744 63.0813 27.68 63.4893 28.508C63.9093 29.324 64.4853 29.96 65.2173 30.416C65.9613 30.872 66.8073 31.1 67.7553 31.1C68.7033 31.1 69.5433 30.872 70.2753 30.416C71.0193 29.96 71.5953 29.324 72.0033 28.508C72.4233 27.68 72.6333 26.744 72.6333 25.7ZM87.3146 19.4C87.4586 19.4 87.5786 19.454 87.6746 19.562C87.7826 19.658 87.8366 19.784 87.8366 19.94V31.46C87.8366 31.616 87.7826 31.748 87.6746 31.856C87.5666 31.952 87.4346 32 87.2786 32C87.1106 32 86.9726 31.952 86.8646 31.856C86.7566 31.748 86.7026 31.616 86.7026 31.46V21.56L82.4726 27.968C82.3526 28.124 82.2146 28.196 82.0586 28.184H82.0226C81.8786 28.184 81.7466 28.112 81.6266 27.968L77.3966 21.524V31.46C77.3966 31.616 77.3426 31.748 77.2346 31.856C77.1386 31.952 77.0126 32 76.8566 32C76.7006 32 76.5746 31.952 76.4786 31.856C76.3826 31.748 76.3346 31.616 76.3346 31.46V19.94C76.3346 19.796 76.3826 19.67 76.4786 19.562C76.5866 19.454 76.7186 19.4 76.8746 19.4C76.9586 19.4 77.0486 19.424 77.1446 19.472C77.2406 19.508 77.3126 19.562 77.3606 19.634L82.0766 26.708L86.8286 19.634C86.9606 19.454 87.1226 19.376 87.3146 19.4Z" fill="black"/>
<defs>
<linearGradient id="paint0_linear" x1="30.3952" y1="36.7186" x2="88.6914" y2="19.3682" gradientUnits="userSpaceOnUse">
<stop stop-color="#FF7518"/>
<stop offset="1" stop-color="#FF7518" stop-opacity="0"/>
</linearGradient>
</defs>
</svg>
